<svg version="1" xmlns="http://www.w3.org/2000/svg" width="181.333" height="181.333" viewBox="0 0 136.000000 136.000000"><path d="M60 .6c-1.4.2-5.2.9-8.5 1.5-5 .9-17.2 4.5-18.3 5.4-.2.2 3 .8 7 1.5 30 4.8 55.3 20 63.9 38.4 4.2 9 7.1 23.6 5.8 29.4-2.2 9.8-9.2 20.2-18.4 27.1-11.9 9-24.8 14.6-44.5 19.5-14.2 3.5-14.2 3.5-6.3 7.5 10.7 5.4 27.4 6.6 42.1 3 24.2-5.9 41.4-22.5 49.1-47.4 1.9-5.9 2.2-8.8 1.8-18-.4-12.4-2-18.7-7.2-29.1-8.4-16.5-23.7-29.8-41.3-36C78.6 1.2 65.3-.3 60 .6z"/><path d="M8.8 31.1c-3.3 4.3-4.2 6.2-6.6 13.1l-2 5.7 4 2.7c2.1 1.5 5 4.6 6.4 6.9 4.6 8 2.4 15.6-6.2 21L.2 83.2l3.3 9.7c5.1 15.1 4.3 14.4 13.3 13.9 5.5-.2 9.1-1 12.5-2.7 10.9-5.3 22.2-21.2 22-31-.1-6.4-2.8-16.4-6.4-23.8-5.7-11.8-17-20.1-28.5-21.1-4.9-.4-5.3-.2-7.6 2.9z"/></svg>