<svg id="Layer_1" data-name="Layer 1" xmlns="http://www.w3.org/2000/svg" width="440.22389" height="330" viewBox="0 0 440.22389 330">
  <title>ico-Artboard 1</title>
  <path d="M78,69.5C57.10528,89.46265,47.5705,108.59776,45,136c-2.774,29.57131-3.98742,28.28643-22.6919,56.88869-26.06829,39.86277-12.29371,86.76684,40.59373,92.93049,20.21751,2.35621,38.53663-6.4879,58.59817-6.31918,22.03031.18528,43.8343,9.27775,64.80352,15.15084,60.04481,16.81742,133.86819,41.9813,194.7407,14.96729,37.4774-16.63173,68.15393-62.4045,30.11811-94.17621-40.17445-33.55814-88.1498-11.89507-122.62011-58.13407-30.75113-41.25-34.04721-93.367-86.61379-114.56675C158.02265,25.03417,111.81806,37.19043,78,69.5Z" style="fill: #edebf8"/>
  <circle cx="347" cy="75" r="38.5" style="fill: #edebf8"/>
</svg>
