<svg id="Layer_1" data-name="Layer 1" xmlns="http://www.w3.org/2000/svg" width="100" height="100" viewBox="0 0 100 100">
  <title>ico-Artboard 1</title>
  <g>
    <polygon points="44.996 50 34.998 40.002 25 50 44.996 69.996 75 40.002 64.992 30.004 44.996 50" style="fill: #272725;opacity: 0.1"/>
    <path d="M90.625,0H9.375A9.39062,9.39062,0,0,0,0,9.375v81.25A9.38227,9.38227,0,0,0,9.375,100h81.25A9.37842,9.37842,0,0,0,100,90.625V9.375A9.38676,9.38676,0,0,0,90.625,0ZM93.75,90.625a3.13386,3.13386,0,0,1-3.125,3.125H9.375A3.13386,3.13386,0,0,1,6.25,90.625V9.375A3.13775,3.13775,0,0,1,9.375,6.25h81.25A3.13775,3.13775,0,0,1,93.75,9.375Z" style="fill: #272725"/>
  </g>
</svg>
