<?xml version="1.0" encoding="UTF-8" standalone="no"?>
<svg width="978px" height="304px" viewBox="0 0 978 304" version="1.1" xmlns="http://www.w3.org/2000/svg" xmlns:xlink="http://www.w3.org/1999/xlink">
    <!-- Generator: Sketch 48.2 (47327) - http://www.bohemiancoding.com/sketch -->
    <title>Group 2</title>
    <desc>Created with Sketch.</desc>
    <defs>
        <path d="M3.56260163,117.883056 C3.56260163,117.883056 8.59311668,162.331199 22.7735156,220.523159 C22.7735156,220.523159 31.0067645,253.514915 50.2176785,270.929064 C51.1343135,271.388199 67.5980668,291.089776 105.106004,295.672881 C142.613942,300.255986 199.332793,305.754612 236.382413,303.461685 C273.432033,301.171507 332.892556,291.092525 382.750366,275.512168 C382.750366,275.512168 416.599997,263.596646 425.747136,231.064025 C425.747136,231.064025 440.380364,165.996034 442.669207,67.9390354 C442.669207,67.9390354 443.12478,26.6993401 410.650102,24.4091623 C410.650102,24.4091623 358.506193,6.53862771 219.913171,1.04000167 C219.913171,1.04000167 125.22532,-3.54310313 41.9789408,17.5331305 C41.9789408,17.5331305 -11.9845166,28.0712473 3.56260163,117.883056" id="path-1"></path>
        <path d="M-95.8933944,117.883056 C-95.8933944,117.883056 -100.923909,162.331199 -115.104308,220.523159 C-115.104308,220.523159 -123.337557,253.514915 -142.548471,270.929064 C-143.465106,271.388199 -159.92886,291.089776 -197.436797,295.672881 C-234.944734,300.255986 -291.663586,305.754612 -328.713206,303.461685 C-365.762825,301.171507 -425.223349,291.092525 -475.081159,275.512168 C-475.081159,275.512168 -508.93079,263.596646 -518.077929,231.064025 C-518.077929,231.064025 -532.711157,165.996034 -535,67.9390354 C-535,67.9390354 -535.455573,26.6993401 -502.980895,24.4091623 C-502.980895,24.4091623 -450.836986,6.53862771 -312.243963,1.04000167 C-312.243963,1.04000167 -217.556113,-3.54310313 -134.309734,17.5331305 C-134.309734,17.5331305 -80.3462761,28.0712473 -95.8933944,117.883056" id="path-3"></path>
    </defs>
    <g id="Home" stroke="none" stroke-width="1" fill="none" fill-rule="evenodd" transform="translate(-471.000000, -3165.000000)">
        <g id="Group-2" transform="translate(1006.000000, 3165.000000)">
            <mask id="mask-2" fill="white">
                <use xlink:href="#path-1"></use>
            </mask>
            <use id="Mask" fill="#282829" xlink:href="#path-1"></use>
            <mask id="mask-4" fill="white">
                <use xlink:href="#path-3"></use>
            </mask>
            <use id="Mask" fill="#282829" xlink:href="#path-3"></use>
        </g>
    </g>
</svg>