<?xml version="1.0" encoding="UTF-8"?>
<svg width="16px" height="16px" viewBox="0 0 16 16" version="1.1" xmlns="http://www.w3.org/2000/svg" xmlns:xlink="http://www.w3.org/1999/xlink">
    <!-- Generator: Sketch 46 (44423) - http://www.bohemiancoding.com/sketch -->
    <title>arrow-left-icon</title>
    <desc>Created with Sketch.</desc>
    <defs></defs>
    <g id="Assets" stroke="none" stroke-width="1" fill="none" fill-rule="evenodd">
        <g id="Assets-(Dark-BG)" transform="translate(-85.000000, -88.000000)" fill="#FFFFFF">
            <g id="Arrow-Left" transform="translate(85.000000, 88.000000)">
                <path d="M3.24737331,8.9985 L5.72861393,11.2935 C6.12381153,11.6845 6.12381153,12.3165 5.72861393,12.7075 C5.33241583,13.0985 4.69109517,13.0985 4.29589757,12.7075 L0.444972111,9.0605 C0.15882904,8.7765 0.000750000001,8.4015 0.000750000001,7.9995 C0.000750000001,7.5985 0.15882904,7.2215 0.444972111,6.9395 L4.29589757,3.2925 C4.69109517,2.9015 5.33241583,2.9015 5.72861393,3.2925 C6.12381153,3.6825 6.12381153,4.3155 5.72861393,4.7065 L3.24937431,6.9985 L15.0002497,6.9985 C15.5525259,6.9985 16.00075,7.4465 16.00075,7.9985 C16.00075,8.5505 15.5525259,8.9985 15.0002497,8.9985 L3.24737331,8.9985 Z" id="Arrow"></path>
            </g>
        </g>
    </g>
</svg>