<svg id="Layer_1" data-name="Layer 1" xmlns="http://www.w3.org/2000/svg" width="440.22389" height="330" viewBox="0 0 440.22389 330">
  <title>ico-Artboard 1 copy</title>
  <circle cx="369" cy="269.5" r="16.5" style="fill: #edebf8"/>
  <path d="M193.5,47.5c-16.32306,5.16974-32.47852,13.541-66,41.5C86.73669,122.99918,88.27734,129.26089,71,134.5c-18.83264,5.71072-27.88025.45941-43.5,10.5-3.12134,2.00644-23.85138,15.77393-24,36-.09442,12.84933,8.16364,22.04169,22.5,38,14.79919,16.47351,19.99829,15.83871,29.5,28,15.14581,19.38519,8.90881,29.923,19,46,18.70264,29.7966,64.56824,32.53911,89,34,26.28369,1.57162,56.05469,3.35176,76-15.5,13.81659-13.05908,9.97278-23.78314,28.5-44.5a128.057,128.057,0,0,1,40-29.5c31.713-14.86664,44.55652-4.092,79-20,12.59229-5.81583,24.42969-11.459,34-24.5,1.4895-2.0296,17.08545-23.99442,12-52-4.05249-22.31741-18.88562-35.51324-34.5-49C368.73352,66.28958,338.06067,57.1261,315,50.5c-17.90759-5.14545-55.39551-15.50232-100-8A147.27817,147.27817,0,0,0,193.5,47.5Z" style="fill: #edebf8"/>
</svg>
