<svg xmlns="http://www.w3.org/2000/svg" xmlns:xlink="http://www.w3.org/1999/xlink" viewBox="0 0 728 550.34"><defs><style>.cls-1{fill:none;}.cls-2{isolation:isolate;}.cls-3{fill:#eae9f5;}.cls-26,.cls-4{fill:#fff;}.cls-5{fill:#e1e0ec;}.cls-6{clip-path:url(#clip-path);}.cls-7{fill:#d8d8e5;}.cls-8,.cls-9{fill:#f5f5f7;}.cls-9{opacity:0.82;}.cls-10{clip-path:url(#clip-path-2);}.cls-11{fill:#ffbc66;}.cls-12,.cls-24{fill:#863725;}.cls-12{opacity:0.15;}.cls-13{fill:#89745d;}.cls-14{fill:#5e4c3b;}.cls-15{fill:#bbb4ff;}.cls-16{fill:#eae9ee;mix-blend-mode:multiply;}.cls-17{fill:#080051;}.cls-18,.cls-23{fill:#040021;}.cls-19{fill:#65f;}.cls-20,.cls-26{opacity:0.5;}.cls-21{fill:#d3cdcb;}.cls-21,.cls-22,.cls-23{fill-rule:evenodd;}.cls-22{fill:#f3f3f3;}.cls-24{opacity:0.1;}.cls-25{clip-path:url(#clip-path-3);}</style><clipPath id="clip-path"><path class="cls-1" d="M721.22,264.12c-2.88-40.35-13-81.22-37-114.63-29.46-40.94-77.76-67.29-128.36-79.78S452.12,57.42,400,60.86c-37,2.44-53.52-.75-87.47,13.31q-5.61,2.32-10.86,4.92V44.62H5.54V340.71h0A133,133,0,0,0,9.2,373.24c12.83,53.09,54.72,97,104.61,124C197,542.37,298,544.45,393.65,538.82c52.72-3.1,105.82-8.29,155.93-24.12S647,471.54,678.1,431.06C714.37,383.75,725.39,322.46,721.22,264.12Z"/></clipPath><clipPath id="clip-path-2"><path class="cls-1" d="M721.22,264.12c-2.88-40.35-13-81.22-37-114.63-20-27.74-48.57-48.77-80.68-63.34V4.75h-254V63.8c-11.13,1.49-22.48,4.35-37,10.37-34,14.06-58.3,35.3-69.66,68.72-10.57,31-44.91,48.91-78,58s-68.53,12.76-98,29.58C17.58,258.53-3.64,320.15,9.2,373.24s54.72,97,104.61,124C197,542.37,298,544.45,393.65,538.82c52.72-3.1,105.82-8.29,155.93-24.12S647,471.54,678.1,431.06C714.37,383.75,725.39,322.46,721.22,264.12Z"/></clipPath><clipPath id="clip-path-3"><path class="cls-1" d="M341.23,286.65l-2.08-.24-.1.55c-.3,1.66-1.43,2.9-2.5,2.77l-8.3-.94c-1.07-.11-1.71-1.49-1.41-3.07l.1-.52-2.08-.17c-1.25-.1-2.56,1.31-2.91,3.11L311.39,341.5c-.34,1.69.39,3.4,1.63,3.81L329.24,351c1.24.46,2.53-.66,2.88-2.5l10.73-58C343.21,288.54,342.48,286.81,341.23,286.65Z"/></clipPath></defs><title>How-It-Works-v4</title><g class="cls-2"><g id="BG"><path class="cls-3" d="M242.83,142.9c11.35-33.42,35.71-54.66,69.66-68.72S363,63.3,400,60.86c52.16-3.44,105.28-3.64,155.88,8.85s98.9,38.84,128.36,79.78c24,33.41,34.14,74.29,37,114.63,4.17,58.34-6.85,119.63-43.12,166.94-31,40.49-78.41,67.81-128.51,83.64s-103.21,21-155.93,24.12C298,544.45,197,542.37,113.81,497.28,63.92,470.23,22,426.33,9.2,373.24s8.38-114.71,57.63-142.8c29.49-16.82,65-20.52,98-29.58S232.26,173.94,242.83,142.9Z"/><path class="cls-4" d="M214.37,197.55c.15-2.22.23-4.46.23-6.72a101.11,101.11,0,1,0-202.23,0c0,2.26.08,4.5.23,6.72Z"/><path class="cls-5" d="M215.31,198.55H11.67l-.06-.93c-.15-2.33-.23-4.61-.23-6.79a102.11,102.11,0,1,1,204.23,0c0,2.18-.08,4.46-.23,6.79Zm-201.77-2H213.43c.11-2,.17-3.88.17-5.72a100.11,100.11,0,1,0-200.23,0C13.37,192.67,13.43,194.59,13.54,196.55Z"/><polygon class="cls-5" points="173.59 109.56 118.89 196 115.44 164.41 140.26 93.34 140.45 92.8 138.93 92.4 114.66 157.2 107.38 90.41 107.35 90.1 105.2 89.18 111.76 180.78 38.84 121.84 37.2 123.66 112.22 187.18 113 198.07 117.57 198.07 119.11 198.07 121.17 198.07 174.48 110.11 173.59 109.56"/><polygon class="cls-5" points="206.58 150.86 187.75 165.29 197.53 134.01 196.54 133.68 184.65 167.67 144.97 198.07 151.47 198.07 207.17 152.31 207.6 151.95 206.58 150.86"/><polygon class="cls-5" points="183.39 117.9 129.74 198.07 133.12 198.07 184.27 118.47 183.39 117.9"/><polygon class="cls-5" points="22.97 145.61 52.13 164.22 18.38 158.26 18.18 159.29 56.39 166.93 105.08 197.99 105.21 198.07 105.36 198.07 107.77 198.07 110.47 197.97 23.52 144.72 22.97 145.61"/><polygon class="cls-5" points="14.23 168.84 63.38 198 63.5 198.07 67.92 198.07 14.69 166.84 14.23 168.84"/><g class="cls-6"><path class="cls-7" d="M785.67,379.91l-.16,2.38A12.43,12.43,0,0,0,773,370h-3.33a12.43,12.43,0,0,1-12.52-12.26V317.52a9.5,9.5,0,0,0-19,0v19.07c0,7.46-5.85,13.57-13,13.57s-13-6.11-13-13.57V272.35a11.2,11.2,0,0,0-22.4,0v12.56l0,5.67c0,8.86-7.57,16.1-16.82,16.1h-4.48c-9.25,0-16.82,7.25-16.82,16.1v52.85c0,6.72-5.74,12.22-12.76,12.22s-12.76-5.5-12.76-12.22v-25a17.47,17.47,0,1,0-34.93,0v56c0,7.92-6.77,14.4-15,14.4s-15-6.48-15-14.4V358.91c0-7.92-6.77-14.4-15-14.4h-6.26c-9.25,0-16.82-7.25-16.82-16.1v-23.8c0-7.62-6.51-13.85-14.47-13.85h-1.64c-8,0-14.47,6.23-14.47,13.85l.1,10.74c0,7.21-6.16,13.1-13.69,13.1a8.52,8.52,0,0,0-8.68,8.31v50.06c0,12.69-10.85,23.07-24.11,23.07h-3.67c-11.48,0-21.15-7.79-23.54-18.11l-.57-5V345.32a9,9,0,0,0-5.65-8.25l-2.31-20.26-.16-2.38a12.43,12.43,0,0,1-12.52,12.26h-3.33A12.43,12.43,0,0,0,381.72,339V379.2a9.5,9.5,0,0,1-19,0V360.13c0-7.46-5.85-13.57-13-13.57h0c-7.15,0-13,6.11-13,13.57v64.24a11.2,11.2,0,0,1-22.4,0V411.8l0-5.67c0-8.86-7.57-16.1-16.82-16.1H293c-9.25,0-16.82-7.25-16.82-16.1V321.08c0-6.72-5.74-12.22-12.76-12.22s-12.76,5.5-12.76,12.22v25a17.7,17.7,0,0,1-17.47,17.82h0a17.7,17.7,0,0,1-17.46-17.82V261.77c0-7.92-6.77-14.4-15-14.4s-15,6.48-15,14.4v76c0,7.92-6.77,14.4-15,14.4h-6.26c-9.25,0-16.82,7.25-16.82,16.1v23.8c0,7.62-6.51,13.85-14.47,13.85h-1.64c-8,0-14.47-6.23-14.47-13.85l.1-10.74c0-7.21-6.16-13.1-13.69-13.1A8.52,8.52,0,0,1,94.71,360V309.89c0-12.69-10.85-23.07-24.11-23.07H66.93c-13.26,0-24.11,10.38-24.11,23.07v41.5a9.25,9.25,0,0,1-9.42,9,9.25,9.25,0,0,1-9.42-9v2.16c0-6.74-5.76-12.25-12.8-12.25s-12.8,5.51-12.8,12.25v170l205.86,32.21,192.89-5.22V617l182.51-28.56,232.49,6.29Z"/><path class="cls-5" d="M218.77,224.48v8.69a7.51,7.51,0,0,1-7.5,7.5H182a18.93,18.93,0,0,0-8.08,1.82v-18h-16v42.93H142a7.51,7.51,0,0,1-7.5-7.5V231h1.93a11.74,11.74,0,0,0,11.73-11.73V197.55h-8v21.72A3.73,3.73,0,0,1,136.4,223h-1.93V197.06h-6V223h-19a14.39,14.39,0,0,0-6,1.32v-7.23a12.24,12.24,0,0,0-12.23-12.23H68.83a3.23,3.23,0,0,1-3.23-3.23v-4.07h-9v4.07a12.24,12.24,0,0,0,12.23,12.23H91.21a3.23,3.23,0,0,1,3.23,3.23v51.67c0,15.72,14,28.51,31.17,28.51h32.3V519.53L173,525.1l.93-275.61a13,13,0,0,1,8.08-2.82h29.27a13.52,13.52,0,0,0,13.5-13.5v-8.69Zm-93.16,63.78c-12.23,0-22.17-8.75-22.17-19.51V235a6.51,6.51,0,0,1,6-4h19V259.9a13.52,13.52,0,0,0,13.5,13.5h15.94v14.85Z"/><path class="cls-8" d="M79.37,513.21l103.78,27.84c65,16.43,142.59,1.77,210.51-2.23,52.72-3.1,105.82-8.29,155.93-24.12S647,471.55,678.1,431.06c1.63-2.13,3.2-4.3,4.73-6.49-88.29-3.11-178.11-14.37-240.25-3.09C256.12,455.34,79.37,513.21,79.37,513.21Z"/><path class="cls-5" d="M585.07,181.63c10.74-1.84,18.78-3.64,18-14.46s3.81-30.42,17-32.69,27.59-.93,30.46,19.38-.57,41.79,15.52,37.37,22.41-10.53,28.16,0-20.12,34.06-19,41.83,14.37,6.78,15.52,18.2-31.61,34.41-29.89,46.48S680.44,303,677.56,319,650,356.37,649.4,363.84s17.82,5.17,16.67,15.52-21.84,30.46-40.81,32.18-34.48-2.06-46.55-8.5-23.38-35.07-7.38-36.27,14.3-21.06,9.68-32.32S555.62,312.11,550.5,300s4.07-17.22,17.29-14.93,8.23-19,3.54-26.76-15.11-22.9-11-34.86,14.41-5.07,21.88-7.94S565,185.07,585.07,181.63Z"/><path class="cls-9" d="M663,229.23a3,3,0,1,0-4.29-4.2l-30,30.59L630,200.46a3,3,0,1,0-6-.13l-2.16,97.74-28.55-25.76a3,3,0,1,0-4,4.46L621.66,306l-1.52,68.8-20.5-10.69a3,3,0,1,0-2.78,5.32L620,381.49l-.93,42.05a3,3,0,0,0,2.93,3.07h.07a3,3,0,0,0,3-2.93l1.58-71.53a2.94,2.94,0,0,0,.23-.23L650.6,322.2a3,3,0,1,0-4.69-3.74l-19.05,23.86,1.72-77.92Z"/><polygon class="cls-8" points="327.13 158.1 302.74 158.1 296.77 115.58 333.1 115.58 327.13 158.1"/><polygon class="cls-7" points="328.4 104.72 301.47 104.72 294.87 115.58 335 115.58 328.4 104.72"/><rect class="cls-5" x="311.44" y="157.99" width="7" height="283.13"/><path class="cls-5" d="M195.8,493.24a2,2,0,0,1-2-2V394.11a2,2,0,0,1,1.93-2l3.47-.12a13.35,13.35,0,0,1,9.84,3.74,13.08,13.08,0,0,1,4,9.49v30a2,2,0,0,1-4,0v-30a9.1,9.1,0,0,0-2.8-6.61,9.41,9.41,0,0,0-6.92-2.62l-1.54.05v95.2A2,2,0,0,1,195.8,493.24Z"/><path class="cls-5" d="M234.95,489a2,2,0,0,1-2-2v-32.6a8.4,8.4,0,0,0-2.68-6.22,9.09,9.09,0,0,0-7-2.36l-2.56.18a10.92,10.92,0,0,1-8.3-2.85,10.61,10.61,0,0,1-3.39-7.86v-30a2,2,0,0,1,4,0v30a6.65,6.65,0,0,0,2.11,4.93,6.89,6.89,0,0,0,5.29,1.79l2.57-.18a13.08,13.08,0,0,1,10,3.42,12.36,12.36,0,0,1,4,9.15V487A2,2,0,0,1,234.95,489Z"/><path class="cls-5" d="M328.22,403.61a2,2,0,0,1-2-2V374.39c0-4.73-4.4-8.61-9.81-8.67l-3.47,0a2,2,0,0,1,0-4h0l3.47,0c7.59.08,13.77,5.76,13.77,12.67v27.22A2,2,0,0,1,328.22,403.61Z"/><path class="cls-5" d="M352.12,451.29a2,2,0,0,1-2-2V419.81a7.36,7.36,0,0,0-2.32-5.28,10.35,10.35,0,0,0-7.42-2.74l-2.56.07a11.74,11.74,0,0,1-8.56-3.22,9.77,9.77,0,0,1-3-7V374.39a2,2,0,0,1,4,0v27.22a5.81,5.81,0,0,0,1.83,4.17,7.86,7.86,0,0,0,5.66,2.09l2.57-.07a14.2,14.2,0,0,1,10.31,3.87,11.33,11.33,0,0,1,3.53,8.14v29.48A2,2,0,0,1,352.12,451.29Z"/><path class="cls-8" d="M352.52,445V419.89c0-5.67-5.3-10.18-11.79-10h-.32l-2.24.06c-5.25.15-9.54-3.57-9.54-8.26V374.49c0-5.8-5.3-10.6-11.79-10.66l-3.47,0h-.63l-117.42,30,.88.46,3.47-.12a11.27,11.27,0,0,1,11.79,11.23v30A8.72,8.72,0,0,0,221,444l2.24-.16.32,0a10.69,10.69,0,0,1,11.79,10.57v30.38l117.17-37.44Z"/><path class="cls-5" d="M194.72,394.11a1,1,0,0,1-.25-2l118.24-30.28a1,1,0,0,1,.5,1.94L195,394.08A1,1,0,0,1,194.72,394.11Z"/><path class="cls-5" d="M203.5,396.44a1,1,0,0,1-.25-2L322,363.88a1,1,0,0,1,.5,1.94L203.75,396.4A1,1,0,0,1,203.5,396.44Z"/><path class="cls-5" d="M210.05,401.58a1,1,0,0,1-.25-2L328,369a1,1,0,0,1,.5,1.94L210.3,401.55A1,1,0,0,1,210.05,401.58Z"/><path class="cls-5" d="M211.05,408.12a1,1,0,0,1-.25-2L328.68,375a1,1,0,1,1,.51,1.93L211.31,408.08A1,1,0,0,1,211.05,408.12Z"/><path class="cls-5" d="M211.05,414.76a1,1,0,0,1-.26-2L328.67,381a1,1,0,0,1,.52,1.93L211.31,414.73A1,1,0,0,1,211.05,414.76Z"/><path class="cls-5" d="M211.05,421.41a1,1,0,0,1-.26-2L328.67,387a1,1,0,0,1,.53,1.93L211.32,421.38A1,1,0,0,1,211.05,421.41Z"/><path class="cls-5" d="M211.05,428.06a1,1,0,0,1-.27-2l117.88-33a1,1,0,1,1,.54,1.93L211.32,428A1,1,0,0,1,211.05,428.06Z"/><path class="cls-5" d="M211.05,434.71a1,1,0,0,1-.27-2l117.88-33.68a1,1,0,1,1,.55,1.92L211.33,434.67A1,1,0,0,1,211.05,434.71Z"/><path class="cls-5" d="M234.95,453.14a1,1,0,0,1-.28-2l117.17-34.33a1,1,0,0,1,.56,1.92L235.23,453.1A1,1,0,0,1,234.95,453.14Z"/><path class="cls-5" d="M234.95,459.66a1,1,0,0,1-.29-2L352.6,422.54a1,1,0,0,1,.57,1.92L235.23,459.62A1,1,0,0,1,234.95,459.66Z"/><path class="cls-5" d="M234.95,466.18a1,1,0,0,1-.29-2l117.91-35.78a1,1,0,1,1,.58,1.91L235.24,466.14A1,1,0,0,1,234.95,466.18Z"/><path class="cls-5" d="M234.95,472.7a1,1,0,0,1-.29-2l117.58-36.32a1,1,0,0,1,.59,1.91L235.24,472.66A1,1,0,0,1,234.95,472.7Z"/><path class="cls-5" d="M234.95,479.22a1,1,0,0,1-.3-2l117.85-37a1,1,0,1,1,.6,1.91l-117.85,37A1,1,0,0,1,234.95,479.22Z"/><path class="cls-5" d="M234.95,485.75a1,1,0,0,1-.3-2l117.17-37.45a1,1,0,1,1,.61,1.9L235.25,485.7A1,1,0,0,1,234.95,485.75Z"/><path class="cls-5" d="M211.77,441.49a1,1,0,0,1-.28-2L330,405.07a1,1,0,0,1,.56,1.92L212,441.45A1,1,0,0,1,211.77,441.49Z"/><path class="cls-5" d="M216.79,444.82a1,1,0,0,1-.28-2L336.19,408a1,1,0,1,1,.56,1.92L217.07,444.78A1,1,0,0,1,216.79,444.82Z"/><path class="cls-5" d="M225.4,445.92a1,1,0,0,1-.28-2l120.32-34.81a1,1,0,1,1,.56,1.92L225.68,445.88A1,1,0,0,1,225.4,445.92Z"/><path class="cls-5" d="M232.53,448.64a1,1,0,0,1-.28-2l117.55-34.09a1,1,0,1,1,.56,1.92L232.81,448.6A1,1,0,0,1,232.53,448.64Z"/><rect class="cls-5" x="195.22" y="478.21" width="38.96" height="4" transform="translate(-47.67 24.29) rotate(-5.83)"/><path class="cls-5" d="M196.48,449.79a2,2,0,0,1-.15-4l31-2.43a2,2,0,0,1,.31,4l-31,2.43Z"/></g><path class="cls-4" d="M281.72,224.48c.1-1.48.15-3,.15-4.47a67.21,67.21,0,1,0-134.42,0c0,1.5.05,3,.15,4.47Z"/><path class="cls-5" d="M282.66,225.48h-136l-.06-.93c-.1-1.54-.15-3.07-.15-4.54a68.21,68.21,0,1,1,136.42,0c0,1.45-.05,3-.15,4.53Zm-134.11-2H280.78c.06-1.19.09-2.35.09-3.47a66.21,66.21,0,1,0-132.42,0C148.45,221.14,148.48,222.3,148.55,223.48Z"/><rect class="cls-5" x="217.9" y="153.83" width="1.5" height="70.65" transform="translate(-1.09 1.27) rotate(-0.33)"/><rect class="cls-5" x="206.2" y="152.74" width="1.5" height="50.23" transform="translate(-59.21 117.7) rotate(-27.94)"/><rect class="cls-5" x="193.57" y="160.08" width="1.5" height="70.79" transform="translate(-76.95 146.64) rotate(-34.97)"/><rect class="cls-5" x="176.17" y="185.21" width="1.5" height="58.86" transform="translate(-84.54 309.54) rotate(-70.45)"/><rect class="cls-5" x="199.27" y="191.35" width="68.36" height="1.5" transform="translate(-23.28 351.76) rotate(-71.33)"/><rect class="cls-5" x="222.73" y="190.4" width="48.08" height="1.5" transform="translate(-65.01 206.13) rotate(-40.51)"/><rect class="cls-5" x="235.64" y="155.02" width="1.5" height="20.1" transform="translate(-38.02 76.59) rotate(-17.05)"/><rect class="cls-5" x="224.18" y="210.6" width="57.27" height="1.5" transform="translate(-68.74 139.3) rotate(-27.27)"/><rect class="cls-5" x="234.5" y="218.81" width="47.68" height="1.5" transform="translate(-39.87 58.27) rotate(-11.95)"/></g><g id="Layer_1" data-name="Layer 1"><g class="cls-10"><path class="cls-11" d="M355.42,551.2s22.38,102.36,27,113.09l43.47-1.46,17.2-84.32-39.71-24-32.58-7.21Z"/><path class="cls-12" d="M355.42,551.2s22.38,102.36,27,113.09l43.47-1.46,17.2-84.32-39.71-24-32.58-7.21Z"/><path class="cls-13" d="M538.77,550,492.6,660.6l-78.42,2.63,21.86-104s12.82-12.89,26.89-19.8,29.46-14.09,44.1-12.76S538.06,534.9,538.77,550Z"/><path class="cls-14" d="M463.18,539.42c-14.07,6.92-26.89,19.8-26.89,19.8l-21.86,104,17.06-.57c5.46-22,17.27-68.08,23-79,5-9.47,18.68-35.19,30.2-53.59A183.14,183.14,0,0,0,463.18,539.42Z"/><path class="cls-13" d="M496.37,374.39s39.38,45.15,44.95,49.73,14.41,2.7,16.05,4.24-1.23,10.86-2.7,14.41-8.53,11.42-8.53,11.42-3.06-5.94-11.52-11.39-43.89-27.49-43.89-27.49Z"/><path class="cls-13" d="M589.66,429.15s6,7.3,6.45,8.85.84,5.6-.21,6.72-2.75,2.27-2.35,3.48.76,3.27.15,4.4-2.47.82-2.42,1.77a11.92,11.92,0,0,1-.27,4.43c-.53,1.39-2.93,1.11-2.84,1.83s.17,3.11.14,4.34-2.3,2.76-2.93,3.36-2.73,2.92-4.95,3.79-12.17.12-13.93-.48-6-5.16-8.78-6.73a30.33,30.33,0,0,1-12.11-11.59c-4.46-7.35-5-12.77-5-12.77L556,427.41s19.26-6.42,21.66-6S589.66,429.15,589.66,429.15Z"/><path class="cls-13" d="M421.43,161.41s1.78,16.93.83,24.7-7.68,19-16,21.51c0,0-1.66,37.17,5.82,48.53S444,273.49,444,273.49s34.86.45,41-8.8,9.8-44.62,9.8-44.62-23.9-8.16-26.14-26.8S463.39,136,463.39,136,420.88,155.13,421.43,161.41Z"/><path class="cls-13" d="M500.35,222.17s14.29,3.94,20.08,6S536,236,537.32,247.83s-1.79,22.45-6.55,32.47-17.87,36.56-17.87,36.56L493.44,287,498.15,247Z"/><path class="cls-14" d="M437.24,227.71c3.32-3,3.31-11.13,4-14.32,1-4.77.94-20.58,12.84-32,3.94-3.78,9.16-7.25,12.35-10.48-.49-5.25-1-10.54-1.37-15.36a11.93,11.93,0,0,0-5.52,1c-11,4.24-38.05,4.84-38.05,4.84s1.78,16.93.83,24.7-7.68,19-16,21.51c0,0-.17,3.75-.16,9.22,2,.34,3.61.66,4.73,1C417.23,219.54,433.92,230.72,437.24,227.71Z"/><path class="cls-13" d="M555.22,427.72s7.37-3,10.8-4.33,8.42-4.78,10.25-4.84,6.49-1.44,9.48,2.54a23.54,23.54,0,0,1,3.91,8s2,8.2.36,8.66-7.35,1.37-8.67-1.45a32.56,32.56,0,0,0-3.82-5.81s.19.83-2.8,2.76-3.46.32-3.46.32"/><path class="cls-15" d="M366.64,457.56s-10.53,51.53-10.87,72.59l-.35,21.06s49.74,26.18,76.84,27.67L436,559.23A113.18,113.18,0,0,1,450.7,547.1c8.37-5.76,30.82-20.2,51.69-20.56s37.34,11.07,36.39,23.43c0,0,12.32-25.66,4.72-59.28C537.13,462.51,525.28,457,525.28,457l-101,18.11Z"/><path class="cls-14" d="M592.71,438.11c-.52-2.89-1.87-6.86-2.1-3.85s1.57,5.31-5.17,5.3c-2.4,0-3.79-10.77-6.63-15.48s-9.53-2.32-16.49,1.68S546,433,544.44,432.6s-2.42-4.59-8.06-8.36-39.71-37-39.71-37-3.64,26.75-2.46,28c.44.47,2.26,2.6,4.37,5.08,11,6.83,30,18.73,35.92,22.53C543,448.25,546,454.2,546,454.2l0,0a30.24,30.24,0,0,0,11.58,10.74c2.73,1.57,7,6.14,8.78,6.73a51.66,51.66,0,0,0,12.56.75,9.33,9.33,0,0,0,2.69-1h0c3.42-2.33,4.3-7.69,4.25-9.24s0-3.25,1.27-4.43a8.2,8.2,0,0,0,2.24-5c.35-2.26,2.25-4.47.92-6.23S593.23,441,592.71,438.11Z"/><path class="cls-16" d="M504.9,494.81c-9.59,1.85-33.3,14.58-37.11,14.71s-14.23,0-20.11-8.73c-2.85-4.22-5.84-16-7.57-28.56l-15.79,2.83-57.69-17.52s-10.53,51.53-10.87,72.59l-.35,21.06s49.74,26.18,76.84,27.67L436,559.23A113.15,113.15,0,0,1,450.7,547.1c6-4.13,19.27-12.74,34-17.41,6-9.57,11.4-17.09,14.63-19.2C508.78,504.34,514.5,493,504.9,494.81Z"/><path class="cls-4" d="M409.31,206.29s1.39,27.59,5.35,37.63,18,22.27,37.29,21.26,31.82-6.51,33.46-11.65,4.57-21.67,5.1-35.26l9.83,3.9s-2.57,42.56,3.71,56.51,12.46,25,13.32,39.85-11.08,26.88-14.71,37.89-7.54,48.18-1.19,63.21S525.28,457,525.28,457s-15.25,2.33-22.35,5.83-43.45,24-67.44,23.32-55.92-11.2-68.85-28.55c0,0,8.18-26.78,11.87-36s5-44.83,1.28-59.22S361.54,316.13,359.88,310a10.07,10.07,0,0,1,2.57-9.89s8.13,15,17,9.6,18.37-26,19-40.2.45-51.58-1.29-60.24Z"/><path class="cls-16" d="M508.09,345.87c-11.25,13.11-23.62,7.62-31.49,7.77S452,362.19,443.23,362s-20.73-.58-29.81-6.22-19.11-21.77-17-35c2-12.33-2.57-19.15-4.49-27-3.5,7.23-7.91,13.35-12.19,15.94-7.13,4.31-13.76-4.44-16.11-8.09l-3,10.94c3.38,9.36,16,36.64,19.4,49.79,3.75,14.4,2.4,50-1.28,59.22s-11.87,36-11.87,36c12.93,17.36,44.87,27.91,68.85,28.55a50.14,50.14,0,0,0,7.06-.35c-3.57-15.82-5.63-38.49-2-47.48,5.16-12.88,13.17-31.44,28.34-49,7-8,19.34-12.88,30.69-16.67A96.59,96.59,0,0,1,503,356.41,60.27,60.27,0,0,1,508.09,345.87Z"/><path class="cls-17" d="M419.17,40.93s.69-7.07,6.82-14.4c8.25-9.87,25.81-15.55,43.85-15.77s40.76,3.31,52.37,12,28.86,25.23,32.21,32.08c4.74,9.68,6.63,22.09,6.15,27-.88,9-4.44,14.28-4.44,14.28s3.95-20.42-14.84-28.92c0,0,9.85,14,11.45,22.72s-1.47,16.94.19,20.61,17.58,8.18,21.27,20.33,1.26,20.2-4,29.51-9.4,22-4,30.19,18.55,16.18,29.47,11c0,0,.07,5.81-10.35,8.32a16.7,16.7,0,0,0,13.5-4.4c6-5.74,3.92-8.1,3.73-9.81a30.25,30.25,0,0,1,4.18,19.59c-1.35,11.75-15.71,26.59-24.25,28.53s-30.42-.37-37.54-16.26-11.5-23.16-23.27-22.92-54.59-15.43-56.07-64Z"/><path class="cls-11" d="M390.65,108.35s-5.24-8.88-9.23-8.19-5.57,9.55-1.31,22.11,9.31,15.1,12.46,13S390.65,108.35,390.65,108.35Z"/><path class="cls-18" d="M570.86,211.62c-12.77-9.39-29.45-35.2-14.66-47.13,13-10.47,1.38-47-13.79-48.42-32-3-.83-20.6-14.15-46.26s-50.2-39.76-67.92-39.64-35.43,12.92-35.43,12.92l3,16.66,37.74,80.8A76.65,76.65,0,0,0,467,152.33l10.54-9.39a75.94,75.94,0,0,0,4.71,31.81,21.64,21.64,0,0,0,2.35,4.24c4.27,5.76,10.1,17.74,38.71,20,22.24,1.74,20.24,15.68,22.13,24.09a29.46,29.46,0,0,0,8,14.45c7.14,5.09,16.44,6.87,23.29,6.83a39,39,0,0,0,7-6.56C587.86,232.85,583.63,221,570.86,211.62Z"/><path class="cls-14" d="M390.65,108.35s-5.24-8.88-9.23-8.19-5.57,9.55-1.31,22.11,9.31,15.1,12.46,13S390.65,108.35,390.65,108.35Z"/><path class="cls-13" d="M483.09,133.24c2.52-12.7,1.09-40.63-.3-52.53,0,0-1.29-13.67-12.46-21.39-7.8-5.38-20.77-7.06-34.15-8-13.29,1.86-26.12,4.4-33.53,10.3C392,70,387.11,84.72,387.11,84.72c-.59,12-2.47,35.9,4.22,52.8s19.22,28.37,29,33.26c5.32,2.66,11.82,5.23,20,5.23,8.2-.55,14.51-3.55,19.64-6.56C469.43,163.92,479.53,151.21,483.09,133.24Z"/><path class="cls-15" d="M416.86,50s4.31-9,10.32-11.7a54.43,54.43,0,0,1,27.73-4c5.93.75,17.73,3.17,23.27,11.18s9.42,16.23,9.21,18.66-28.64-7.32-28.64-7.32Z"/><path class="cls-17" d="M393.57,96.75c5-5.05,24.81-6,43.49-19.32,15.68-11.16,31.43.37,35.47-.44,0,0,2.94,3.56,5.9,11.06,1.67,4.22,6.14,18.83,11.18,17.06,2.57-.9-.39,16.53-.39,16.53l-3,10.48s11.55-14.58,13.65-39.23c2.49-29.22-2.07-36.53-25.07-48.25-20.27-10.33-30-.89-38.85-1.61s-21.9-8.62-36.67-4.74S373.74,61,373.81,73.2s7,24.46,12.81,32.74C386.62,105.95,388.23,102.12,393.57,96.75Z"/><path class="cls-13" d="M484,105.19s1.17-7.34,5.22-7.35,7.1,6.91,5.09,20-7.68,16.51-11.15,15S484,105.19,484,105.19Z"/><path class="cls-18" d="M378.17,70.17c0-12.62,5.1-20,5.1-20a1.28,1.28,0,0,0-.09-.53c-5.84,7.31-9.41,16.52-9.37,23.53.07,12.19,6.27,24.94,12.81,32.74,0,0,1.61-3.82,6.95-9.2a7.43,7.43,0,0,1,1.11-.9C385,96.08,378.19,82.8,378.17,70.17Z"/><ellipse class="cls-17" cx="458.48" cy="111.65" rx="3.47" ry="6.39" transform="translate(-3.48 15.41) rotate(-1.92)"/><ellipse class="cls-17" cx="410.15" cy="113.27" rx="3.47" ry="6.39" transform="translate(-3.56 13.8) rotate(-1.92)"/><path class="cls-19" d="M482.92,100.54a2.21,2.21,0,0,1,.84-.55,8.46,8.46,0,0,1,2.28-.17l-1.94,6.12-1,1.4Z"/><path class="cls-14" d="M432.91,119.63c.25.94,3.14,17.77,2.75,18.78s-3.95.62-6.47-.23-.41-10,.55-15.28S432.63,118.58,432.91,119.63Z"/><path class="cls-19" d="M386.41,102.22a2.21,2.21,0,0,0-.84-.55,8.46,8.46,0,0,0-2.28-.17l1.94,6.12,1,1.4Z"/><g class="cls-20"><path id="_Path_" data-name="&lt;Path&gt;" class="cls-21" d="M472.47,99.7a112,112,0,0,0-18.83.58c-3.43.41-8.07,1.13-11.23,2.68a3.69,3.69,0,0,0-2,2.17,6.39,6.39,0,0,0-.27,2.06,19.88,19.88,0,0,0,.44,4,24.19,24.19,0,0,0,3.42,8.67,7.17,7.17,0,0,0,5.08,3c1.36.24,2.72.47,4.09.62a49.63,49.63,0,0,0,17.81-.76,20.42,20.42,0,0,0,2.08-.6,6.53,6.53,0,0,0,3.23-2.27,21.22,21.22,0,0,0,2.54-6.82,36.37,36.37,0,0,0,.85-9.23,3.43,3.43,0,0,0-1.36-2.74C477.12,100.22,473.86,99.77,472.47,99.7Z"/><path id="_Path_2" data-name="&lt;Path&gt;" class="cls-22" d="M459.07,99.78l-8.55,23.33c.89.15,1.78.28,2.68.38a60.08,60.08,0,0,0,11,.32L473,99.74l-.53,0A116.79,116.79,0,0,0,459.07,99.78Z"/></g><path class="cls-23" d="M458.1,98c-1.23.08-2.45.17-3.67.3-3.59.36-9.39,1.08-12.79,2.24a50.53,50.53,0,0,1-7.18,1.85s-.6.07-.8.08c-1.91.21-6.86-1.08-8.31-1.52-3.29-1-8.84-1.42-12.26-1.61-1.17-.06-2.33-.1-3.5-.12-2.57,0-24.73-.23-24.55,4.12.07,1.62.2,3.3.33,4.92a2.74,2.74,0,0,0,.4,1.29,16.17,16.17,0,0,0,1.17,1.68,6.17,6.17,0,0,1,1.15,2c.42,1.16.83,2.33,1.25,3.49a39.71,39.71,0,0,0,2,4.71,6.43,6.43,0,0,0,3.05,3,12,12,0,0,0,2.72.89c6.83,1.3,12,1.08,18.85.12,3.42-.48,7.19-1,9.41-4.55a27.48,27.48,0,0,0,3-7.06c.36-1.22.67-2.47,1-3.7a2.83,2.83,0,0,1,1.83-2.14,7.57,7.57,0,0,1,2.6-.38,7.28,7.28,0,0,1,2.07.27,2.89,2.89,0,0,1,2,2c.42,1.21.81,2.44,1.25,3.64a26.84,26.84,0,0,0,3.52,6.89c2.52,3.38,6.51,3.75,10.13,4,7.21.6,12.68.55,19.79-1.1a13.06,13.06,0,0,0,2.81-1,6.59,6.59,0,0,0,3-3.19,38.53,38.53,0,0,0,1.83-4.8c.38-1.18.75-2.37,1.13-3.55a6.09,6.09,0,0,1,1.11-2,16.06,16.06,0,0,0,1.14-1.73,2.64,2.64,0,0,0,.36-1.3c0-1.62.1-3.31.09-4.93C484.07,96.48,460.8,97.82,458.1,98Zm-31.26,13.26a25,25,0,0,1-2.81,8.83,6.8,6.8,0,0,1-4.68,3.3c-1.28.3-2.56.6-3.85.82a44.9,44.9,0,0,1-16.95.12,18.7,18.7,0,0,1-2-.5,6.2,6.2,0,0,1-3.18-2.1,21.85,21.85,0,0,1-2.75-6.68,38.15,38.15,0,0,1-1.27-9.18,3.51,3.51,0,0,1,1.16-2.81c1.12-.9,4.2-1.51,5.52-1.65a101.23,101.23,0,0,1,17.9-.35c3.27.24,7.72.73,10.8,2.12a3.61,3.61,0,0,1,2,2.07,6.7,6.7,0,0,1,.36,2A20.89,20.89,0,0,1,426.84,111.25Zm52,1.55a21.21,21.21,0,0,1-2.54,6.82,6.53,6.53,0,0,1-3.23,2.27,20.37,20.37,0,0,1-2.08.6,49.62,49.62,0,0,1-17.81.76c-1.37-.15-2.73-.38-4.09-.62a7.17,7.17,0,0,1-5.08-3,24.19,24.19,0,0,1-3.42-8.67,19.89,19.89,0,0,1-.44-4,6.39,6.39,0,0,1,.27-2.06,3.69,3.69,0,0,1,2-2.17c3.16-1.54,7.8-2.26,11.23-2.68a112,112,0,0,1,18.83-.58c1.39.07,4.66.52,5.88,1.36a3.43,3.43,0,0,1,1.36,2.74A36.36,36.36,0,0,1,478.85,112.8Z"/><g class="cls-20"><path id="_Path_3" data-name="&lt;Path&gt;" class="cls-21" d="M426.85,111.49a20.89,20.89,0,0,0,.23-4,6.7,6.7,0,0,0-.36-2,3.61,3.61,0,0,0-2-2.07c-3.08-1.39-7.52-1.87-10.8-2.12a101.22,101.22,0,0,0-17.9.35c-1.32.14-4.4.75-5.52,1.65a3.51,3.51,0,0,0-1.16,2.81,38.16,38.16,0,0,0,1.27,9.18,21.85,21.85,0,0,0,2.75,6.68,6.19,6.19,0,0,0,3.18,2.1,18.65,18.65,0,0,0,2,.5,44.9,44.9,0,0,0,16.95-.12c1.29-.22,2.57-.51,3.85-.82a6.8,6.8,0,0,0,4.68-3.3A25,25,0,0,0,426.85,111.49Z"/><path id="_Path_4" data-name="&lt;Path&gt;" class="cls-22" d="M410.72,125.08l8.08-23.26c-1.71-.27-3.41-.42-4.87-.53-2.67-.2-5.38-.27-8.09-.24l-8.11,23.33.82.18A40,40,0,0,0,410.72,125.08Z"/></g><path class="cls-5" d="M406.1,370.81a56.8,56.8,0,0,1-19.46-3.54c-11.55-4.18-21.93-6.9-30.86-8.08l.13-1c9,1.19,19.45,3.93,31.07,8.13,21.79,7.89,39.32.87,50.18-6.42,17.58-11.79,27.57-30.45,28.05-42,.69-16.43,12-47.77,24.08-81,4.09-11.28,8.32-22.94,12.1-34,8.74-25.51,1.15-37.83-6.18-49.75-4.85-7.89-9.87-16-9.87-27.81h1c0,11.49,4.72,19.16,9.73,27.29,7.46,12.11,15.17,24.64,6.28,50.6-3.79,11.06-8,22.72-12.11,34-12,33.11-23.34,64.38-24,80.65-.49,11.82-10.65,30.85-28.5,42.82A56.78,56.78,0,0,1,406.1,370.81Z"/><path class="cls-13" d="M348.49,362.25l18.16-56.33a12.16,12.16,0,0,0,9.37,4.94c6.09.06,17.68-12.13,20.58-26.71s2.62-28.32,2.1-46-1.54-28.86-1.54-28.86a76.49,76.49,0,0,1-8.68.29c-5.24-.09-15.44-3.62-22.17-1.85s-18.87,3.93-24.85,22.16-19.81,78.43-24.64,105c-4.45,24.42-8.17,38.07-6.35,52.64C314.22,380.41,323.88,370.41,348.49,362.25Z"/><path class="cls-13" d="M326.36,410.64c5.7-.83,41.17-15.7,67.43-29.63s43.05-25.95,50-26.82-6.51-22.9-9.55-20.41-19,12.46-31,17-54.88,11.73-54.88,11.73l.08-.26c-24.61,8.16-34.27,18.16-38,25.28.16,1.29.36,2.58.61,3.89C314.17,407.54,320.66,411.46,326.36,410.64Z"/><path class="cls-14" d="M392.36,295.73s-2.25-33.13-9.28-33.83c-6.18-.61-10,4.88-11.95,6.21s-21.8,46.17-27.28,62.69-18.07,41.27-18.07,41.27,14.14-6.82,23.21-9.59l17.67-56.56a11.81,11.81,0,0,0,9.26,5c4.36,0,11.62-6.23,16.44-15.16"/><path class="cls-12" d="M443.82,354.19a2.48,2.48,0,0,0,.66-.18,31.25,31.25,0,0,1-5.87-5s-6.89,4.08-24.4,12.44-77.17,29.9-87.71,32.76-15.43-2.79-15.43-2.79c3.09,16.13,9.58,20,15.28,19.22s41.17-15.7,67.43-29.63S436.85,355.06,443.82,354.19Z"/><path class="cls-12" d="M388.52,209.57c-5.24-.09-15.44-3.62-22.17-1.85s-18.87,3.93-24.85,22.16c11.62-16.22,21.62-17.33,31-16.81,5.69.31,16.32,1.36,25.21,2.52-.27-4.06-.48-6.32-.48-6.32A76.46,76.46,0,0,1,388.52,209.57Z"/><path class="cls-12" d="M490.62,129.09c-5.94,3.07-6-13.5-6-13.5-.39,10-1.41,17.23-1.41,17.23C485.28,133.76,488.2,132.86,490.62,129.09Z"/><path class="cls-24" d="M551.77,438.33s12.44,3.27,23-5l3.25,2.51v2.51s-5.62-.61-7.17,2.51a7.35,7.35,0,0,0-.52,5.69,3.44,3.44,0,0,0-4.75,1c-2.18,2.81.25,6,.25,6s-5,.09-5,4-.05-6.37-4.44-12.17S551.77,438.33,551.77,438.33Z"/><path class="cls-5" d="M489,116.53a3.72,3.72,0,0,0-3.71-3.71h-.32c-.33.07-.6,1.74-.6,3.71s.27,3.64.6,3.71h.14v5.13h1.58V120A3.72,3.72,0,0,0,489,116.53Z"/><path class="cls-5" d="M328.4,360a9.53,9.53,0,0,1-3.62-.63c-3.62-1.45-5.88-3.25-6.73-5.35a4.14,4.14,0,0,1-.12-3.09l.91.41a3.17,3.17,0,0,0,.14,2.34c.52,1.26,2,3.11,6.16,4.77,2.29.91,4.74.56,8.44,0a73.26,73.26,0,0,1,22.32-.27l-.13,1a72.38,72.38,0,0,0-22,.27A38.78,38.78,0,0,1,328.4,360Z"/><path class="cls-13" d="M442.39,301.37s4-4.55,4.77-5.13,8.47-4,13.53-4.65,7.89-4.9,9.21-5.05a3.37,3.37,0,0,1,3.34,4.08c-.57,2.78-3.76,6.31-3.76,6.31l-22.24,4.94S442,304.58,442.39,301.37Z"/><path class="cls-14" d="M469.74,296.64c.76-.89,3-3.71,3.51-6a3.29,3.29,0,0,0-1.62-3.63,10.06,10.06,0,0,0-2.17,1.05c-1.88,1.21-4.28,4.19-8.68,5.07s-12.33,5.16-12.33,5.16c-2.32,1.16-.26,2.21,2.45,2.78l17.91-4Z"/><path class="cls-13" d="M433.38,334.46s2-3.25,2.3-9.69c.19-3.89,1.52-17.12,2.8-19.26s4.42-5.09,7.34-5.94,17.43-5.68,19.82-5.9,6.88-.38,8.31,2.12,2.49,2.76,1.81,4.88-2,2.76-.87,5.27,3.16,5,2.2,7.71-1.09,3.33-.29,4.65,1.36,4.9,1,7.45-1.85,2.91-.89,4.82a13.21,13.21,0,0,1,1.43,6.09c-.13,1.65.39,3.62-3.32,4.75s-3.52,2.06-10.5,3.8c-3.34.83-7.86,5.8-14.41,8-1.41.47-3.8.12-7.29,1.53S433.38,334.46,433.38,334.46Z"/><path class="cls-14" d="M477.7,325.75a15.52,15.52,0,0,0-.93-7.45c-.73-1.32-.61-1.92.27-4.65s-1-5.2-2-7.71.18-3.15.81-5.27-.35-2.38-1.68-4.88l0-.05c-4-2-18.52,2.65-23.88,5.36-1.42.72-3.45,1.29-5.08,3.18a5,5,0,0,0-.48,5.8,5.46,5.46,0,0,1,2.51,3.29c.21,1-1.71,2.63-.67,5.79.76,2.32,3,2.55,3.36,3.89s-1.3,3.84.18,6.39,3.28,2.76,3.65,4.11-2,4.26-1.39,6.08c1.15,3.49,4.81,4.21,6.68,4.65,1.37.32,12.64-2.52,19.17-6.21,0-.48,0-1,.06-1.41a14.09,14.09,0,0,0-1.33-6.09C476,328.66,477.36,328.31,477.7,325.75Z"/><path class="cls-13" d="M474.54,304.74a3.28,3.28,0,0,1,.25-1.9L450.69,309S467.73,304.64,474.54,304.74Z"/><path class="cls-13" d="M476.22,316.22c-6.37,1-18.63,3-18.63,3,.93-.16,12.74-1.41,16.35-1.41a11.5,11.5,0,0,1,2.61.29A2.83,2.83,0,0,1,476.22,316.22Z"/><path class="cls-13" d="M476.75,330.57a2.7,2.7,0,0,1-.28-1.1c-4.43.91-16.34,3.27-16.34,3.27C474,330.07,476.75,330.57,476.75,330.57Z"/><path class="cls-5" d="M477.34,273.64l-1-.3c3.15-10-26.06-34.55-49.53-54.31-16.14-13.58-30.07-25.31-33.69-31.8-7.12-12.75-.84-32.69,2.19-40.66l.94.36c-3,7.85-9.16,27.43-2.25,39.82,3.53,6.33,18.07,18.57,33.46,31.52C452.43,239.25,480.69,263,477.34,273.64Z"/><path class="cls-15" d="M365.55,311.38a3.08,3.08,0,0,0-1.17-.43l-18.07-2.85a2.54,2.54,0,0,1-1.86-3l.58-2.83-2.59-.42-1.13,5.5-2.62-.41a3.39,3.39,0,0,0-3.81,2.51l-5.26,23.28a2.8,2.8,0,0,0,2.4,3.45l3.61.44-.93,5.58,2.6.3.48-2.86a2.84,2.84,0,0,1,3-2.39l16.44,2Z"/><path class="cls-16" d="M341.5,337.3l15.69,1.91,8.36-27.83a3.08,3.08,0,0,0-1.17-.43L352.29,309c-3.57,8.56-6.72,16.56-8.44,21.76C343.16,332.87,342.37,335.05,341.5,337.3Z"/><path class="cls-15" d="M331,355.31l-20-7.08c-2-.66-3.23-3.31-2.67-5.91l11.61-56.19c.56-2.8,2.69-5,4.73-4.88l20.23,1.69c2,.22,3.24,3,2.67,6l-11.84,62.46C335.16,354.35,333,356.07,331,355.31Z"/><path class="cls-19" d="M329.24,351,313,345.31c-1.24-.41-2-2.12-1.63-3.81L322,288.13c.35-1.81,1.66-3.21,2.91-3.11l16.37,1.64c1.25.15,2,1.89,1.63,3.85l-10.73,58C331.78,350.37,330.48,351.49,329.24,351Z"/><path class="cls-19" d="M329.81,352.13a2.62,2.62,0,0,1-.91-.16l-16.21-5.71c-1.72-.57-2.73-2.74-2.28-4.95L321,287.94c.45-2.33,2.17-4,4-3.92l16.39,1.64a2.6,2.6,0,0,1,1.81,1.1,5.18,5.18,0,0,1,.7,3.92l-10.73,58a4.34,4.34,0,0,1-2,3.06A2.71,2.71,0,0,1,329.81,352.13ZM324.72,286c-.62,0-1.52,1-1.78,2.31L312.37,341.7a2.33,2.33,0,0,0,1,2.66l16.26,5.73a.63.63,0,0,0,.57-.06,2.41,2.41,0,0,0,1-1.68l10.73-58a3.29,3.29,0,0,0-.34-2.38.65.65,0,0,0-.42-.3L324.76,286Z"/><path class="cls-17" d="M341.23,286.65l-2.08-.24-.1.55c-.3,1.66-1.43,2.9-2.5,2.77l-8.3-.94c-1.07-.11-1.71-1.49-1.41-3.07l.1-.52-2.08-.17c-1.25-.1-2.56,1.31-2.91,3.11L311.39,341.5c-.34,1.69.39,3.4,1.63,3.81L329.24,351c1.24.46,2.53-.66,2.88-2.5l10.73-58C343.21,288.54,342.48,286.81,341.23,286.65Z"/><g class="cls-25"><polygon class="cls-26" points="315.57 349.24 313.74 348.6 342.85 286.85 344.71 287.09 315.57 349.24"/><polygon class="cls-26" points="312.89 348.31 297.38 343.25 326.37 285.14 342 286.75 312.89 348.31"/></g></g></g></g></svg>