<svg xmlns="http://www.w3.org/2000/svg" xmlns:xlink="http://www.w3.org/1999/xlink" viewBox="0 0 728 550.34"><defs><style>.cls-1{fill:none;}.cls-2{isolation:isolate;}.cls-3{fill:#eae9f5;}.cls-4{clip-path:url(#clip-path);}.cls-10,.cls-5{fill:#e1e0ec;}.cls-6{fill:#f5f5f7;}.cls-7{fill:#fff;}.cls-8{fill:#e0dfeb;}.cls-9{fill:#d0d0de;}.cls-10{opacity:0.3;}.cls-10,.cls-13,.cls-15,.cls-18{mix-blend-mode:multiply;}.cls-11{fill:#bbb4ff;}.cls-12{fill:#e0ddff;}.cls-13,.cls-16{fill:#eae9ee;}.cls-14{clip-path:url(#clip-path-2);}.cls-15{opacity:0.61;}.cls-17{fill:#040021;}.cls-19{fill:#5e4c3b;}.cls-20{fill:#65f;}.cls-21{clip-path:url(#clip-path-3);}.cls-22{fill:#89745d;}</style><clipPath id="clip-path"><path class="cls-1" d="M166.26,94c53-31.87,146.33-83.14,236-80.35,86,2.67,151.09,33.35,215.45,97.94C654,147.92,694.3,205.24,710,254c7.56,23.43,12.33,58.3,5.49,81.94-8.44,29.18-36.47,48.45-64.81,59.56s-58.95,16.62-85.74,31c-37.37,20.12-63.95,55.67-99.16,79.34-42.16,28.34-94.3,38-145.09,40.07-57.06,2.31-115.31-4.41-167.64-27.22S54.7,456,31.63,403.88c-25.77-58.2-20.7-127.31,5.92-185.13S117.8,123.09,166.26,94Z"/></clipPath><clipPath id="clip-path-2"><path class="cls-1" d="M166.26,94c53-31.87,146.33-83.14,236-80.35,86,2.67,151.09,33.35,215.45,97.94C654,147.92,694.3,205.24,710,254c7.56,23.43,12.33,58.3,5.49,81.94-8.44,29.18-63.12,169.32-91.46,180.43S591.77,412.17,565,426.59c-37.37,20.12-63.95,55.67-99.16,79.34-42.16,28.34-94.3,38-145.09,40.07-57.06,2.31-115.31-4.41-167.64-27.22S54.7,456,31.63,403.88c-25.77-58.2-20.7-127.31,5.92-185.13S117.8,123.09,166.26,94Z"/></clipPath><clipPath id="clip-path-3"><path class="cls-1" d="M166.26,94c53-31.87,151.84-74.38,241.55-71.6C493.86,25,553.4,47,617.76,111.56,654,147.92,694.3,205.24,710,254c7.56,23.43,12.33,58.3,5.49,81.94-8.44,29.18-36.47,48.45-64.81,59.56s-58.95,16.62-85.74,31c-37.37,20.12-63.95,55.67-99.16,79.34-42.16,28.34-94.3,38-145.09,40.07-57.06,2.31-115.31-4.41-167.64-27.22S54.7,456,31.63,403.88c-25.77-58.2-20.7-127.31,5.92-185.13S117.8,123.09,166.26,94Z"/></clipPath></defs><title>How-It-Works-v4</title><g class="cls-2"><g id="BG"><path class="cls-3" d="M166.26,94c53-31.87,146.33-83.14,236-80.35,86,2.67,151.09,33.35,215.45,97.94C654,147.92,694.3,205.24,710,254c7.56,23.43,12.33,58.3,5.49,81.94-8.44,29.18-36.47,48.45-64.81,59.56s-58.95,16.62-85.74,31c-37.37,20.12-63.95,55.67-99.16,79.34-42.16,28.34-94.3,38-145.09,40.07-57.06,2.31-115.31-4.41-167.64-27.22S54.7,456,31.63,403.88c-25.77-58.2-20.7-127.31,5.92-185.13S117.8,123.09,166.26,94Z"/><g class="cls-4"><g id="_Group_" data-name="&lt;Group&gt;"><g id="_Group_2" data-name="&lt;Group&gt;"><path id="_Path_" data-name="&lt;Path&gt;" class="cls-5" d="M-11.28,281.93q89.07.58,178.15.62,44.06,0,88.12-.1,22.27-.06,44.54-.15c13.1-.05,26.26-.32,39.36.09,11.64.37,23.55,1.34,34.25,4.24a61.27,61.27,0,0,1,14.39,5.68c4.91,2.83,6.92,6.33,5,10.33-3.16,6.64-13.53,11.54-23.52,14.42s-20.88,4.27-31.72,5.21c-13.39,1.16-26.94,1.77-40.43,2.36q-21.95,1-43.95,1.39c-29.19.6-58.41.61-87.62.34-58.65-.54-117.29-1.84-175.88-3.41l-21.89-.61c-1.54,0-1.54,1.39,0,1.43q90.31,2.59,180.71,3.84c59.84.75,119.92.63,179.49-3.2,21-1.35,44.93-3.72,59.63-13.68,7.48-5.07,12-12.35,3.89-18.11-7.14-5.1-18.42-8.11-29-9.71-11.35-1.73-23.18-2.07-34.85-2.12-14.57-.06-29.16.11-43.73.16q-45.49.17-91,.19-91,0-182-.48l-22-.14c-1.54,0-1.54,1.42,0,1.43Z"/></g><g id="_Group_3" data-name="&lt;Group&gt;"><path id="_Path_2" data-name="&lt;Path&gt;" class="cls-5" d="M-10.06,291.42q74.92-2.87,149.95-4.5t150.1-2c10.11-.05,23-.68,30.29,4.4,3.07,2.14,4.87,5.2,2.9,7.91s-6.61,4.08-10.94,5a313.65,313.65,0,0,1-33.12,4.9c-11.79,1.25-23.71,2.07-35.65,2.63-24.36,1.13-48.86,1.29-73.29,1.4-24.88.11-49.77,0-74.65-.25-50.09-.48-100.18-1.4-150.28-1.71l-18.19-.08c-1.54,0-1.55,1.43,0,1.43,51.7.15,103.38,1.09,155.06,1.65,25.52.28,51,.47,76.57.43,25.23,0,50.52-.15,75.71-1.06,24.19-.87,48.45-2.66,71.79-6.69,7.76-1.34,18.3-3.15,20-8.67,1.62-5.24-5.56-9.82-13.27-11.47a76.57,76.57,0,0,0-15.45-1.27c-6.32,0-12.64,0-19,.09q-19.13.12-38.25.33-38.72.41-77.44,1.15Q85.89,286.5,9,289.28l-19.09.71c-1.53.06-1.54,1.49,0,1.43Z"/></g><g id="_Group_4" data-name="&lt;Group&gt;"><path id="_Path_3" data-name="&lt;Path&gt;" class="cls-5" d="M-2.13,297.57c36.91.93,73.81-.46,110.58-2.29s73.31-4.06,110.1-4.81q13.83-.28,27.68-.26l6.57,0a8.11,8.11,0,0,1,3.47.43c1,.43,1.07.48.53,1.12a5,5,0,0,1-1.26,1,28.89,28.89,0,0,1-9.78,3.12c-8,1.35-16.73,1.5-25,2q-13.94.83-27.9,1.54Q137,302.25,81,303.05q-55.79.8-111.59-.41-6.88-.15-13.76-.33c-1.54,0-1.54,1.39,0,1.43q58.12,1.51,116.33.86t116.19-3.5q14.44-.71,28.85-1.55c8.58-.5,17.36-.78,25.83-1.77a51,51,0,0,0,9.87-2c2.6-.85,5.81-2.17,6.67-4s-1.26-2.84-4-3c-4.57-.2-9.24-.09-13.82-.08-38.37.05-76.62,2.15-114.82,4.14s-76.44,3.87-114.78,3.47q-7-.07-14.07-.25c-1.54,0-1.54,1.39,0,1.43Z"/></g><g id="_Group_5" data-name="&lt;Group&gt;"><path id="_Path_4" data-name="&lt;Path&gt;" class="cls-5" d="M3.57,268.27q76,2.45,152.06,3.61t152.17,1q37.7-.07,75.39-.46c10.23-.11,20.6-.49,30.76.4,8.2.72,16.94,2.29,22.5,6.18,6.48,4.53,5,11.1,11.17,15.78,5,3.79,12.72,5.82,20.32,7,9.81,1.55,20.13,1.9,30.2,2.43q18.63,1,37.32,1.5c50.34,1.45,100.77.76,151.12-.16l18.71-.35c1.54,0,1.55-1.46,0-1.43-50.36,1-100.76,1.9-151.14,1-24.69-.47-49.64-1.12-74.15-3-8.75-.68-18-1.83-25.37-4.93-4-1.71-7.08-4.05-8.7-6.86-1.71-3-2.13-6.13-4.47-9-7.26-8.8-26.52-10.05-41-10.13-24.57-.13-49.19.46-73.76.56q-76.09.3-152.18-.69T22.39,267.42l-18.82-.59c-1.54,0-1.54,1.38,0,1.43Z"/></g><g id="_Group_6" data-name="&lt;Group&gt;"><path id="_Path_5" data-name="&lt;Path&gt;" class="cls-5" d="M705.87,293.4Q630,295,554.1,294.09c-19.65-.24-44.95.78-58.66-9.39-6.09-4.51-10-9.61-17.93-13.2-7-3.18-15.4-5.09-23.93-6.23-20.56-2.76-42.44-2-63.36-2.29l-75.47-.9-151.66-1.81L11.43,258.46l-19.22-.23c-1.54,0-1.54,1.41,0,1.43l151.66,1.81,151.66,1.81,76.19.91,37.74.45c10.24.12,20.51.14,30.7.79,9.75.62,19.68,1.8,28.49,4.46,9.39,2.83,15.2,7.15,20.87,12.29a42.7,42.7,0,0,0,19.68,10.21c8.65,2.08,18.14,2.62,27.38,2.87,24.8.65,49.71.63,74.53.62q37.77,0,75.53-.66,9.62-.17,19.23-.37c1.54,0,1.55-1.46,0-1.43Z"/></g><g id="_Group_7" data-name="&lt;Group&gt;"><path id="_Path_6" data-name="&lt;Path&gt;" class="cls-5" d="M709.85,260.53c-29.5-.37-59-.73-88.53-.25-14.73.24-29.45.7-44.12,1.47-14,.74-28.31,1.47-42,3.39-8,1.13-26.39,3.88-24.42,10.81.88,3.09,5.76,5,10.57,5.67,6.79.89,14.34.45,21.24.5l89.59.53,101.09.6c1.54,0,1.54-1.42,0-1.43l-171.52-1-21.08-.12-10.06-.06a57.25,57.25,0,0,1-10.26-.63c-6.33-1.21-9.83-5.22-4.52-8.31,4.5-2.63,11.53-3.83,17.45-4.77,13-2.06,26.78-2.75,40.16-3.51,14-.79,28.13-1.29,42.22-1.57,31.38-.64,62.79-.25,94.17.14,1.54,0,1.54-1.41,0-1.43Z"/></g><g id="_Group_8" data-name="&lt;Group&gt;"><path id="_Path_7" data-name="&lt;Path&gt;" class="cls-5" d="M712.72,274.55H604.45c-1.28,0-4.06.25-5-.42-2.07-1.42,2.87-2.12,4-2.18,3.75-.23,7.55-.29,11.31-.43q21.48-.78,43-1.34,24.37-.64,48.75-1c1.54,0,1.55-1.45,0-1.43q-47.81.73-95.55,2.49c-3.91.15-14.57-.42-14.22,3.47.11,1.25,1.79,2,3.7,2.18,3.43.4,7.32.1,10.79.1H712.72c1.54,0,1.55-1.43,0-1.43Z"/></g><g id="_Group_9" data-name="&lt;Group&gt;"><path id="_Path_8" data-name="&lt;Path&gt;" class="cls-5" d="M571.69,271.43a72.06,72.06,0,0,0-17,1.44c-1.8.38-11,2-7.85,3.93,1.44.89,4.48.64,6.31.68q5,.12,10,.18,10.24.12,20.48,0c1.54,0,1.55-1.45,0-1.43q-15.24.17-30.48-.18a32.7,32.7,0,0,1-4.09-.13q-.89.36.38-.1l1.5-.47a59.28,59.28,0,0,1,6.8-1.57,69.68,69.68,0,0,1,13.9-.92c1.54,0,1.54-1.38,0-1.43Z"/></g><g id="_Group_10" data-name="&lt;Group&gt;"><path id="_Path_9" data-name="&lt;Path&gt;" class="cls-5" d="M-22.13,347.7l193.24.28,193.24.28c8.26,0,16.65.28,24.9-.05,5.48-.22,11.64-1,15.34-3.62,4.83-3.47,1.13-11.26-7.82-9.84l.92,1.31c17.9-5.7,38.06-7.68,58.11-8.45,20.71-.8,41.54-.82,62.29-1.08q66.33-.83,132.66-1.29,37.27-.29,74.53-.54c1.54,0,1.55-1.44,0-1.43q-67.83.48-135.65,1.06-33.54.32-67.07.72c-21.37.26-42.8.31-64.14,1s-42.86,2.67-61.94,8.74c-1.21.39-.38,1.51.92,1.31,5.49-.87,8,3.61,6.66,6.12-2,3.69-10.43,4.4-15.93,4.56-14.33.41-28.84,0-43.19,0l-88.78-.13-177.57-.26-100.72-.15c-1.54,0-1.55,1.43,0,1.43Z"/></g><g id="_Group_11" data-name="&lt;Group&gt;"><path id="_Path_10" data-name="&lt;Path&gt;" class="cls-5" d="M725.85,338.93q-69.25-2-138.61-1.43-34.66.31-69.29,1.29c-11.79.33-23.61.65-35.38,1.17-6.42.28-13.32,1-18.74,3.22-5.21,2.12-7.87,5.92-4.93,9.48,3.53,4.26,12.77,5.89,19.93,6.82l-.72-1.05c-8.11,7.06-24.07,7.82-37.17,8-17.73.24-35.48.05-53.19-.39-35.8-.9-71.49-2.93-107.09-5.29C209.85,356,139.12,350,67.8,349a1113.78,1113.78,0,0,0-117.47,4.06c-1.52.14-.87,1.52.64,1.38,71.86-6.6,144.83-4.31,216.84.09s143.82,10.88,216.24,12.85c19.81.54,39.73.87,59.56.45,13.33-.29,28.45-1.6,36.56-8.66.43-.37,0-1-.72-1.05-6.74-.88-16.81-2.47-19-7-2.32-4.75,5.54-7.54,12-8.67,8.18-1.44,17.1-1.31,25.54-1.59q16.15-.55,32.31-.95Q592.6,338.35,655,339q35.43.35,70.83,1.4c1.54,0,1.54-1.39,0-1.43Z"/></g><g id="_Group_12" data-name="&lt;Group&gt;"><path id="_Path_11" data-name="&lt;Path&gt;" class="cls-5" d="M5.24,335.38q72,4.4,144.36,5.26,72.68.85,145.3-1.91c21.68-.82,43.56-1.71,64.74-4.76a227.65,227.65,0,0,0,29.75-6.16c9.75-2.77,18.79-6.34,28.53-9.13,21.24-6.08,44.91-6.12,68-6.23l72.85-.35,145.7-.7,18.57-.09c1.54,0,1.55-1.44,0-1.43l-145.7.7-73.57.36c-22.31.11-45.42-.64-67.32,2.38-21.5,3-38.68,11.49-59.13,16-20.81,4.59-43,6.24-65,7.27-48,2.25-96.17,3-144.26,2.79S71.61,337.66,23.59,335q-9.18-.5-18.35-1.07c-1.53-.09-1.52,1.34,0,1.43Z"/></g><g id="_Group_13" data-name="&lt;Group&gt;"><path id="_Path_12" data-name="&lt;Path&gt;" class="cls-5" d="M-39.84,376.59q121.67.53,243.34,1.41c40.05.35,80.24.31,120.23,1.7,20.16.7,40.31,1.92,60.14,4.26,9.69,1.14,19.31,2.54,28.77,4.23,3.9.7,8.17,1.43,11.14,3.2,5.65,3.38-1.39,5.87-6.31,7.06-32.74,7.89-67.57,12.18-100.34,20-7.64,1.83-15.17,3.85-22.47,6.12-5.73,1.79-14.61,3.81-17.7,7.49-2.54,3,1.14,5.51,5.54,6.83,7.82,2.33,16.74,3.78,25.14,5.17,37.15,6.12,76.55,7.93,114.88,9.31,40.15,1.45,80.39,1.79,120.6,2.2q121.79,1.22,243.61.6l29.92-.18c1.54,0,1.55-1.44,0-1.43q-121.8.84-243.61-.15c-40.29-.33-80.61-.64-120.88-1.6s-80.82-2.45-120.41-6.92c-9.2-1-18.33-2.29-27.32-3.87q-6.53-1.15-12.94-2.53c-3.85-.84-10.27-1.69-12.37-4-4.13-4.63,15.11-9.17,20.06-10.65,8.29-2.47,16.84-4.63,25.51-6.57,16.52-3.7,33.46-6.67,50.33-9.74,8.34-1.52,16.66-3.06,24.91-4.73,7.61-1.54,16.08-2.89,23.1-5.25,4.56-1.53,7.12-4.52,3.72-7.31-3.88-3.18-11.49-4.11-17.41-5.11a560.5,560.5,0,0,0-56.41-6.41c-39.62-2.65-79.73-2.48-119.54-2.87Q111.72,375.66-10,375.29l-29.88-.13c-1.54,0-1.55,1.42,0,1.43Z"/></g><g id="_Group_14" data-name="&lt;Group&gt;"><path id="_Path_13" data-name="&lt;Path&gt;" class="cls-5" d="M713.64,478.95c-50.34,5.64-101.52,7.59-152.61,8.89q-77.39,2-154.86,2.5c-50.55.42-101.29,1.16-151.8-.41-48.58-1.51-97.62-5.54-143.27-16-11-2.52-21.79-5.42-32.19-8.74-5.12-1.63-10.22-3.33-15.08-5.22-4.27-1.66-9-3.83-10.42-6.9-3-6.5,10.85-9.95,18.58-12l35.44-9.37,17.37-4.59c1-.26.62-1.15-.29-1.31-13.41-2.34-27.26-3.37-41.12-4.27l-46.17-3-92-5.9c-1.53-.1-1.52,1.33,0,1.43l90.45,5.8,44.84,2.88c14.59.94,29.2,1.93,43.33,4.4l-.29-1.31-36.83,9.74-18.07,4.78a65.38,65.38,0,0,0-11.41,3.88c-6.42,3.09-8.83,7.89-3.77,12.12,5.69,4.76,16.41,7.57,24.79,10.23,43.25,13.72,92,20.11,140.37,23.09,52.3,3.22,105.08,2.57,157.57,2.25q80.57-.49,161.1-2.16c52.67-1.17,105.51-2.59,157.63-7.51q9.68-.91,19.31-2c1.51-.17.87-1.55-.64-1.38Z"/></g><g id="_Group_15" data-name="&lt;Group&gt;"><path id="_Path_14" data-name="&lt;Path&gt;" class="cls-5" d="M-29.56,404.45,61,405.83l46.08.7c13.18.2,29.37-.3,38.84,6.24,20.6,14.24-29.53,20.61-23.2,34.66,2.84,6.3,16.38,8.39,25.54,9.82,13.2,2.06,26.87,2.73,40.46,3.08,60.13,1.55,120.4,2.2,180.58,2.92s120.48,1.1,180.72.78c60.47-.33,120.94-1.36,181.32-3.45q11.27-.39,22.54-.83c1.53-.06,1.54-1.49,0-1.43-60.35,2.35-120.81,3.62-181.28,4.12-60.24.51-120.48.27-180.71-.37-60.51-.64-121-1.67-181.49-2.76-14.23-.25-28.53-.35-42.68-1.37-7.29-.53-14.54-1.32-21.6-2.54-6.09-1-13.06-2.24-17.7-5-11.9-7,5.46-15.06,13.6-19.41,7.31-3.91,13.69-9.17,9.75-15.25-4-6.24-14.87-9.17-25.29-10-14-1.18-28.68-.77-42.82-1l-90.61-1.38L-29.56,403c-1.54,0-1.54,1.41,0,1.43Z"/></g><g id="_Group_16" data-name="&lt;Group&gt;"><path id="_Path_15" data-name="&lt;Path&gt;" class="cls-5" d="M-31.55,387.27c43.84,3.86,88.22,3.58,132.41,4.18q67.1.9,133.92,5.12,16.51,1,33,2.29c5.52.42,11.17.69,16.61,1.38,4,.51,12.16,2.44,9.71,5.78-1,1.31-3.51,2.1-5.46,2.81s-4.18,1.42-6.37,2a110,110,0,0,1-14.12,2.86A169.33,169.33,0,0,1,239.42,415c-21.88-.7-43-4.57-64.42-7.1-21.1-2.49-42.47-4.13-63.9-5.15-43.61-2.09-87.41-1.68-131.1-1l-16.21.27c-1.54,0-1.55,1.46,0,1.43,45.09-.75,90.27-1.49,135.32.21,22.48.85,44.9,2.31,67.08,4.69,21.81,2.34,43.21,6.23,65.28,7.68,19.25,1.26,39.86.34,57-5.53,3.2-1.1,7.59-2.45,8.32-4.85s-2.17-4.34-5.25-5.43c-4-1.43-8.86-1.68-13.41-2q-8.46-.67-16.94-1.29-68.51-5-137.58-6.52c-45.68-1-91.57-.25-137.08-3.2q-8.73-.56-17.42-1.33c-1.51-.13-2.16,1.25-.64,1.38Z"/></g><g id="_Group_17" data-name="&lt;Group&gt;"><path id="_Path_16" data-name="&lt;Path&gt;" class="cls-5" d="M245.15,438c.86-3.42-6.36-5.17-10.53-6.35a126.7,126.7,0,0,0-19.76-3.78c-12.4-1.43-27.42-2.49-39.09,1.07-4.33,1.32-8.91,4-7.52,7.2s8,4.47,12.74,5.32c13.89,2.49,28.58,2.75,43,2.56,4.08-.05,8.23,0,12.3-.26,2.61-.15,5.35-.61,6.71-2.07,3.48-3.73-3.79-6.56-8.51-7.81-1.4-.37-2.62.86-1.21,1.24,2.49.66,5.37,1.36,7,2.74,1.81,1.55,1.35,3.65-1.93,4.25a47.48,47.48,0,0,1-7.28.35c-2.94.06-5.89.11-8.83.14-11.59.12-23.3-.08-34.66-1.6-4.86-.65-11.05-1.34-14.9-3.36-4.95-2.6-.48-5.93,4-7.36,9.81-3.14,22.45-2.44,33.05-1.5a144,144,0,0,1,17.87,2.64c2.91.63,5.74,1.38,8.48,2.24,2.29.72,7.31,2,6.82,4-.23.9,2.08,1.29,2.31.38Z"/></g><g id="_Group_18" data-name="&lt;Group&gt;"><path id="_Path_17" data-name="&lt;Path&gt;" class="cls-5" d="M217.5,434.56c-7.95-1.18-17.09-2.13-25.29-1.53-2.54.19-4.13,1.41-2.73,2.85s5,2.19,7.58,2.72a52.12,52.12,0,0,0,21.2-.13c2.2-.5,4.51-1.19,3.79-2.84-.84-1.92-4.41-2.05-7.15-1.88-1.52.1-1.54,1.53,0,1.43,1.36-.09,3.63-.34,4.41.49s-.72,1.2-2.05,1.49a45,45,0,0,1-6.86.93A48.41,48.41,0,0,1,196.6,437a32.11,32.11,0,0,1-3.23-.91c-1.22-.43-3-1.51-.47-1.63s5.17,0,7.71,0a139.78,139.78,0,0,1,16.25,1.48c1.5.22,2.14-1.16.64-1.38Z"/></g><g id="_Group_19" data-name="&lt;Group&gt;"><path id="_Path_18" data-name="&lt;Path&gt;" class="cls-5" d="M-28.39,501c38.19.93,76.42.35,114.62.1s76.45-.15,114.46,2.25c21.45,1.35,42.76,3.47,63.68,6.6l-.29-1.31a157.78,157.78,0,0,1-41,7.89c-.85.05-1.57.58-1,1.08,6.25,5.89,20.84,5.83,31.11,6.43,14.12.83,28.29,1.32,42.46,1.87,28.26,1.08,56.79,2.37,84.11,7.12,12.19,2.12,28.9,4.92,33.55,12.95.5.87,2.82.49,2.31-.38-3.64-6.28-14-9.58-23.87-11.74a350.49,350.49,0,0,0-41.3-6.15c-28.09-2.69-56.59-3.11-84.9-4.45-7.86-.37-15.74-.78-23.56-1.4-6.52-.51-14.05-1.42-17.83-5l-1,1.08a162.3,162.3,0,0,0,42.22-8.09c.88-.3.72-1.16-.29-1.31-36.91-5.53-74.91-7.82-112.88-8.61-38.48-.8-77-.13-115.48.07-21.68.11-43.37.07-65-.46-1.54,0-1.54,1.39,0,1.43Z"/></g><g id="_Group_20" data-name="&lt;Group&gt;"><path id="_Path_19" data-name="&lt;Path&gt;" class="cls-5" d="M-17.55,512.18l88.19-.1,44.09-.05c12.45,0,25.2-.5,37.59.37A67.71,67.71,0,0,1,167.87,515a28.85,28.85,0,0,1,6,2.63c1.82,1.09,2.51,1.78.41,2.86-2.4,1.25-6.08,2-7.37,3.84-1.77,2.59,3,4.62,6.48,5.38,5.56,1.21,12.18,1.2,18,1.42,6.83.26,13.67.37,20.52.41,14,.08,28-.12,42,.12,15.37.26,31,1,45.91,3.43,7.26,1.19,13.15,3.39,15.38,7.9s1.2,9.35-2.1,13.5c-.66.83,1.41,1.55,2.07.72,4.81-6.06,5.94-15.42-3.42-20.26-4.26-2.2-9.88-3.09-15.25-3.84-6.87-1-13.85-1.6-20.86-2.06-28.44-1.83-57.1-.25-85.6-1.42-3.27-.13-6.55-.29-9.8-.52-3.45-.24-7.41-.63-10-2.17-4-2.37,2.4-3.91,5-5.13a5.32,5.32,0,0,0,2.73-2.11c.53-1.23-.66-2-2-2.82a37.56,37.56,0,0,0-12.39-4.52c-11-2.23-23.1-1.82-34.55-1.81l-45.05.05-101.61.12c-1.54,0-1.55,1.43,0,1.43Z"/></g><g id="_Group_21" data-name="&lt;Group&gt;"><path id="_Path_20" data-name="&lt;Path&gt;" class="cls-5" d="M-22.12,524.54l48.89.09c15.79,0,31.64-.16,47.41.38,9.16.31,18.28.95,27.24,2.16l-.53-1.2a117.82,117.82,0,0,1-13.18,5.81c-.78.29-.77.95,0,1.24,9.3,3.5,20.23,4.57,31,5,12.38.44,24.77.44,37.14,1q19.46.87,38.77,2.66,9.72.91,19.38,2,4.6.54,9.17,1.14c2.71.36,7.68,1,5.35,3.36-1.63,1.63-5,2.84-7.6,3.89s-5.17,2-7.9,2.82a109.64,109.64,0,0,1-18.53,3.91c-1.51.19-.87,1.57.64,1.38a103.7,103.7,0,0,0,31.75-9c3.21-1.55,7-4.36,2.66-6.46-1.85-.89-4.39-1.13-6.64-1.42q-5.5-.71-11-1.34c-27.27-3.12-54.88-4.77-82.63-5.19-13.79-.21-28.33-.46-40.36-5V533a122.19,122.19,0,0,0,13.67-6c.67-.35.32-1.08-.53-1.2-15.3-2.07-31-2.45-46.65-2.53-16.51-.08-33-.07-49.53-.1l-28-.05c-1.54,0-1.55,1.43,0,1.43Z"/></g><g id="_Group_22" data-name="&lt;Group&gt;"><path id="_Path_21" data-name="&lt;Path&gt;" class="cls-5" d="M-19.57,531.82c17.82,1.66,36.65,1.61,53.37,6.1,7,1.89,13.65,4.56,18.46,8.22,3.82,2.9,6.57,7.23,13.59,7.6,1.54.08,1.53-1.35,0-1.43-4-.21-6.47-2.46-8.51-4.3a41,41,0,0,0-6.3-4.85,65.38,65.38,0,0,0-17.69-6.91c-16.55-4.16-34.8-4.18-52.29-5.82-1.51-.14-2.16,1.24-.64,1.38Z"/></g><g id="_Group_23" data-name="&lt;Group&gt;"><path id="_Path_22" data-name="&lt;Path&gt;" class="cls-5" d="M723,496.73c-2.78,2.93-9,3.45-14.08,3.69-6.86.33-13.74.55-20.62.78q-21.4.71-42.83,1.07c-28.26.5-56.54.64-84.81.65-56.72,0-113.46-.46-170.17.52q-21.2.36-42.37,1c-5.32.17-11.89-.08-16.34,2-3.73,1.73-5.07,4.79-1.79,7s9.53,3.32,14.37,4a177.44,177.44,0,0,0,18.12,1.34c13.28.48,26.6.63,39.9.72,26.27.18,52.62.08,78.78,1.71,13.25.83,26.43,2.11,39.34,4.11,5.91.91,12.48,1.74,18,3.38,3.22,1,4.72,2.45,3.45,4.59a15.41,15.41,0,0,1-4.73,4.47,62.17,62.17,0,0,1-12.78,5.9c-2.24.82-4.5,1.61-6.75,2.42-1.85.67-4.14,1.33-5.05,2.58-2.14,2.94,4.46,5,7.87,6a130.71,130.71,0,0,0,17.58,3.85c12.9,2,26.2,3.34,39.42,4.4q20.46,1.64,41.12,2,10.23.19,20.47.08c1.54,0,1.55-1.45,0-1.43A672.13,672.13,0,0,1,557,559.59c-12.65-1.42-25.81-2.91-37.18-6.68-2.54-.84-7.47-2.68-3.72-4.47,2.12-1,4.75-1.77,7.09-2.6a101,101,0,0,0,12.52-5.14c3.6-1.87,7-4.24,8.55-7,1.69-2.91-.7-5.16-5.16-6.38A161.63,161.63,0,0,0,522,524.14q-9.1-1.43-18.38-2.41c-25.16-2.71-50.8-3.24-76.31-3.44-13-.1-26.1-.12-39.14-.28s-26.22-.1-39-1.38c-2.93-.29-5.84-.69-8.67-1.25s-6.22-1.25-8.37-2.59c-2.31-1.43-2-3.35.27-4.75,2.6-1.59,6.63-1.81,10.14-1.95,13.9-.54,27.84-.84,41.76-1.11,55.59-1.06,111.22-.66,166.83-.63,28,0,55.92-.07,83.87-.48q21-.31,41.89-.89,10.23-.29,20.46-.67c5.79-.21,11.8-.21,17.49-.93,4.16-.53,8.08-1.65,10.24-3.93.76-.8-1.31-1.52-2.07-.72Z"/></g><g id="_Group_24" data-name="&lt;Group&gt;"><path id="_Path_23" data-name="&lt;Path&gt;" class="cls-5" d="M685.88,517.46c-57.88-2.56-115.9-4.75-174-4.18a90.73,90.73,0,0,0-9.09.14c-1.8.21-2.77,1.18-2.5,2.24s2,1.85,3.76,2.19a76.37,76.37,0,0,0,9.35.93c13.1.81,26.29-.12,39.41.44a93.72,93.72,0,0,1,36.37,8.16c5.24,2.21,10.69,5,11.77,9,.55,2-.37,3.72-2.2,5.43-1.32,1.23-1.83,2.41-.74,3.8,2.25,2.87,7.61,4.23,12.53,4.75,6.56.69,13.46.46,20.08.35,15.95-.25,31.84-1.25,47.54-2.93,1.52-.16.87-1.54-.64-1.38-13.48,1.44-27.11,2.37-40.79,2.75-6.6.18-13.25.31-19.85.16-4.74-.11-10.16-.46-14-2.31a8.38,8.38,0,0,1-2.49-1.73c-1.15-1.24-.28-2.05.85-3.11a6.24,6.24,0,0,0,2.25-4.15c.19-3-2.18-5.83-5.52-8-3.87-2.54-9-4.51-13.86-6.28a93.72,93.72,0,0,0-15.45-4.26c-11.72-2.11-24.12-1.84-36.22-1.74-6.36.05-12.73.07-19.06-.32a65.89,65.89,0,0,1-8.71-.88c-1.24-.25-3.23-1-.93-1.67a13.68,13.68,0,0,1,1.91,0l5.72-.07c27.35-.27,54.71.07,82,.77,30.84.79,61.64,2,92.42,3.41,1.54.07,1.53-1.36,0-1.43Z"/></g><g id="_Group_25" data-name="&lt;Group&gt;"><path id="_Path_24" data-name="&lt;Path&gt;" class="cls-5" d="M475.81,555.75c1.46-9.81-7.57-18.94-21-24.31a78.13,78.13,0,0,0-10.39-3.28c-2.78-.68-6.92-2-10-1.25a5.16,5.16,0,0,0-4.26,4.77c-.07,2.39,1.7,4.57,3.56,6.62,5.13,5.67,8.16,11.58,8.12,18.07,0,.92,2.39.92,2.4,0a24,24,0,0,0-4-13.17,46.34,46.34,0,0,0-4.69-5.84c-1.85-2.05-3.74-4.44-2.81-6.84.52-1.33,1.76-2.52,4.27-2.33a37.14,37.14,0,0,1,5.27,1,77.27,77.27,0,0,1,9.63,2.85c6.16,2.28,11.56,5.33,15.38,9,4.56,4.4,6.78,9.52,6,14.67-.14.92,2.26.91,2.4,0Z"/></g><g id="_Group_26" data-name="&lt;Group&gt;"><path id="_Path_25" data-name="&lt;Path&gt;" class="cls-5" d="M-27.27,440.58c13-.57,26.07-.52,39.06.19,5.27.29,11.05.49,15.83,2,5.5,1.73,7.22,5.06,5.88,8.56-2.3,6-12.35,12-7.86,18.47,3.4,4.91,13.21,6.3,21.08,7.19q38.48,4.38,76.22,10.66,4.49.76,9,1.54c1.4.25,2.87.44,4.23.75.84.19,1.86.41,1.56,1.22-.16.43-1.3.78-1.9,1-2.54.81-6,.74-8.76.84-3.29.12-6.59.15-9.88.12-13.26-.11-26.41-1.2-39.59-1.92-29.71-1.61-59.57-1.63-89.38-1.65-1.54,0-1.55,1.43,0,1.43,28.07,0,56.17,0,84.17,1.38,13.84.67,27.62,1.86,41.51,2.13,6.54.13,13.74.33,20.19-.47,2.95-.36,7.9-2,5.63-4.24-1.1-1.06-3.51-1.31-5.35-1.64q-5.36-.95-10.75-1.85-9.87-1.66-19.8-3.18-19.87-3-40-5.54c-6.33-.78-12.7-1.44-19-2.25-4.75-.6-9.9-1.4-13.65-3.35-10.68-5.56,1.85-13.78,4.46-19.79,1.38-3.18,1-6.65-3.14-9.06-3.79-2.23-9.31-3-14.4-3.36a372.61,372.61,0,0,0-45.35-.59c-1.53.07-1.54,1.5,0,1.43Z"/></g><g id="_Group_27" data-name="&lt;Group&gt;"><path id="_Path_26" data-name="&lt;Path&gt;" class="cls-5" d="M-6.94,479.78c9.12,1.14,18.23,2.48,27.41,3.44,2.27.24,5.25,0,5.06-1.79s-3.61-3.41-5.43-4.59c-3.05-2-5.32-4-5.76-6.76-.4-2.53.52-5,1.51-7.48,1.46-3.57,5-9.65-.72-12.5-3.42-1.7-8.1-2.81-12.1-3.92q-6.58-1.84-13.44-3.28c-1.46-.31-2.08,1.07-.64,1.38a205.3,205.3,0,0,1,21.18,5.66,17.4,17.4,0,0,1,4.18,1.7A3.45,3.45,0,0,1,15.73,455a20.42,20.42,0,0,1-2,6.72c-1.53,3.72-3,7.79-.67,11.5a16,16,0,0,0,4.81,4.29c1,.68,2.12,1.35,3.12,2.05.47.33,1.48.86,1.65,1.3.44,1.12-1.22,1-2.46.86-8.85-1-17.67-2.22-26.5-3.33-1.51-.19-2.15,1.19-.64,1.38Z"/></g><g id="_Group_28" data-name="&lt;Group&gt;"><path id="_Path_27" data-name="&lt;Path&gt;" class="cls-5" d="M-8.16,422.71l24.37,2.56c7.63.8,15.61,1.29,23.08,2.5a17.71,17.71,0,0,1,4.06,1.05c.5.22,1.7.77,1.79,1.17.23,1-1.15,1.37-2.4,1.53-3.7.48-7.94.25-11.72.3-8.21.09-16.42.08-24.64,0-9.32-.07-18.64-.2-28-.33-1.54,0-1.54,1.41,0,1.43,18.95.27,37.9.54,56.85.25,3.29,0,7.58.25,10.52-.86,2.57-1,2.32-2.59.46-3.85-2.11-1.43-5.36-2-8.38-2.37-4.49-.54-9-1-13.54-1.43l-31.87-3.35c-1.51-.16-2.16,1.22-.64,1.38Z"/></g><g id="_Group_29" data-name="&lt;Group&gt;"><path id="_Path_28" data-name="&lt;Path&gt;" class="cls-5" d="M191.42,471.46q99.73,1.29,199.48,1.55,99.24.26,198.48-.49,56-.42,111.95-1.17c1.54,0,1.55-1.45,0-1.43q-99.73,1.33-199.48,1.64-99.24.31-198.48-.4-56-.4-111.95-1.12c-1.54,0-1.54,1.41,0,1.43Z"/></g><g id="_Group_30" data-name="&lt;Group&gt;"><path id="_Path_29" data-name="&lt;Path&gt;" class="cls-5" d="M189.53,471.17c-1.86-2.56-8.35-1.55-9.25.89-1.46,4,6.22,5.58,11.29,5.85,18.14.95,36.39,1.43,54.57,2,36.64,1.25,73.34,2.14,110,1.92q27.23-.17,54.43-1.25,7-.29,14-.65c4-.21,8.62-.83,12.6-.25,3.8.56,5.93,2.79,9.86,3.25,3.39.39,6.95-.17,10.29-.49C493.24,479,529.77,480.62,566,481c18.2.2,36.36,0,54.51-.91s36-2.27,54-3.74l13.38-1.11c1.52-.13.87-1.51-.64-1.38-34.18,2.86-68.43,5.64-103,5.79-34,.14-67.93-1.61-101.86-.27-8.26.33-16.5.84-24.68,1.61-3.71.35-8.35,1.25-11.95.22-3.21-.92-5-2.58-8.69-3s-7.36,0-10.94.22q-6.47.35-13,.63-12.71.55-25.45.87c-34.48.87-69,.57-103.5-.29Q258.38,479,232.64,478q-13-.47-26-1l-12.49-.49c-3.65-.14-8.61-.15-10.8-2.26-1-.93-1.35-2.41.6-3,1.29-.39,2.88-.28,3.49.57s2.68.11,2.07-.72Z"/></g><g id="_Group_31" data-name="&lt;Group&gt;"><path id="_Path_30" data-name="&lt;Path&gt;" class="cls-5" d="M157.11,470.36c-24.35-1.9-46.12-9.24-66.51-17q-3.9-1.48-7.78-3c-1-.37-3.22-.94-3.58-1.61-.56-1.08,4.33-1.45,5.11-1.57q4.46-.66,9-1.09a72,72,0,0,1,10.41-.68c2.84.17,2.65,1,2.2,2.25a3.32,3.32,0,0,0-.28,1.89c.3,1.22,1.82,2.06,3.5,2.69,5.14,1.93,11,3.42,16.47,4.92q9.54,2.59,19.4,4.72c3.25.7,6.89,1.27,9.51,2.69,2.35,1.27,3.58,3.63,1,5.1-1.11.64.58,1.65,1.7,1,3.73-2.15,2.07-5.64-1.58-7.41a35.7,35.7,0,0,0-8-2.34c-3.5-.74-7-1.52-10.43-2.34Q126.41,456,116,452.82c-2.85-.87-8.4-1.89-7.83-4.26.31-1.26,1.28-2.67-.4-3.76-2-1.27-5.83-.72-8.31-.57-3.61.22-7.21.54-10.77,1-2.91.35-15.59,1.2-11.1,4.62,1.8,1.37,5.16,2.25,7.58,3.18q4.61,1.77,9.25,3.5c6.09,2.25,12.26,4.43,18.61,6.41a199.74,199.74,0,0,0,44.11,8.89c1.53.12,1.51-1.31,0-1.43Z"/></g><g id="_Group_32" data-name="&lt;Group&gt;"><path id="_Path_31" data-name="&lt;Path&gt;" class="cls-5" d="M159.81,425.17c-8.74,4.92-9.64,12.94-2.4,18.59,8,6.22,21.25,8.11,33.71,8.47,15.62.45,31.4,0,47,0,9.65,0,25.58.24,27.76-7.26.58-2-.13-4-1.36-5.85-1.41-2.1-3.77-3.84-5.39-5.85-1.31-1.63.45-2.63,2.33-3.68l4.8-2.66,10.29-5.7c.52-.29.46-.94-.24-1.12-13.93-3.67-29.42-1.17-43.94-.56-8.34.35-16.72.39-25.07.23-7.67-.15-15.31-.66-23-.75-7.46-.09-15.07.43-21.46,2.91-1.29.5-.09,1.74,1.21,1.24,11.66-4.52,27.39-2.36,40.39-2,8,.2,16.1.23,24.14,0,7.44-.23,14.79-.85,22.21-1.27,8.18-.46,16.64-.53,24.3,1.49l-.24-1.12c-5.42,3-11.1,5.91-16.3,9-1.53.92-2.68,2-2.32,3.32.46,1.72,2.74,3.17,4.12,4.66,3.05,3.27,5.43,7.75.28,10.76-3.74,2.18-9.59,2.61-14.57,2.75-13.85.39-27.82.12-41.69.16-13.09,0-27.48.29-38.71-4.38-5.29-2.2-9.58-5.44-10.64-9.31-1.11-4.05,1.48-8.22,6.44-11,1.13-.63-.57-1.64-1.7-1Z"/></g><g id="_Group_33" data-name="&lt;Group&gt;"><path id="_Path_32" data-name="&lt;Path&gt;" class="cls-5" d="M739.56,350.83c-29.17.06-58.25-1.43-87.37-2.15-14.36-.35-28.74-.52-43.11-.21q-11,.24-22,.89c-6,.37-12.57.57-18,2.31-4.63,1.49-8.35,4.53-7.54,7.8.87,3.5,7.55,4.5,9,7.69l.84-.88c-29.1,4-59.09,3.7-88.76,4.31-7.32.15-14.64.35-21.93.7-2,.1-4.29.18-6,1-1.86.89-2,2.3-.92,3.5,2.36,2.68,7.68,4.22,12.35,5A137.6,137.6,0,0,0,484,382c30.45.93,61,.42,91.47.55s61,.51,91.47,1.16q51.43,1.1,102.78,3.19c1.54.06,1.53-1.37,0-1.43q-87.48-3.57-175.19-4.24c-29.22-.22-58.46.07-87.68-.22q-11-.11-21.9-.41c-6-.18-12.26-.24-18.12-1.2a31.22,31.22,0,0,1-7.08-1.9,15,15,0,0,1-2.74-1.49c-.74-.52-2-1.48-1.3-2.24a4.73,4.73,0,0,1,2.62-.85c3.12-.4,6.51-.35,9.68-.47q5.48-.2,11-.32c31.09-.73,62.54-.22,93.06-4.44.63-.09,1-.52.84-.88-1.28-2.8-6.15-3.8-8.26-6.23-3-3.45,2.51-7,7.55-8.16,5.93-1.41,12.83-1.51,19.12-1.85q10-.53,20.09-.7c27.4-.5,54.76.68,82.1,1.55,15.33.49,30.68.88,46,.85,1.54,0,1.55-1.43,0-1.43Z"/></g><g id="_Group_34" data-name="&lt;Group&gt;"><path id="_Path_33" data-name="&lt;Path&gt;" class="cls-5" d="M705.29,374c-19.95-.52-40-1-59.57-3.74-4.44-.61-9.34-1.15-13.43-2.38-1.49-.45-3.2-1.07-3.95-2-1.06-1.34.17-2.54,2.14-3.21,3.52-1.19,8.21-1.07,12.1-1.23q8.06-.34,16.14-.58,17.57-.51,35.17-.52c1.54,0,1.55-1.43,0-1.43q-18.07,0-36.12.55-8.79.26-17.56.65c-3.82.17-8.09.22-11.43,1.5-2.65,1-4,2.88-2.75,4.69,1.43,2,5.36,3.06,8.65,3.69a278.19,278.19,0,0,0,32.4,3.89c12.69.9,25.46,1.24,38.22,1.57,1.54,0,1.54-1.39,0-1.43Z"/></g><g id="_Group_35" data-name="&lt;Group&gt;"><path id="_Path_34" data-name="&lt;Path&gt;" class="cls-5" d="M741.65,411.62c-9.94-3-20.87-4.24-31.89-4.78-12.13-.6-24.36-.55-36.52-.75-26.07-.44-52.14-1-78.22-1.27-50.33-.51-100.93.18-150.67,5.19q-18.27,1.84-36.27,4.5-9,1.34-17.87,2.91-4.33.77-8.64,1.6a70.37,70.37,0,0,0-7.66,1.64c-2.89.91-6,3.06-3,4.85,1.38.82,3.61,1.15,5.39,1.52,3,.61,6.09,1.12,9.2,1.54,11.5,1.54,23.35,1.86,35.1,2,52.24.7,104.5,1.14,156.75,1.7L734.65,434l19.18.21c1.54,0,1.54-1.41,0-1.43l-152.46-1.65-151.5-1.64c-12.37-.13-24.76-.16-37.12-.46-11.5-.28-23.09-.95-34.11-3-1.93-.37-8.41-1.16-5.88-3,1.72-1.26,4.85-1.65,7.3-2.13q8.59-1.68,17.3-3.13,17.41-2.9,35.17-4.95c47.82-5.56,96.71-6.8,145.32-6.61,25.13.1,50.24.58,75.35,1q19,.35,38,.63c11.2.15,22.51.31,33.49,1.77a101.47,101.47,0,0,1,15.7,3.29c1.38.41,2.59-.82,1.21-1.24Z"/></g><g id="_Group_36" data-name="&lt;Group&gt;"><path id="_Path_35" data-name="&lt;Path&gt;" class="cls-5" d="M715.46,421.73a367.09,367.09,0,0,0-37.66-1.7c-13-.05-26,0-39.05,0l-78.47,0-44,0c-.7,0-1.46.47-1.16.91,2,2.94,6.9,4.09,11.89,4.52,7.25.62,14.83.38,22.14.4,16.9.07,33.8-.09,50.71,0,16.7.09,33.36.52,50,1.43s33.36,2.17,50.06,3.07c18.66,1,37.43,1.55,56.14.74,1.53-.07,1.54-1.5,0-1.43-32.09,1.39-64.05-1.25-95.91-3.21-16.12-1-32.25-1.69-48.46-1.92s-32.22-.13-48.33-.1c-9.16,0-18.32,0-27.48-.12-5.92-.07-15.68.22-18.45-3.77l-1.16.91q77.48,0,155-.05c14.58,0,29.21.11,43.6,1.66,1.51.16,2.16-1.22.64-1.38Z"/></g><g id="_Group_37" data-name="&lt;Group&gt;"><path id="_Path_36" data-name="&lt;Path&gt;" class="cls-5" d="M695.12,441.08c-48.53-2-97.19-1.72-145.8-1.61-48.41.11-96.9.09-145.16-2.38-11.43-.59-23.16-1-34.29-2.74-9.54-1.5-18.83-4.23-23.82-9.55l-.72,1.05c25.75-4.8,51.24-9.8,76-16.17,12.24-3.14,24.56-6.22,37.62-7.93,13.5-1.77,27.34-2.29,41.1-2.81,55.55-2.11,110.9-5.87,166.52-7.44,31.22-.88,62.52-1,93.72.21,1.54.06,1.53-1.37,0-1.43-55.88-2.23-111.87.07-167.57,2.85-28.08,1.4-56.15,2.93-84.27,4.05-13.28.53-26.61.88-39.78,2.06a252.44,252.44,0,0,0-38,6.53c-14,3.44-27.82,7.09-42.11,10.13-14.51,3.09-29.22,5.83-43.92,8.56-.75.14-1.1.64-.72,1.05,8.9,9.5,29.17,11.15,45.58,12.17,24.46,1.52,49,2.35,73.61,2.78,49.55.88,99.13.19,148.7.4,27.77.12,55.55.53,83.26,1.64,1.54.06,1.53-1.37,0-1.43Z"/></g><g id="_Group_38" data-name="&lt;Group&gt;"><path id="_Path_37" data-name="&lt;Path&gt;" class="cls-5" d="M417.32,376.3a145.5,145.5,0,0,0,26.5,7.48,269.06,269.06,0,0,0,30.75,3.44c21.74,1.45,43.62,2,65.49,2.15,43.89.21,87.7-1.53,131.56-2.23,24.73-.39,49.49-.44,74.21.36,1.54.05,1.54-1.38,0-1.43-43.37-1.41-86.8-.17-130.15.86s-86.71,1.85-129.92-.47c-12.09-.65-24.29-1.39-36.08-3.18a146.1,146.1,0,0,1-31.14-8.21c-1.29-.51-2.5.73-1.21,1.24Z"/></g><g id="_Group_39" data-name="&lt;Group&gt;"><path id="_Path_38" data-name="&lt;Path&gt;" class="cls-5" d="M417.57,374.11c-36.8-.21-73.61-.27-110.4-.75-36.6-.48-73-2.24-109.47-3.9-73-3.3-146.07-5.38-219.12-7.8l-123.39-4.09c-1.54-.05-1.54,1.38,0,1.43l220.92,7.32c36.45,1.21,72.91,2.45,109.33,4s72.84,3.61,109.39,4.25c40.89.72,81.84.7,122.74.94,1.54,0,1.54-1.42,0-1.43Z"/></g></g><g id="_Group_40" data-name="&lt;Group&gt;"><g id="_Group_41" data-name="&lt;Group&gt;"><path id="_Path_39" data-name="&lt;Path&gt;" class="cls-5" d="M735.59,230.1q-89.07-.5-178.15-.53-44.06,0-88.12.08l-44.54.13c-13.1,0-26.26.28-39.36-.08-11.64-.31-23.55-1.15-34.25-3.63a67.69,67.69,0,0,1-14.39-4.86c-4.91-2.42-6.92-5.42-5-8.83,3.16-5.68,13.53-9.87,23.52-12.34s20.88-3.65,31.72-4.45c13.39-1,26.94-1.51,40.43-2q21.95-.82,43.95-1.19c29.19-.51,58.41-.52,87.62-.29,58.65.46,117.29,1.57,175.88,2.92l21.89.52c1.54,0,1.54-1.19,0-1.22Q666.47,192.1,576.06,191c-59.84-.64-119.92-.54-179.49,2.73-21,1.15-44.93,3.18-59.63,11.7C329.46,209.81,325,216,333,221c7.14,4.36,18.42,6.94,29,8.31a280.54,280.54,0,0,0,34.85,1.82c14.57.05,29.16-.09,43.73-.14q45.49-.14,91-.16,91,0,182,.41l22,.12c1.54,0,1.54-1.22,0-1.22Z"/></g><g id="_Group_42" data-name="&lt;Group&gt;"><path id="_Path_40" data-name="&lt;Path&gt;" class="cls-5" d="M734.37,222q-74.92,2.45-149.95,3.85t-150.1,1.73c-10.11,0-23,.58-30.29-3.76-3.07-1.83-4.87-4.45-2.9-6.76s6.61-3.49,10.94-4.3c10.63-2,22-3.18,33.12-4.19,11.79-1.07,23.71-1.77,35.65-2.25,24.36-1,48.86-1.11,73.29-1.2q37.33-.14,74.65.22c50.09.41,100.18,1.19,150.28,1.46l18.19.07c1.54,0,1.55-1.22,0-1.22-51.7-.13-103.38-.93-155.06-1.41q-38.28-.36-76.57-.36c-25.23,0-50.52.13-75.71.91-24.19.75-48.45,2.27-71.79,5.72-7.76,1.15-18.3,2.69-20,7.42-1.62,4.48,5.56,8.4,13.27,9.81a89.2,89.2,0,0,0,15.45,1.09c6.32,0,12.64,0,19-.08q19.13-.11,38.25-.28,38.72-.35,77.44-1,76.94-1.26,153.8-3.64l19.09-.61c1.53-.05,1.54-1.27,0-1.22Z"/></g><g id="_Group_43" data-name="&lt;Group&gt;"><path id="_Path_41" data-name="&lt;Path&gt;" class="cls-5" d="M726.44,216.72c-36.91-.79-73.81.4-110.58,2s-73.31,3.47-110.1,4.12q-13.83.24-27.68.22l-6.57,0a9.39,9.39,0,0,1-3.47-.37c-1-.37-1.07-.41-.53-1a5,5,0,0,1,1.26-.83,32.44,32.44,0,0,1,9.78-2.67c8-1.15,16.73-1.29,25-1.71q13.94-.71,27.9-1.32,55.84-2.42,111.9-3.1,55.79-.68,111.59.35l13.76.28c1.54,0,1.54-1.19,0-1.22q-58.12-1.29-116.33-.74t-116.19,3q-14.44.61-28.85,1.33c-8.58.43-17.36.67-25.83,1.51a58.64,58.64,0,0,0-9.87,1.71c-2.6.73-5.81,1.85-6.67,3.39s1.26,2.43,4,2.53c4.57.17,9.24.07,13.82.07,38.37,0,76.62-1.84,114.82-3.54s76.44-3.31,114.78-3q7,.06,14.07.21c1.54,0,1.54-1.19,0-1.22Z"/></g><g id="_Group_44" data-name="&lt;Group&gt;"><path id="_Path_42" data-name="&lt;Path&gt;" class="cls-5" d="M720.75,241.79q-76-2.1-152.06-3.09t-152.17-.87q-37.7.06-75.39.39c-10.23.09-20.6.42-30.76-.34-8.2-.62-16.94-2-22.5-5.29-6.48-3.88-5-9.5-11.17-13.5-5-3.24-12.72-5-20.32-6-9.81-1.32-20.13-1.63-30.2-2.08q-18.63-.83-37.32-1.28c-50.34-1.24-100.77-.65-151.12.14l-18.71.3c-1.54,0-1.55,1.25,0,1.22,50.36-.81,100.76-1.63,151.14-.81,24.69.4,49.64,1,74.15,2.59,8.75.58,18,1.57,25.37,4.22,4,1.47,7.08,3.47,8.7,5.87s2.13,5.24,4.47,7.67c7.26,7.53,26.52,8.6,41,8.67,24.57.11,49.19-.4,73.76-.48q76.09-.26,152.18.59t152.08,2.82l18.82.5c1.54,0,1.54-1.18,0-1.22Z"/></g><g id="_Group_45" data-name="&lt;Group&gt;"><path id="_Path_43" data-name="&lt;Path&gt;" class="cls-5" d="M18.45,220.28q75.85-1.38,151.77-.59c19.65.21,44.95-.66,58.66,8,6.09,3.86,10,8.22,17.93,11.29,7,2.72,15.4,4.35,23.93,5.33,20.56,2.36,42.44,1.75,63.36,2l75.47.77,151.66,1.55,151.66,1.55,19.22.2c1.54,0,1.54-1.21,0-1.22L580.45,247.6l-151.66-1.55-76.19-.78-37.74-.38c-10.24-.1-20.51-.12-30.7-.67-9.75-.53-19.68-1.54-28.49-3.81a53.29,53.29,0,0,1-20.87-10.51,45.48,45.48,0,0,0-19.68-8.73c-8.65-1.78-18.14-2.24-27.38-2.45-24.8-.56-49.71-.54-74.53-.53q-37.77,0-75.53.56-9.62.14-19.23.32c-1.54,0-1.55,1.25,0,1.22Z"/></g><g id="_Group_46" data-name="&lt;Group&gt;"><path id="_Path_44" data-name="&lt;Path&gt;" class="cls-5" d="M14.47,248.41c29.5.31,59,.63,88.53.21,14.73-.21,29.45-.6,44.12-1.26,14-.63,28.31-1.25,42-2.9,8-1,26.39-3.32,24.42-9.25-.88-2.64-5.76-4.31-10.57-4.85-6.79-.76-14.34-.39-21.24-.42l-89.59-.45L-9,229c-1.54,0-1.54,1.22,0,1.22l171.52.87,21.08.11,10.06.05a66.78,66.78,0,0,1,10.26.54c6.33,1,9.83,4.47,4.52,7.11-4.5,2.25-11.53,3.28-17.45,4.08-13,1.76-26.78,2.36-40.16,3-14,.68-28.13,1.1-42.22,1.35-31.38.54-62.79.21-94.17-.12-1.54,0-1.54,1.21,0,1.22Z"/></g><g id="_Group_47" data-name="&lt;Group&gt;"><path id="_Path_45" data-name="&lt;Path&gt;" class="cls-5" d="M11.6,236.41H119.87c1.28,0,4.06-.21,5,.36,2.07,1.22-2.87,1.81-4,1.87-3.75.19-7.55.25-11.31.37q-21.48.67-43,1.15-24.37.55-48.75.86c-1.54,0-1.55,1.24,0,1.22q47.81-.62,95.55-2.13c3.91-.12,14.57.36,14.22-3-.11-1.07-1.79-1.68-3.7-1.87-3.43-.34-7.32-.08-10.79-.08H11.6c-1.54,0-1.55,1.22,0,1.22Z"/></g><g id="_Group_48" data-name="&lt;Group&gt;"><path id="_Path_46" data-name="&lt;Path&gt;" class="cls-5" d="M152.63,239.08a83.91,83.91,0,0,0,17-1.23c1.8-.33,11-1.72,7.85-3.37-1.44-.76-4.48-.55-6.31-.58q-5-.1-10-.15-10.24-.1-20.48,0c-1.54,0-1.55,1.24,0,1.22q15.24-.14,30.48.15a38.2,38.2,0,0,1,4.09.11q.89-.3-.38.09l-1.5.4a67.87,67.87,0,0,1-6.8,1.34,81.25,81.25,0,0,1-13.9.79c-1.54,0-1.54,1.18,0,1.22Z"/></g><g id="_Group_49" data-name="&lt;Group&gt;"><path id="_Path_47" data-name="&lt;Path&gt;" class="cls-5" d="M746.45,173.84l-193.24-.24L360,173.35c-8.26,0-16.65-.24-24.9,0-5.48.19-11.64.82-15.34,3.1-4.83,3-1.13,9.64,7.82,8.42l-.92-1.12c-17.9,4.88-38.06,6.57-58.11,7.23-20.71.69-41.54.7-62.29.92q-66.33.71-132.66,1.11L-1,193.52c-1.54,0-1.55,1.23,0,1.22q67.83-.41,135.65-.91,33.54-.27,67.07-.62c21.37-.22,42.8-.26,64.14-.89s42.86-2.28,61.94-7.48c1.21-.33.38-1.3-.92-1.12-5.49.75-8-3.09-6.66-5.24,2-3.16,10.43-3.77,15.93-3.9,14.33-.35,28.84,0,43.19,0l88.78.11,177.57.22,100.72.13c1.54,0,1.55-1.22,0-1.22Z"/></g><g id="_Group_50" data-name="&lt;Group&gt;"><path id="_Path_48" data-name="&lt;Path&gt;" class="cls-5" d="M-1.53,181.34q69.25,1.74,138.61,1.22,34.66-.26,69.29-1.1c11.79-.28,23.61-.56,35.38-1,6.42-.24,13.32-.87,18.74-2.75,5.21-1.81,7.87-5.07,4.93-8.11-3.53-3.65-12.77-5-19.93-5.84l.72.9c8.11-6,24.07-6.69,37.17-6.84,17.73-.21,35.48,0,53.19.34,35.8.77,71.49,2.51,107.09,4.53,70.8,4,141.53,9.19,212.85,10.06,39.27.48,78.61-.42,117.47-3.48,1.52-.12.87-1.3-.64-1.18-71.86,5.64-144.83,3.69-216.84-.07s-143.82-9.31-216.24-11c-19.81-.46-39.73-.75-59.56-.38-13.33.25-28.45,1.37-36.56,7.41-.43.32,0,.82.72.9,6.74.75,16.81,2.11,19,6,2.32,4.06-5.54,6.45-12,7.42-8.18,1.23-17.1,1.12-25.54,1.36q-16.15.47-32.31.81-62.34,1.32-124.77.79-35.43-.3-70.83-1.2c-1.54,0-1.54,1.19,0,1.22Z"/></g><g id="_Group_51" data-name="&lt;Group&gt;"><path id="_Path_49" data-name="&lt;Path&gt;" class="cls-5" d="M719.07,184.37q-72-3.76-144.36-4.5-72.68-.73-145.3,1.63c-21.68.71-43.56,1.46-64.74,4.07a261.63,261.63,0,0,0-29.75,5.27c-9.75,2.37-18.79,5.42-28.53,7.81-21.24,5.2-44.91,5.24-68,5.33l-72.85.3-145.7.6L1.29,205c-1.54,0-1.55,1.23,0,1.22l145.7-.6,73.57-.3c22.31-.09,45.42.55,67.32-2,21.5-2.54,38.68-9.83,59.13-13.69,20.81-3.93,43-5.34,65-6.22,48-1.92,96.17-2.61,144.26-2.38s96.42,1.47,144.44,3.72q9.18.43,18.35.91c1.53.08,1.52-1.14,0-1.22Z"/></g><g id="_Group_52" data-name="&lt;Group&gt;"><path id="_Path_50" data-name="&lt;Path&gt;" class="cls-5" d="M764.15,149.12q-121.67-.45-243.34-1.21c-40.05-.3-80.24-.27-120.23-1.45-20.16-.6-40.31-1.64-60.14-3.64-9.69-1-19.31-2.17-28.77-3.62-3.9-.6-8.17-1.22-11.14-2.74-5.65-2.89,1.39-5,6.31-6,32.74-6.75,67.57-10.42,100.34-17.14,7.64-1.57,15.17-3.29,22.47-5.24,5.73-1.53,14.61-3.26,17.7-6.41,2.54-2.59-1.14-4.72-5.54-5.84-7.82-2-16.74-3.24-25.14-4.42-37.15-5.23-76.55-6.78-114.88-8-40.15-1.24-80.39-1.54-120.6-1.88Q59.42,80.48-62.4,81l-29.92.15c-1.54,0-1.55,1.23,0,1.22q121.8-.72,243.61.13c40.29.28,80.61.55,120.88,1.37S353,86,392.58,89.8c9.2.89,18.33,2,27.32,3.31q6.53,1,12.94,2.16c3.85.72,10.27,1.44,12.37,3.46,4.13,4-15.11,7.85-20.06,9.11-8.29,2.12-16.84,4-25.51,5.62-16.52,3.17-33.46,5.7-50.33,8.33-8.34,1.3-16.66,2.62-24.91,4-7.61,1.32-16.08,2.47-23.1,4.5-4.56,1.31-7.12,3.87-3.72,6.25,3.88,2.72,11.49,3.51,17.41,4.37,18.44,2.68,37.37,4.39,56.41,5.48,39.62,2.26,79.73,2.12,119.54,2.45q121.66,1,243.34,1.33l29.88.11c1.54,0,1.55-1.22,0-1.22Z"/></g><g id="_Group_53" data-name="&lt;Group&gt;"><path id="_Path_51" data-name="&lt;Path&gt;" class="cls-5" d="M10.68,61.56C61,56.74,112.2,55.07,163.29,54q77.39-1.68,154.86-2.14c50.55-.36,101.29-1,151.8.35,48.58,1.29,97.62,4.74,143.27,13.67,11,2.15,21.79,4.63,32.19,7.47,5.12,1.4,10.22,2.85,15.08,4.47,4.27,1.42,9,3.28,10.42,5.91,3,5.56-10.85,8.51-18.58,10.26l-35.44,8-17.37,3.93c-1,.22-.62,1,.29,1.12,13.41,2,27.26,2.88,41.12,3.65l46.17,2.53,92,5c1.53.08,1.52-1.14,0-1.22l-90.45-5-44.84-2.46c-14.59-.8-29.2-1.65-43.33-3.76l.29,1.12,36.83-8.33,18.07-4.09A73.21,73.21,0,0,0,667,91.21c6.42-2.64,8.83-6.75,3.77-10.37-5.69-4.07-16.41-6.48-24.79-8.75-43.25-11.74-92-17.21-140.37-19.75-52.3-2.75-105.08-2.2-157.57-1.93q-80.57.42-161.1,1.85c-52.67,1-105.51,2.21-157.63,6.42q-9.68.78-19.31,1.71c-1.51.15-.87,1.33.64,1.18Z"/></g><g id="_Group_54" data-name="&lt;Group&gt;"><path id="_Path_52" data-name="&lt;Path&gt;" class="cls-5" d="M753.88,125.28l-90.61-1.18-46.08-.6c-13.18-.17-29.37.26-38.84-5.34-20.6-12.18,29.53-17.63,23.2-29.65-2.84-5.39-16.38-7.18-25.54-8.4a370,370,0,0,0-40.46-2.64C475.42,76.15,415.15,75.6,355,75S234.5,74,174.25,74.31q-90.71.42-181.32,3-11.27.33-22.54.71c-1.53.05-1.54,1.28,0,1.22q90.53-3,181.28-3.53Q242,75,332.38,76q90.76.82,181.49,2.36c14.23.22,28.53.3,42.68,1.18,7.29.45,14.54,1.13,21.6,2.17,6.09.9,13.06,1.92,17.7,4.26,11.9,6-5.46,12.89-13.6,16.61-7.31,3.34-13.69,7.85-9.75,13s14.87,7.85,25.29,8.6c14,1,28.68.66,42.82.84l90.61,1.18,22.65.29c1.54,0,1.54-1.2,0-1.22Z"/></g><g id="_Group_55" data-name="&lt;Group&gt;"><path id="_Path_53" data-name="&lt;Path&gt;" class="cls-5" d="M755.87,140c-43.84-3.3-88.22-3.06-132.41-3.57q-67.1-.77-133.92-4.38-16.51-.89-33-2c-5.52-.36-11.17-.59-16.61-1.18-4-.44-12.16-2.09-9.71-4.94,1-1.12,3.51-1.8,5.46-2.4s4.18-1.22,6.37-1.74a126.54,126.54,0,0,1,14.12-2.45,197.67,197.67,0,0,1,28.71-1.14c21.88.6,43,3.91,64.42,6.07,21.1,2.13,42.47,3.53,63.9,4.41,43.61,1.79,87.41,1.44,131.1.85l16.21-.23c1.54,0,1.55-1.25,0-1.22-45.09.64-90.27,1.28-135.32-.18-22.48-.73-44.9-2-67.08-4-21.81-2-43.21-5.33-65.28-6.57-19.25-1.08-39.86-.29-57,4.73-3.2.94-7.59,2.1-8.32,4.15s2.17,3.71,5.25,4.65c4,1.22,8.86,1.44,13.41,1.75q8.46.58,16.94,1.11,68.51,4.29,137.58,5.57c45.68.85,91.57.22,137.08,2.73q8.73.48,17.42,1.14c1.51.11,2.16-1.07.64-1.18Z"/></g><g id="_Group_56" data-name="&lt;Group&gt;"><path id="_Path_54" data-name="&lt;Path&gt;" class="cls-5" d="M479.16,96.56c-.86,2.92,6.36,4.42,10.53,5.43a146,146,0,0,0,19.76,3.23c12.4,1.23,27.42,2.13,39.09-.91,4.33-1.13,8.91-3.44,7.52-6.16s-8-3.82-12.74-4.55c-13.89-2.13-28.58-2.35-43-2.19-4.08,0-8.23,0-12.3.22-2.61.13-5.35.52-6.71,1.77-3.48,3.19,3.79,5.61,8.51,6.68,1.4.32,2.62-.74,1.21-1.06-2.49-.56-5.37-1.16-7-2.35-1.81-1.33-1.35-3.12,1.93-3.63a55.43,55.43,0,0,1,7.28-.3q4.42-.08,8.83-.12A284.53,284.53,0,0,1,536.77,94c4.86.56,11.05,1.15,14.9,2.88,4.95,2.22.48,5.07-4,6.29-9.81,2.69-22.45,2.09-33.05,1.28a166.89,166.89,0,0,1-17.87-2.26c-2.91-.54-5.74-1.18-8.48-1.91-2.29-.62-7.31-1.71-6.82-3.38.23-.77-2.08-1.1-2.31-.33Z"/></g><g id="_Group_57" data-name="&lt;Group&gt;"><path id="_Path_55" data-name="&lt;Path&gt;" class="cls-5" d="M506.81,99.53c7.95,1,17.09,1.82,25.29,1.31,2.54-.16,4.13-1.2,2.73-2.44s-5-1.87-7.58-2.32a60.76,60.76,0,0,0-21.2.11c-2.2.42-4.51,1-3.79,2.43.84,1.65,4.41,1.76,7.15,1.61,1.52-.08,1.54-1.31,0-1.22-1.36.07-3.63.29-4.41-.42s.72-1,2.05-1.28a52.18,52.18,0,0,1,6.86-.8,56.36,56.36,0,0,1,13.79,1c1.1.22,2.21.47,3.23.78,1.22.37,3,1.29.47,1.4s-5.17,0-7.71,0a162.82,162.82,0,0,1-16.25-1.26c-1.5-.19-2.14,1-.64,1.18Z"/></g><g id="_Group_58" data-name="&lt;Group&gt;"><path id="_Path_56" data-name="&lt;Path&gt;" class="cls-5" d="M752.71,42.72c-38.19-.8-76.42-.3-114.62-.09s-76.45.12-114.46-1.92c-21.45-1.16-42.76-3-63.68-5.65l.29,1.12a181.56,181.56,0,0,1,41-6.75c.85,0,1.57-.49,1-.92-6.25-5-20.84-5-31.11-5.5-14.12-.71-28.29-1.13-42.46-1.6-28.26-.93-56.79-2-84.11-6.09C332.4,13.49,315.7,11.1,311,4.24c-.5-.74-2.82-.42-2.31.33,3.64,5.37,14,8.2,23.87,10a406,406,0,0,0,41.3,5.26c28.09,2.3,56.59,2.66,84.9,3.8,7.86.32,15.74.67,23.56,1.19,6.52.44,14.05,1.21,17.83,4.26l1-.92A186.79,186.79,0,0,0,459,35.12c-.88.26-.72,1,.29,1.12,36.91,4.73,74.91,6.69,112.88,7.37,38.48.68,77,.11,115.48-.06,21.68-.09,43.37-.06,65,.4,1.54,0,1.54-1.19,0-1.22Z"/></g><g id="_Group_59" data-name="&lt;Group&gt;"><path id="_Path_57" data-name="&lt;Path&gt;" class="cls-5" d="M741.87,33.13l-88.19.09-44.09,0c-12.45,0-25.2.43-37.59-.31a78.2,78.2,0,0,1-15.56-2.24,31.54,31.54,0,0,1-6-2.25c-1.82-.93-2.51-1.52-.41-2.45,2.4-1.07,6.08-1.67,7.37-3.28,1.77-2.21-3-4-6.48-4.61-5.56-1-12.18-1-18-1.21-6.83-.22-13.67-.31-20.52-.35-14-.07-28,.1-42-.11-15.37-.23-31-.84-45.91-2.93-7.26-1-13.15-2.9-15.38-6.76s-1.2-8,2.1-11.55c.66-.71-1.41-1.33-2.07-.62-4.81,5.18-5.94,13.19,3.42,17.33,4.26,1.89,9.88,2.65,15.25,3.28,6.87.81,13.85,1.37,20.86,1.76,28.44,1.57,57.1.21,85.6,1.21,3.27.11,6.55.25,9.8.45,3.45.21,7.41.54,10,1.86,4,2-2.4,3.34-5,4.39a5.27,5.27,0,0,0-2.73,1.81c-.53,1,.66,1.68,2,2.41A41.74,41.74,0,0,0,560.66,33c11,1.91,23.1,1.56,34.55,1.55l45.05,0,101.61-.1c1.54,0,1.55-1.23,0-1.22Z"/></g><g id="_Group_60" data-name="&lt;Group&gt;"><path id="_Path_58" data-name="&lt;Path&gt;" class="cls-5" d="M746.44,22.56l-48.89-.08c-15.79,0-31.64.14-47.41-.32-9.16-.27-18.28-.81-27.24-1.85l.53,1a128.78,128.78,0,0,1,13.18-5c.78-.25.77-.81,0-1.06-9.3-3-20.23-3.91-31-4.24-12.38-.38-24.77-.37-37.14-.85Q549,9.48,529.67,7.95,520,7.17,510.3,6.2q-4.6-.46-9.17-1c-2.71-.3-7.68-.88-5.35-2.87,1.63-1.4,5-2.43,7.6-3.33s5.17-1.69,7.9-2.41A125.91,125.91,0,0,1,529.8-6.73c1.51-.16.87-1.34-.64-1.18A117.39,117.39,0,0,0,497.42-.23c-3.21,1.32-7,3.73-2.66,5.52a26.4,26.4,0,0,0,6.64,1.21q5.5.61,11,1.15c27.27,2.67,54.88,4.08,82.63,4.44,13.79.18,28.33.4,40.36,4.27V15.31a133.53,133.53,0,0,0-13.67,5.16c-.67.3-.32.93.53,1,15.3,1.77,31,2.1,46.65,2.16,16.51.07,33,.06,49.53.09l28,0c1.54,0,1.55-1.22,0-1.22Z"/></g><g id="_Group_61" data-name="&lt;Group&gt;"><path id="_Path_59" data-name="&lt;Path&gt;" class="cls-5" d="M743.89,16.32c-17.82-1.42-36.65-1.37-53.37-5.22-7-1.62-13.65-3.9-18.46-7-3.82-2.48-6.57-6.19-13.59-6.5-1.54-.07-1.53,1.16,0,1.22,4,.18,6.47,2.1,8.51,3.68a40.88,40.88,0,0,0,6.3,4.15A72.28,72.28,0,0,0,691,12.53c16.55,3.56,34.8,3.58,52.29,5,1.51.12,2.16-1.06.64-1.18Z"/></g><g id="_Group_62" data-name="&lt;Group&gt;"><path id="_Path_60" data-name="&lt;Path&gt;" class="cls-5" d="M1.29,46.35c2.78-2.5,9-3,14.08-3.16,6.86-.28,13.74-.47,20.62-.66q21.4-.61,42.83-.92c28.26-.43,56.54-.54,84.81-.55,56.72,0,113.46.39,170.17-.44q21.2-.31,42.37-.88c5.32-.15,11.89.06,16.34-1.7,3.73-1.48,5.07-4.1,1.79-6s-9.53-2.84-14.37-3.42c-5.94-.71-12-1-18.12-1.15-13.28-.41-26.6-.54-39.9-.61-26.27-.15-52.62-.07-78.78-1.47-13.25-.71-26.43-1.81-39.34-3.51-5.91-.78-12.48-1.49-18-2.89-3.22-.83-4.72-2.09-3.45-3.93a14.68,14.68,0,0,1,4.73-3.82,67.53,67.53,0,0,1,12.78-5c2.24-.7,4.5-1.37,6.75-2.07,1.85-.57,4.14-1.14,5.05-2.21,2.14-2.51-4.46-4.27-7.87-5.16a149.94,149.94,0,0,0-17.58-3.29c-12.9-1.74-26.2-2.86-39.42-3.77q-20.46-1.4-41.12-1.74-10.23-.17-20.47-.07c-1.54,0-1.55,1.24,0,1.22a784.71,784.71,0,0,1,82.09,3.5C180-6.22,193.15-4.94,204.52-1.72c2.54.72,7.47,2.29,3.72,3.82-2.12.87-4.75,1.51-7.09,2.23a111.28,111.28,0,0,0-12.52,4.4c-3.6,1.6-7,3.62-8.55,6-1.69,2.49.7,4.42,5.16,5.46,5.36,1.25,11.39,2,17.08,2.76q9.1,1.22,18.38,2.06c25.16,2.32,50.8,2.77,76.31,2.94,13,.09,26.1.1,39.14.24s26.22.09,39,1.18c2.93.25,5.84.59,8.67,1.07s6.22,1.07,8.37,2.21c2.31,1.23,2,2.86-.27,4.07-2.6,1.36-6.63,1.55-10.14,1.67-13.9.46-27.84.72-41.76.95-55.59.91-111.22.56-166.83.54-28,0-55.92.06-83.87.41q-21,.26-41.89.76-10.23.25-20.46.57c-5.79.18-11.8.18-17.49.8-4.16.45-8.08,1.41-10.24,3.36-.76.69,1.31,1.3,2.07.62Z"/></g><g id="_Group_63" data-name="&lt;Group&gt;"><path id="_Path_61" data-name="&lt;Path&gt;" class="cls-5" d="M38.44,28.61c57.88,2.19,115.9,4.06,174,3.58,2.92,0,6.22.16,9.09-.12,1.8-.18,2.77-1,2.5-1.91s-2-1.58-3.76-1.87a88.89,88.89,0,0,0-9.35-.79c-13.1-.69-26.29.1-39.41-.37a121.57,121.57,0,0,1-19.23-2,118.35,118.35,0,0,1-17.15-4.93c-5.24-1.89-10.69-4.27-11.77-7.69-.55-1.75.37-3.18,2.2-4.64,1.32-1.05,1.83-2.07.74-3.25C124,2.09,118.68.93,113.75.48A196.87,196.87,0,0,0,93.67.18C77.72.4,61.83,1.25,46.13,2.69c-1.52.14-.87,1.32.64,1.18,13.48-1.23,27.11-2,40.79-2.35,6.6-.16,13.25-.27,19.85-.14,4.74.09,10.16.39,14,2a8.52,8.52,0,0,1,2.49,1.48C125,5.9,124.16,6.6,123,7.5a5.17,5.17,0,0,0-2.25,3.55c-.19,2.59,2.18,5,5.52,6.87,3.87,2.17,9,3.85,13.86,5.38a106.39,106.39,0,0,0,15.45,3.65c11.72,1.81,24.12,1.58,36.22,1.49,6.36,0,12.73-.06,19.06.27a76.69,76.69,0,0,1,8.71.75c1.24.22,3.23.82.93,1.42a16,16,0,0,1-1.91,0l-5.72.06c-27.35.23-54.71-.06-82-.66-30.84-.68-61.64-1.75-92.42-2.92-1.54-.06-1.53,1.17,0,1.22Z"/></g><g id="_Group_64" data-name="&lt;Group&gt;"><path id="_Path_62" data-name="&lt;Path&gt;" class="cls-5" d="M248.5-4.14c-1.46,8.39,7.57,16.2,21,20.79a88,88,0,0,0,10.39,2.8c2.78.58,6.92,1.68,10,1.07S294,18,294.09,16.44c.07-2-1.7-3.91-3.56-5.67-5.13-4.85-8.16-9.91-8.12-15.46,0-.79-2.39-.79-2.4,0a18.45,18.45,0,0,0,4,11.27,41.49,41.49,0,0,0,4.69,5c1.85,1.76,3.74,3.8,2.81,5.85-.52,1.14-1.76,2.16-4.27,2a42.79,42.79,0,0,1-5.27-.86,87.39,87.39,0,0,1-9.63-2.44c-6.16-1.95-11.56-4.56-15.38-7.71-4.56-3.76-6.78-8.14-6-12.55.14-.78-2.26-.78-2.4,0Z"/></g><g id="_Group_65" data-name="&lt;Group&gt;"><path id="_Path_63" data-name="&lt;Path&gt;" class="cls-5" d="M751.58,94.38c-13,.48-26.07.44-39.06-.16-5.27-.25-11.05-.42-15.83-1.7-5.5-1.48-7.22-4.33-5.88-7.32,2.3-5.13,12.35-10.25,7.86-15.8-3.4-4.2-13.21-5.39-21.08-6.15q-38.48-3.74-76.22-9.12l-9-1.32c-1.4-.21-2.87-.38-4.23-.64-.84-.17-1.86-.35-1.56-1,.16-.37,1.3-.66,1.9-.83,2.54-.7,6-.63,8.76-.72,3.29-.1,6.59-.13,9.88-.11,13.26.09,26.41,1,39.59,1.64,29.71,1.38,59.57,1.39,89.38,1.41,1.54,0,1.55-1.22,0-1.22-28.07,0-56.17,0-84.17-1.18-13.84-.57-27.62-1.59-41.51-1.83a171,171,0,0,0-20.19.4c-2.95.31-7.9,1.75-5.63,3.63,1.1.91,3.51,1.12,5.35,1.4q5.36.81,10.75,1.59,9.87,1.42,19.8,2.72,19.87,2.61,40,4.74c6.33.67,12.7,1.24,19,1.92,4.75.52,9.9,1.2,13.65,2.87,10.68,4.76-1.85,11.79-4.46,16.93-1.38,2.72-1,5.69,3.14,7.75,3.79,1.91,9.31,2.53,14.4,2.87a435.43,435.43,0,0,0,45.35.51c1.53-.06,1.54-1.28,0-1.22Z"/></g><g id="_Group_66" data-name="&lt;Group&gt;"><path id="_Path_64" data-name="&lt;Path&gt;" class="cls-5" d="M731.25,60.85c-9.12-1-18.23-2.12-27.41-2.94-2.27-.2-5.25,0-5.06,1.53s3.61,2.92,5.43,3.93c3.05,1.7,5.32,3.43,5.76,5.78.4,2.16-.52,4.31-1.51,6.4-1.46,3.06-5,8.26.72,10.7,3.42,1.45,8.1,2.4,12.1,3.36,4.39,1,8.88,2,13.44,2.81,1.46.26,2.08-.92.64-1.18-7.3-1.33-14.39-2.94-21.18-4.84A19.17,19.17,0,0,1,710,84.93a2.76,2.76,0,0,1-1.39-2.88,15.62,15.62,0,0,1,2-5.75c1.53-3.18,3-6.66.67-9.84a15.43,15.43,0,0,0-4.81-3.67c-1-.59-2.12-1.15-3.12-1.76-.47-.28-1.48-.73-1.65-1.11-.44-1,1.22-.86,2.46-.74,8.85.9,17.67,1.9,26.5,2.85,1.51.16,2.15-1,.64-1.18Z"/></g><g id="_Group_67" data-name="&lt;Group&gt;"><path id="_Path_65" data-name="&lt;Path&gt;" class="cls-5" d="M732.47,109.67l-24.37-2.19c-7.63-.69-15.61-1.1-23.08-2.14a20.16,20.16,0,0,1-4.06-.9c-.5-.18-1.7-.66-1.79-1-.23-.82,1.15-1.17,2.4-1.31,3.7-.41,7.94-.22,11.72-.25q12.32-.11,24.64,0c9.32.06,18.64.17,28,.28,1.54,0,1.54-1.21,0-1.22-18.95-.23-37.9-.46-56.85-.22-3.29,0-7.58-.21-10.52.74-2.57.83-2.32,2.21-.46,3.3,2.11,1.22,5.36,1.72,8.38,2,4.49.46,9,.82,13.54,1.23l31.87,2.87c1.51.14,2.16-1,.64-1.18Z"/></g><g id="_Group_68" data-name="&lt;Group&gt;"><path id="_Path_66" data-name="&lt;Path&gt;" class="cls-5" d="M532.9,68q-99.73-1.1-199.48-1.33-99.24-.22-198.48.42-56,.36-111.95,1c-1.54,0-1.55,1.24,0,1.22q99.73-1.14,199.48-1.4,99.24-.26,198.48.35,56,.34,111.95,1c1.54,0,1.54-1.21,0-1.22Z"/></g><g id="_Group_69" data-name="&lt;Group&gt;"><path id="_Path_67" data-name="&lt;Path&gt;" class="cls-5" d="M534.79,68.21c1.86,2.19,8.35,1.33,9.25-.76,1.46-3.39-6.22-4.78-11.29-5-18.14-.81-36.39-1.22-54.57-1.75-36.64-1.07-73.34-1.83-110-1.64q-27.23.14-54.43,1.07-7,.25-14,.56c-4,.18-8.62.71-12.6.22-3.8-.48-5.93-2.39-9.86-2.78a58.07,58.07,0,0,0-10.29.42c-35.93,2.94-72.46,1.59-108.64,1.25-18.2-.17-36.36,0-54.51.78s-36,1.94-54,3.2l-13.38,1c-1.52.11-.87,1.29.64,1.18,34.18-2.45,68.43-4.83,103-5,34-.12,67.93,1.38,101.86.23,8.26-.28,16.5-.72,24.68-1.37,3.71-.3,8.35-1.07,11.95-.19,3.21.78,5,2.21,8.69,2.55A80.37,80.37,0,0,0,298.26,62q6.47-.3,13-.54,12.71-.47,25.45-.74c34.48-.75,69-.48,103.5.25q25.77.55,51.52,1.38,13,.4,26,.84l12.49.42c3.65.12,8.61.13,10.8,1.93,1,.8,1.35,2.07-.6,2.57-1.29.33-2.88.24-3.49-.49s-2.68-.1-2.07.62Z"/></g><g id="_Group_70" data-name="&lt;Group&gt;"><path id="_Path_68" data-name="&lt;Path&gt;" class="cls-5" d="M567.21,68.91c24.35,1.62,46.12,7.9,66.51,14.52q3.9,1.27,7.78,2.56c1,.32,3.22.8,3.58,1.38.56.92-4.33,1.24-5.11,1.34q-4.46.56-9,.93a84,84,0,0,1-10.41.58c-2.84-.15-2.65-.82-2.2-1.92a2.48,2.48,0,0,0,.28-1.62c-.3-1-1.82-1.76-3.5-2.3-5.14-1.65-11-2.93-16.47-4.21q-9.54-2.21-19.4-4c-3.25-.6-6.89-1.09-9.51-2.3-2.35-1.09-3.58-3.11-1-4.36,1.11-.55-.58-1.41-1.7-.87-3.73,1.84-2.07,4.83,1.58,6.34a40.37,40.37,0,0,0,8,2q5.25,1,10.43,2,10.89,2.23,21.35,5c2.85.74,8.4,1.62,7.83,3.64-.31,1.08-1.28,2.28.4,3.22,2,1.09,5.83.62,8.31.49,3.61-.19,7.21-.46,10.77-.82,2.91-.3,15.59-1,11.1-4-1.8-1.17-5.16-1.93-7.58-2.72q-4.61-1.52-9.25-3c-6.09-1.93-12.26-3.79-18.61-5.48a229.62,229.62,0,0,0-44.11-7.6c-1.53-.1-1.51,1.12,0,1.22Z"/></g><g id="_Group_71" data-name="&lt;Group&gt;"><path id="_Path_69" data-name="&lt;Path&gt;" class="cls-5" d="M564.51,107.57c8.74-4.21,9.64-11.07,2.4-15.91-8-5.32-21.25-6.94-33.71-7.25-15.62-.38-31.4,0-47,0-9.65,0-25.58-.2-27.76,6.21-.58,1.7.13,3.42,1.36,5,1.41,1.8,3.77,3.28,5.39,5,1.31,1.39-.45,2.25-2.33,3.15l-4.8,2.28L447.73,111c-.52.25-.46.8.24,1,13.93,3.14,29.42,1,43.94.48,8.34-.3,16.72-.34,25.07-.19,7.67.13,15.31.56,23,.64,7.46.08,15.07-.37,21.46-2.49,1.29-.43.09-1.49-1.21-1.06-11.66,3.87-27.39,2-40.39,1.73-8-.18-16.1-.19-24.14,0-7.44.2-14.79.73-22.21,1.08-8.18.39-16.64.45-24.3-1.27l.24,1c5.42-2.57,11.1-5.05,16.3-7.74,1.53-.79,2.68-1.68,2.32-2.84-.46-1.48-2.74-2.72-4.12-4-3.05-2.8-5.43-6.63-.28-9.2,3.74-1.87,9.59-2.23,14.57-2.35,13.85-.33,27.82-.1,41.69-.14,13.09,0,27.48-.25,38.71,3.75,5.29,1.88,9.58,4.65,10.64,8,1.11,3.47-1.48,7-6.44,9.42-1.13.54.57,1.41,1.7.87Z"/></g><g id="_Group_72" data-name="&lt;Group&gt;"><path id="_Path_70" data-name="&lt;Path&gt;" class="cls-5" d="M-15.24,171.16c29.17-.05,58.25,1.22,87.37,1.84,14.36.3,28.74.44,43.11.18q11-.2,22-.76c6-.31,12.57-.49,18-2,4.63-1.27,8.35-3.88,7.54-6.67-.87-3-7.55-3.85-9-6.58l-.84.75c29.1-3.44,59.09-3.17,88.76-3.69,7.32-.13,14.64-.3,21.93-.6a19,19,0,0,0,6-.83c1.86-.76,2-2,.92-3-2.36-2.29-7.68-3.61-12.35-4.27a160.5,160.5,0,0,0-17.81-1c-30.45-.79-61-.36-91.47-.47s-61-.43-91.47-1q-51.43-.94-102.78-2.73c-1.54-.05-1.53,1.17,0,1.22q87.48,3.05,175.19,3.63c29.22.19,58.46-.06,87.68.18q11,.09,21.9.35a162.14,162.14,0,0,1,18.12,1,35.47,35.47,0,0,1,7.08,1.63,16,16,0,0,1,2.74,1.27c.74.45,2,1.27,1.3,1.92a5.28,5.28,0,0,1-2.62.73c-3.12.34-6.51.3-9.68.4q-5.48.17-11,.27c-31.09.62-62.54.19-93.06,3.8-.63.07-1,.44-.84.75,1.28,2.39,6.15,3.25,8.26,5.33,3,3-2.51,6-7.55,7-5.93,1.2-12.83,1.3-19.12,1.58q-10,.45-20.09.6c-27.4.43-54.76-.58-82.1-1.33-15.33-.42-30.68-.75-46-.73-1.54,0-1.55,1.23,0,1.22Z"/></g><g id="_Group_73" data-name="&lt;Group&gt;"><path id="_Path_71" data-name="&lt;Path&gt;" class="cls-5" d="M19,151.3c19.95.45,40,.9,59.57,3.2a106.79,106.79,0,0,1,13.43,2c1.49.39,3.2.92,3.95,1.72,1.06,1.14-.17,2.17-2.14,2.74-3.52,1-8.21.91-12.1,1.05q-8.06.29-16.14.49Q48,163,30.42,163c-1.54,0-1.55,1.23,0,1.22q18.07,0,36.12-.47,8.79-.22,17.56-.56c3.82-.14,8.09-.19,11.43-1.28,2.65-.87,4-2.47,2.75-4-1.43-1.74-5.36-2.62-8.65-3.16a323.26,323.26,0,0,0-32.4-3.33c-12.69-.77-25.46-1.06-38.22-1.34-1.54,0-1.54,1.19,0,1.22Z"/></g><g id="_Group_74" data-name="&lt;Group&gt;"><path id="_Path_72" data-name="&lt;Path&gt;" class="cls-5" d="M-17.33,119.16c9.94,2.55,20.87,3.62,31.89,4.09,12.13.51,24.36.47,36.52.64,26.07.37,52.14.87,78.22,1.09,50.33.43,100.93-.16,150.67-4.44q18.27-1.57,36.27-3.85,9-1.15,17.87-2.49,4.33-.66,8.64-1.37c2.55-.42,5.29-.76,7.66-1.4,2.89-.78,6-2.62,3-4.15A21.63,21.63,0,0,0,348,106c-3-.53-6.09-1-9.2-1.31a344.43,344.43,0,0,0-35.1-1.73c-52.24-.6-104.5-1-156.75-1.46L-10.33,100l-19.18-.18c-1.54,0-1.54,1.21,0,1.22l152.46,1.41,151.5,1.41c12.37.11,24.76.14,37.12.4a247,247,0,0,1,34.11,2.6c1.93.31,8.41,1,5.88,2.58-1.72,1.08-4.85,1.42-7.3,1.83q-8.59,1.44-17.3,2.68-17.41,2.48-35.17,4.23C244,123,195.08,124,146.46,123.86c-25.13-.09-50.24-.5-75.35-.89q-19-.3-38-.54c-11.2-.13-22.51-.26-33.49-1.52a116.56,116.56,0,0,1-15.7-2.81c-1.38-.35-2.59.7-1.21,1.06Z"/></g><g id="_Group_75" data-name="&lt;Group&gt;"><path id="_Path_73" data-name="&lt;Path&gt;" class="cls-5" d="M8.86,110.51c12.43,1.14,25.05,1.41,37.66,1.45,13,0,26,0,39.05,0l78.47,0h44c.7,0,1.46-.4,1.16-.77-2-2.51-6.9-3.5-11.89-3.86-7.25-.53-14.83-.32-22.14-.35-16.9-.06-33.8.08-50.71,0-16.7-.08-33.36-.44-50-1.22s-33.36-1.86-50.06-2.63c-18.66-.86-37.43-1.33-56.14-.63-1.53.06-1.54,1.28,0,1.22,32.09-1.19,64.05,1.07,95.91,2.74,16.12.85,32.25,1.45,48.46,1.64s32.22.11,48.33.09c9.16,0,18.32,0,27.48.1,5.92.06,15.68-.19,18.45,3.22l1.16-.77q-77.48,0-155,0c-14.58,0-29.21-.09-43.6-1.42-1.51-.14-2.16,1-.64,1.18Z"/></g><g id="_Group_76" data-name="&lt;Group&gt;"><path id="_Path_74" data-name="&lt;Path&gt;" class="cls-5" d="M29.2,94c48.53,1.67,97.19,1.47,145.8,1.38,48.41-.09,96.9-.08,145.16,2,11.43.5,23.16.85,34.29,2.34,9.54,1.28,18.83,3.62,23.82,8.17l.72-.9c-25.75,4.1-51.24,8.39-76,13.83-12.24,2.69-24.56,5.32-37.62,6.79-13.5,1.51-27.34,2-41.1,2.41-55.55,1.8-110.9,5-166.52,6.37-31.22.75-62.52.88-93.72-.18-1.54-.05-1.53,1.17,0,1.22,55.88,1.91,111.87-.06,167.57-2.44,28.08-1.2,56.15-2.5,84.27-3.47,13.28-.46,26.61-.75,39.78-1.76a291.56,291.56,0,0,0,38-5.59c14-2.94,27.82-6.06,42.11-8.66,14.51-2.64,29.22-5,43.92-7.33.75-.12,1.1-.55.72-.9-8.9-8.13-29.17-9.54-45.58-10.41-24.46-1.3-49-2-73.61-2.38-49.55-.75-99.13-.16-148.7-.34-27.77-.1-55.55-.45-83.26-1.41-1.54-.05-1.53,1.17,0,1.22Z"/></g><g id="_Group_77" data-name="&lt;Group&gt;"><path id="_Path_75" data-name="&lt;Path&gt;" class="cls-5" d="M307,149.37a165,165,0,0,0-26.5-6.4c-10-1.58-20.38-2.35-30.75-2.94-21.74-1.24-43.62-1.75-65.49-1.84-43.89-.18-87.7,1.31-131.56,1.91-24.73.33-49.49.38-74.21-.31-1.54,0-1.54,1.18,0,1.22,43.37,1.21,86.8.15,130.15-.73s86.71-1.58,129.92.4c12.09.55,24.29,1.19,36.08,2.72a166.19,166.19,0,0,1,31.14,7c1.29.43,2.5-.63,1.21-1.06Z"/></g><g id="_Group_78" data-name="&lt;Group&gt;"><path id="_Path_76" data-name="&lt;Path&gt;" class="cls-5" d="M306.74,151.24c36.8.18,73.61.23,110.4.64,36.6.41,73,1.92,109.47,3.33,73,2.83,146.07,4.6,219.12,6.67l123.39,3.5c1.54,0,1.54-1.18,0-1.22L648.21,157.9c-36.45-1-72.91-2.1-109.33-3.44s-72.84-3.08-109.39-3.64c-40.89-.62-81.84-.6-122.74-.8-1.54,0-1.54,1.22,0,1.22Z"/></g></g></g></g><g id="Layer_1" data-name="Layer 1"><rect class="cls-6" x="280.33" y="-26.15" width="310.89" height="495.89" transform="matrix(0.21, -0.98, 0.98, 0.21, 125.8, 599.96)"/><path class="cls-7" d="M600,138.83a3.58,3.58,0,0,1-2.6-3.81l-4.52-1a3.36,3.36,0,0,1-6.55-1.44l-4.78-1-.86,3.95a3.38,3.38,0,0,1-1.45,6.6l-1,4.47a3.38,3.38,0,0,1-1.45,6.6L576,157a3.36,3.36,0,0,1-1.44,6.55l-1,4.52a3.36,3.36,0,0,1-1.44,6.55l-.78,3.54a3.36,3.36,0,0,1-1.44,6.55l-1,4.52a3.36,3.36,0,0,1-1.44,6.55l-.87,4,5.27,1.16a3.36,3.36,0,0,1,6.55,1.44l4.14.91a3.42,3.42,0,1,1,6.66,1.46l4.1.9a3.4,3.4,0,1,1,6.64,1.46l3.45.76c0-.08,0-.16,0-.25a3.45,3.45,0,1,1,6.68,1.46c0,.08,0,.16-.06.24l4.26.93a3.4,3.4,0,1,1,6.64,1.46l4.62,1a3.38,3.38,0,0,1,6.6,1.45l4.44,1a3.42,3.42,0,1,1,6.66,1.46l4.09.9a3.42,3.42,0,1,1,6.66,1.46l4.4,1,.79-3.62a4.48,4.48,0,0,1-.58-.09,3.45,3.45,0,1,1,1.46-6.68,4.51,4.51,0,0,1,.56.16l1-4.47a4.5,4.5,0,0,1-.58-.09,3.45,3.45,0,1,1,1.46-6.68,4.48,4.48,0,0,1,.56.16l.77-3.49a4.51,4.51,0,0,1-.58-.09,3.45,3.45,0,1,1,1.46-6.68,4.5,4.5,0,0,1,.56.16l1-4.47a4.53,4.53,0,0,1-.58-.09,3.45,3.45,0,1,1,1.46-6.68,4.53,4.53,0,0,1,.56.16l.83-3.8-.41-.07a3.45,3.45,0,1,1,1.46-6.68l.4.11,1-4.43-.41-.07a3.45,3.45,0,1,1,1.46-6.68l.4.11.93-4.25-4.42-1a3.4,3.4,0,1,1-6.64-1.46l-4.43-1a3.4,3.4,0,1,1-6.64-1.46l-3.95-.87a3.4,3.4,0,1,1-6.64-1.46l-4.43-1a3.4,3.4,0,1,1-6.64-1.46l-3.78-.83a3.4,3.4,0,1,1-6.64-1.46l-4.43-1a3.4,3.4,0,1,1-6.64-1.46l-4.15-.91A3.58,3.58,0,0,1,600,138.83Z"/><rect class="cls-8" x="580.87" y="148.48" width="78.23" height="54.48" transform="translate(52.02 -128.7) rotate(12.37)"/><path class="cls-9" d="M516,128.1c.3,1.73,3.11.48,3.39-.67a1.52,1.52,0,0,0-2.16-1.74,4,4,0,0,0-.19,1.51C516.75,127.57,516.16,127.48,516,128.1Z"/><path class="cls-9" d="M513.52,153.64c-1-.28-.48,1.78-1.35,1.68.06-.5.38-1.17.19-1.51-1.15-.47-1,1-1.8,1.16a2.74,2.74,0,0,0-1-2.48,6.65,6.65,0,0,0-.44-2.49l-.67-.15c-.59,1.36-1.56,4.06-1.27,5.78.88.11,1.24-.6,1.67-1.18.56.95.31,2.43,1.29,3.1.78-.41,1.09-1.55,2-1.83.33.69-.38,2.49.77,2.28C512.75,156.48,514.31,154.71,513.52,153.64Z"/><path class="cls-9" d="M513.26,152.88a.86.86,0,0,0-1.33.27C512.27,153.67,513.19,153.74,513.26,152.88Z"/><path class="cls-9" d="M504.19,152.44c1.47,0,2.77-2.11,2.1-3.77-.44-.23-.92-.89-1.56-.62-.48.84,1,1.35.74,2.42-.76,1.3-3.14.81-4.35-.11-.65.34-.93,2.31,0,2.67.5,0,.33-1.05.91-.93A7.57,7.57,0,0,1,504.19,152.44Z"/><path class="cls-9" d="M517.58,141.56c-2.55-.51-.05-3.51-.88-5a3.11,3.11,0,0,0-1.67-.08c-1.37,1.89-3.67,2.34-4.81,4.58.89.87,3.09.64,4.11,1.18a4.08,4.08,0,0,1-.17,2.08,1.29,1.29,0,0,0,1.75.38c.1-1,.09-1.34.2-2.21C516.86,142.61,517.56,142.62,517.58,141.56Zm-4.41-1.11c.21-.69,1-.51,1.24-1.14.42.19.4.67.3,1.19A1.42,1.42,0,0,1,513.17,140.45Z"/><path class="cls-9" d="M514.1,151.65c-.37-.07-.22-.28-.54-.12A.29.29,0,1,0,514.1,151.65Z"/><path class="cls-9" d="M512.79,112.59c-1.76,1.64-2.44,5-3.83,7.2-.17,1.57-2.23,3.7-.44,4.56,1.6-.57,1.69-3.51,2.76-4.89.65-.13,1.05-.65,1.72-.75a67.21,67.21,0,0,1-.56,7.07,1.82,1.82,0,0,0,1.8.82c.81-.66.29-1.86.35-2.88.06-1.18.54-2.35.17-3.35a12.94,12.94,0,0,0,.28-1.91c1.11-1.27,3.15-1.09,4.21-2.46-.12-.61-1.09-.69-1.6-1.06-.49,0-.71.45-1.33.27a4.82,4.82,0,0,1-2.7,1.38c-.45.38-.73,1-1.48.95C512,116.08,515.25,113.42,512.79,112.59Z"/><path class="cls-9" d="M507.78,177.9c-.88-.41-.43-1.66-1.86-1.82-1.45,4.06,5,4.81,6.26,1.66.78-2-.23-3.63-1.64-4.73,2.13-3.18-1.3-6-4.36-5.19-.86.69-2.3,2.77-1,3.87.94.11,1.41-.94,1.49-1.65a2.57,2.57,0,0,1,1.85-.72c.94.62.78,1.49.44,2.49-.52.87-1.91.39-2.09,1.8.88.75,2,.26,3.17,1,.36,1,.71,2.31-.11,3.08A2.4,2.4,0,0,1,507.78,177.9Z"/><path class="cls-9" d="M497.08,176.54c-.8.59-.19,1.86-.16,2.64,1.67,2,5.17,1.67,6.38-.15a4.66,4.66,0,0,0-1.34-4.81c.75-.22.92-1.34,1.41-1.95a4,4,0,0,0-4.55-3.68c-.75.88-1.94,1.41-1.92,3,1.18,1,1.54-.66,2.1-1.23a4.07,4.07,0,0,1,2.08.17,2.24,2.24,0,0,1,.26,2,2,2,0,0,1-2.28.77c0,.8-.76.5-.53,1.15a13.83,13.83,0,0,0,3,1.22c.54.74,0,1.6,0,2.54-.79.35-1.25,1-2,.83C498.17,178.78,498.52,176.82,497.08,176.54Z"/><path class="cls-9" d="M522.75,173.29a1.76,1.76,0,0,0,1.56-1.35c.38.1.4-.34.76-.26.37-1.47,1.83-1.23,2.16-2.77-.56-.95-1.58-1.61-2.11-2.58-1.2-.39-1.22-1.53-2.72-1.73-1,.8-1.19,2.83-2.52,3.11a2.88,2.88,0,0,1-2.59-3c.52-1.66,2.44-1.13,3.63-1.74-.18-1.87-2.76-.78-3.9-.86-1.35,1.43-1.95,3.19-1.17,4.68a6.89,6.89,0,0,0,2.82,2.59c2,.55,3.33-.87,4.58-2.24.36.58,1.18.86,1.35,1.56-.11,1.64-2.54,1.92-2.68,3.22A1.31,1.31,0,0,0,522.75,173.29Z"/><path class="cls-9" d="M500.06,155.2c.31.35,1.25.48,1.3-.14C501,154.74,500.1,154.23,500.06,155.2Z"/><path class="cls-9" d="M473.51,156.71c-.8,1.84-3.86,2.57-3.2,4.94.78.41,1.41-.16,2.06-.39,1.55-.56,2.9-.74,4-1.65,1.64-.33,2.86-1.31,4.36-1.86.22-.64,0-1-.44-1.22-2.47,1-4.83,2.21-7.43,3a27.61,27.61,0,0,0,2.92-3c.35-.35.61-.7.94-1.06,1.18-1.3,3-2.08,1.53-3.75l-.4-.09a4.86,4.86,0,0,1-2.42.74c-.43.83-1.53.62-2.1,1.23a3.09,3.09,0,0,1-.87.09c-.73.36-1.46.84-2.24,1.2s-1.95.3-2,1.53a2.36,2.36,0,0,1,.45.52c1.45-.2,2.31-1.33,3.83-1.41a7.19,7.19,0,0,1,3.86-1.55c-.61,1-1.63,1.31-2.1,2.5A3.67,3.67,0,0,1,473.51,156.71Z"/><path class="cls-9" d="M504.87,111.42c-1.36-1.06-3.39-.61-5.2-.72a5.75,5.75,0,0,0-.72.69,34.5,34.5,0,0,1-.3,5.86c.61,1.61-.36,4.24.27,5.84.39.07.86.27,1.11.1,1-1.47,0-3.47.58-5.23.57-.09.78-.28,1.3-.14,2.17.61.74,4.81,2.84,5.7.41,0,.58-.3.82-.53,0-2.15-1.17-3.49-1.33-5.51.53-.62,1.33-.82,1.86-1.42A5.11,5.11,0,0,0,504.87,111.42Zm-4.32,4.27a31.11,31.11,0,0,1,.27-3.18c1.17-.49,3.31.3,3.65,1.36C504.24,116.07,502.24,116.37,500.55,115.69Z"/><path class="cls-9" d="M470.58,135.34a3.85,3.85,0,0,0-2.6-1l-.27,1.21a89.75,89.75,0,0,0,11,3.69c.48-.09.66-.65.94-1.06-.51-1.14-2.05-1.61-2.82-2.59-1.74-.43-2.21-1.67-3.91-2.13.16-.6-.73-.54-.6-1.12,3.61.72,5.63,1.52,8.69,2.19a2.22,2.22,0,0,0,.73-1.39,1.77,1.77,0,0,0-1.5-.89c-1.94-2.19-6-3-8-5.15-.72,0-1.19.3-1.27,1.27,2.32,1.29,4.64,2.58,6.73,4-2.22-.55-5-1.12-7.34-1.89a1.62,1.62,0,0,0-1.07,1c.24,1,1.63,1.27,2.23,2a3,3,0,0,0,1.24.13c-.06.35-.13.7.26.76,1.08,1.16,3.29,1.6,4,3C474.27,137.69,473.4,135.71,470.58,135.34Z"/><path class="cls-9" d="M500.78,135.2l1.35.29c.38.64.41,1.51,1.45,1.73,1.11-.71.4-2.33,0-3.11-1.1-.47-1.88-.42-3.06-.81a4.67,4.67,0,0,0-2.34,2.31c-.58,1.57-.12,3.41-.23,4.89,1,1.86,5.39,2.67,5.51-.06-1.14-.6-2,.71-3.23.56a2.37,2.37,0,0,1-1.05-1.64C499.67,137.91,499.51,135.44,500.78,135.2Z"/><path class="cls-9" d="M477.8,120.43a9.15,9.15,0,0,0,3.64,2.07c.11.24.31.42.42.66,2.78.76,3,3.17,4.94,4.47a1,1,0,0,0,1-.5c-.9-1.51-2-2.86-2.84-4.43a47.26,47.26,0,0,1-1.21-4.78c-.58-.36-.3-1.27-1.08-1.51a1.24,1.24,0,0,0-1.15.74c.08.45.4.75.11,1.43a3.56,3.56,0,0,1,1,3c-.93-.33-1.69-.77-2.57-1.13C479.84,119.76,477.9,119.08,477.8,120.43Z"/><path class="cls-9" d="M495,154.38c.42-.37,1.44.2,2,0,.12-.85-.73-.56-1.39-.73-1.08-.71-1.9,0-3-.25C493,154.27,494.18,153.89,495,154.38Z"/><path class="cls-9" d="M501.45,160.44c-.59-.76-2.39-.55-3.36-.74-.52,0-1.36-.57-1.43.11s.94.55,1.42.59C498.89,160.57,500.9,161.26,501.45,160.44Z"/><path class="cls-9" d="M490.12,178.68a9.41,9.41,0,0,1,2-.69c1.25-2.7,4-7.31,2.18-10-.94-.17-1.57-.91-2.47-1a4.34,4.34,0,0,0-2.67,1.25c-.54.72-.45,1.79-1,2.74a5.24,5.24,0,0,0,4,3.42c-.41,1.82-1.25,3-3.1,2.56-1.12-.63-.47-2.4-1.76-2.92C485.78,175.94,487.42,178.46,490.12,178.68Zm1.57-5.86c-1.38-.77-2.46-1.26-2.28-2.47.33-2.25,4.43-2.26,4.29.38,0,.59-.45.69-.49,1.58A1.84,1.84,0,0,0,491.69,172.82Z"/><path class="cls-9" d="M491.42,146.4c0,.26-.22.26-.25.51-.07.85,1,1,1.19,1.67,0,.76-.94,1.15-1.91,1-.47-.18-.58-1-1.09-.8-.78.54,0,1.24.15,1.87C493.41,152.53,494.6,147.16,491.42,146.4Z"/><path class="cls-9" d="M524.63,132.53a2.93,2.93,0,0,1,2.83-1.35c-.74,1.08-1,1.77-2.07,2.37a1,1,0,0,0-.18.81c-1,.66-1.73,1.87-2.91,2.32-.32,1.29-.12,2.23,1.14,2.51.53,0,.66-.53,1.12-.6,2.1-.33,3.38-1.94,5.55-2.17.45-.44,1-.65,1.51-1.08.84-.62,2.15-.5,2.52-1.84-.08-.57-.67-.8-1.17-1.1a8.4,8.4,0,0,0-2.4,1.31,2.54,2.54,0,0,0-2.3,1.47c-.86-.05-1.68.83-2.25.63.65-1,1.84-1.64,2.7-2.65.15-.17.16-.56.31-.78s.59-.36.85-.66.44-.86.67-1.12c.54-.61,1.19-.83,1.14-2-.59-.35-.72-1-1.57-1.19-.05.1-.06.26-.19.24a6.89,6.89,0,0,0-4.47,2.4c-1.86.47-3.32,1.55-5.12,2.12-.07.55-.4.69-.43,1.32a4.72,4.72,0,0,0,1.26.7C522.45,133.82,523.19,132.63,524.63,132.53Z"/><path class="cls-9" d="M531.07,161.72c-.47-1.17-1.61-2.13-2.23-.77-.32.71.34,1.24-.14,1.94-2.62-1.26-4.33-3.7-7.38-4.3-.58,1.45,1.06,1.48,1.47,2.3,1.85.67,2.84,1.88,4.49,2.68a4.13,4.13,0,0,0,3,1.92C532.34,165,530.33,163,531.07,161.72Z"/><path class="cls-9" d="M525.44,152c.36-1.27-1.13-1.91-1.56-.62A1,1,0,0,0,525.44,152Z"/><path class="cls-9" d="M536,150a2.2,2.2,0,0,0,0-1.27c-1.46-.86-4.66-.43-5.71-2.24,1.69-.13,2.84-1.1,4.72-.94a1.49,1.49,0,0,0,.93-2.33c-1.32-.32-1.61.29-2.55.71-.58.26-1.3.26-1.79.45-.74.3-1.33.88-2.07,1.1-1.27.38-2.33.29-3.79.58-.23-.31-1-.31-1.45-.46a1.59,1.59,0,0,0-.28,1.91,37.27,37.27,0,0,1,7,.7,9.4,9.4,0,0,0,4.14,2.32A3.33,3.33,0,0,0,536,150Z"/><path class="cls-9" d="M481.82,174.75c.88,0,1.08-1,1.59-1.48a9.08,9.08,0,0,0,1.31-2.11,15.57,15.57,0,0,0,2.59-4.09,3.65,3.65,0,0,0,1.22-1.71,1.28,1.28,0,0,0-1.81-.11c-1.17-.33-2.62-1-2.82.65.57.73,1.7.56,2.36.8-1.34,2.06-2.57,4.3-4.24,5.84C481.93,173.34,480.84,174.41,481.82,174.75Z"/><path class="cls-9" d="M523.34,141c-.87,2.23,1.78,2.45,2.17,1C525.86,140.77,524.73,140.39,523.34,141Z"/><path class="cls-9" d="M490.25,145.3a4,4,0,0,1,2.87,1.05c.34-.13.71-.22.74-.82-.67-.43-1.87-.93-2.32-.37C491.4,144.74,490.16,144.31,490.25,145.3Z"/><path class="cls-9" d="M496.12,159.69c.2-.44-.37-.59-.61-.42C495.31,159.72,495.87,159.86,496.12,159.69Z"/><path class="cls-9" d="M490.7,138.77c.2-.47-.18-.58-.06-1,1.35-.78.45-2.71,1.18-4.11.24-1.56-1.75-2.81-3.34-2.14a1.21,1.21,0,0,0-2.14.1,3.49,3.49,0,0,1-.48,2.85c.28,1.56-1.12,4.19.15,5.11a2.36,2.36,0,0,1,.63-.29c-.19-1.65-.17-3.51,1-4.57a20.22,20.22,0,0,1,0-2.67c.53,1.05,2.84,1,2.87,2.32-.92,1.34-.45,3.75-1.62,4.16a2.1,2.1,0,0,0-2,.26C487.2,140.84,490.46,140.23,490.7,138.77Z"/><path class="cls-9" d="M492.48,135.77c-.15.52.49.54.33,1.06-1.12.61-.61,2.55-1,3.87,1.13.33,2.81.29,4.31.94.11-.31.52-.15.55-.58.08-1.56-2.46-.89-3.29-1.71.14-.62.22-1.35.62-1.56a2.69,2.69,0,0,0,1.7,0,2.57,2.57,0,0,0,.1-1.11,5,5,0,0,0-1.69-.65c.22-.68.22-1.7.61-2.12,1.46.23,3.37,1.17,3.63-.47-.1-.05-.13-.15-.08-.3-1.17-.84-3.17-1-4.81-1.2C492.54,133,493.11,134.35,492.48,135.77Z"/><path class="cls-9" d="M497.37,148.83c-.73,1-.63,2.44-1.88,2.13s-.83-1.81-.59-3.09l-.54-.12c-.92,1.49-.68,3.79,1.79,4.06C497.16,151.82,498.95,149.54,497.37,148.83Z"/><path class="cls-9" d="M501.66,147.94c.62.31,2.2,1.15,2.51.13C503.78,147.62,501.77,146.87,501.66,147.94Z"/><path class="cls-9" d="M482.83,145.08c.7-.17,1.41-.32,2.09-.53.47-.11,1.3.35,1.57-.08C485.82,143,482.12,143.38,482.83,145.08Z"/><path class="cls-9" d="M469.58,148.24c1,.32,2.53,0,3.69.53.66-.72,1.25.43,1.93-.42.85.63,1.61.38,2.59.43.8-1.36,0-2.6.65-4.23-.64-.59.47-2.31-.55-2.66-.45-.17-.54.23-.79.39-.06,1.6.14,3.58-.58,5.23-1.08.62-2.49-.4-3.78-.12,0-1.34.43-3,.21-4.18-.6-.27-.85,0-1.27,0-.12,1.27-.29,2.58-.42,3.86a6.26,6.26,0,0,1-3.46.37c0-1.85.41-4,.27-5.72-1.19-.53-1.22.75-1.7,1.32.88,1.25-.26,3.79.25,5.27A4.48,4.48,0,0,0,469.58,148.24Z"/><path class="cls-9" d="M485.19,151.66c-.13-.92-2.33-.51-2.51-1.4.71-1.19,2.63-1.42,2.76-2.92-.54-.24-.69.12-1.14,0-.89,1.31-2.54,1.45-3.11,3.27a2.36,2.36,0,0,1,.29.63C482.79,151.18,484.39,152.26,485.19,151.66Z"/><path class="cls-9" d="M496,118.63c-1-1.17-1.18-2.87-1.73-4.33-.82-.48-1.47-1.68-2.45-1.67a4.2,4.2,0,0,0-4.33,1.73,11,11,0,0,0-.37,2.32c.15.48.5.84.38,1.49a2.71,2.71,0,0,1,.8,2.15,4.62,4.62,0,0,1,1.11,2.64c2.16,2.29,6.83,2,7.06-2A5.78,5.78,0,0,1,496,118.63Zm-4.53,3.94a6.08,6.08,0,0,0-1.29-1.83c-.27-1.44-.69-2.79-1.06-4.18l.35-1.61a2.52,2.52,0,0,1,3-.19c.28,1.71,1.7,2.69,1.51,4.7a11.63,11.63,0,0,0,.47,1.09C494.24,122.6,493.13,123.43,491.43,122.57Z"/><path class="cls-9" d="M541.73,135.73c.13-.31.24-.61,0-.72C541.67,135.27,541.26,135.71,541.73,135.73Z"/><path class="cls-9" d="M590,161.7c-1-.74-2.5-.15-3.91-.44a30,30,0,0,1-6.26-2.22c-1-.47-2.22-.69-3.13-1.11-2.92-1.34-5.6-3.5-8.41-4,.09-.66-.65-.61-1.07-.87a10.21,10.21,0,0,0-1.28-.91c-.34-.12-.71.14-1.05,0-.71-.34-1.28-1-2-1.29-1.38-.61-3.27-1.11-4.5-1.62-.67.53-.78.91-.84,1.92a154.94,154.94,0,0,1,16,7.73c.3.55-.1.21-.33.56,5.58,1.16,10.6,4.3,16.57,4.26a4.45,4.45,0,0,1,1.77.6c2.86-.76,6.7,0,9.31-1.12,1.13.3,4.12.09,3.79-1.91-3.05-.5-5,.82-7.8,0C595,162.13,592.11,161.24,590,161.7Z"/><path class="cls-9" d="M599.72,180.06c-1.39-.11-2.55.43-4-.23a5.64,5.64,0,0,1-1.79.45c-4.46-.34-8.38-.08-12.78-1.33-3.79-1.07-6.91-3.39-10.42-4.39a3.71,3.71,0,0,0,4,3.83c-.32,1,1.1.79,1.39,1.36,1-.53,2.15,1,3.67.59.47.22.26.87,1.07.87,5.93,1.74,12.83,1.46,18.61.71C599.55,181.16,600.52,180.5,599.72,180.06Z"/><path class="cls-9" d="M600.88,154.59c-.63.35-.64-.74-1.28-.91a4.27,4.27,0,0,0-3,1.24c-.25-.47.07-.25.18-.8-2-.36-4.39-.58-6.14.13-.15-.08-.2-.22-.11-.45-2.11.35-3.8-1.69-5.32-.74-.4-.09-.14-.61-.72-.58-.26.14-.23.73-.74.47s-1.15-.64-1.19-1.31c-1.14.26-1.91-.72-2.68-1.22-.52-.18-.33.75-.94.43-.37-.11,0-.71-.23-.89-.58-.18-.72.32-1.3.14-.14-1-1.17-.39-1.39-1.36-.09.22-.29.26-.49.31.12-.8-.53-.59-1.07-.87-1-.52-1.93-2-3.45-1.6-.1-.86-1.63-.8-2.24-1.33-.51.11-.85.47-1.54.29.1-.55.42-.33.18-.8a30.87,30.87,0,0,1-5.57-2.49l-.74.47a1.81,1.81,0,0,0-2.21-.49c.13-.37-.13-.49,0-.85a7.67,7.67,0,0,0-2.3-.08q.35-.74-.47-.74c-.72-.13.28.76-.33.56-1.2-.69-1.38-.54-2.66-.37.28-.81-.82-.74-1.23-1.11-.35.45-1,.44-1.43.74,0-.9-1.73-1.09-2.53-1-.14.84.08,1.45,1.14,1.52.24-.61-.29-.93.42-1a1.18,1.18,0,0,1,.34,1.34c1.19.53,1.92-.08,2.73,1,.73-1.27,1.35.46,2.23-.56.52.41.82,1,1.63,1.2.12-.35,0-1.05.58-.72.12.39.58.55.63,1,.61.24.59-.52,1.3-.14-.15.38.18.46.27.69,2.18.19,5,2.54,7.36,2l-.18.8c1.78.12,3.9,2.5,5.55,1.64.6,1.4,2.56,2.26,3.78,1,.38.62-.42.94-.71,1.32.47.11.67-.22,1.25.06.34,1.89,4.11,1.8,5.08,2.8,2.4.32,2.54,1.22,5.14,1.55.32.05.27-.48.69-.27s.24.65.92.62l.74-.47c.26.5,2.08.62,1.19,1.31.69.16,2.17-1,2.3.08.61.32.53-.43.94-.43,2.39,1,3.79-.46,6.46.36a9.46,9.46,0,0,1,4.78-.64,3.19,3.19,0,0,0,.76-1.52C603.75,153.18,601.36,153.06,600.88,154.59Zm-38.66-11.22c.15-.27.17.06.4.09A.21.21,0,0,1,562.22,143.37Zm14.25,7.13c-.07-.65.53-.26.89-.23C577.24,150.62,576.92,150.66,576.47,150.5Zm4.81,2.11c.13-.25.42-.24.53-.52C582.3,152.29,581.66,152.88,581.28,152.61Zm8.2,2a.21.21,0,0,1,.4.09C589.68,154.79,589.47,154.87,589.49,154.62Z"/><path class="cls-9" d="M562.9,163.34a9.14,9.14,0,0,1,.83,1c1.68-.13,2.65,1.47,4.7,1.66a57.15,57.15,0,0,0,19.1,7.14c.45-.1.89-.24,1.34-.34a22.94,22.94,0,0,0,10-.34c.31-1.07.21-1.87-.56-2.23-.49.23-1.11.24-1.27,1,.33.16.58-.19.6.13a.91.91,0,0,1-.89.23c-.37-.11,0-.71-.23-.89-1.13.22-2.43.17-3.33.75.2-.88-.93-.06-1.57-.55-.51.19-1,.34-1.58.5-.4-.21-.46-.62-1.12-.67-1,.56-2.67-.3-3.87-.64-2.23.58-3.29-1.27-6.19-1.57-.31-.09,0-.55-.52-.53a28.48,28.48,0,0,1-8.05-3.66.56.56,0,0,1-.69.27c-1.33-1.79-5.09-2.18-6.4-3.51a24.71,24.71,0,0,1-4.21-2c-.4-.09-.38.49-.89.23-.26-1.44-2.44-.64-3.16-2-3.2.48-4.78-1.24-8-.92q-.16-.5-.92-.62c-.61-.14-.88.25-1.34.34a4.46,4.46,0,0,0-2.64-.51c.52-1.14,1-2.52,0-3.26-.38.36-.8.38-.67,1.12-.32.17-.17,0-.54-.12a8.17,8.17,0,0,0-.3,2.47,8.85,8.85,0,0,1-2.78.24c-.66.2.09,1.11-.47,1.16.36-.64-1.41-.81-1.57-.55.39.21.75.57.23.89a63.47,63.47,0,0,1,18.71,2.2c1.88,1,3.31,1.05,5.26,2-.09.92,1.84.55,1.79,1.45C562.12,163.39,562.32,163.06,562.9,163.34Zm-16-6-.4-.09a1,1,0,0,0,.33-.56c.21.1,0,.43.31.49C547.18,157.33,547.06,157.33,546.93,157.31Zm11.18,2.87-.4-.09.09-.4.4.09Z"/><path class="cls-9" d="M597.47,188.42c.23.08.58.09.56.33-1.32-.61-2.51-.47-4.31-.52a.57.57,0,0,1-.53.52,9,9,0,0,0-4.29.32c-6.9-.6-14.05-2.32-19.16-5.89a4.3,4.3,0,0,0-1.32,1.19c-.37,0-1-.42-.89.23.13,1,.71,0,1.41.31.78.54,1.21,1.3,2.15,1.74.95-.09,1.24.37,2.41.53,2.17,2.16,6.31,2.34,8.79,3.19.4,0,.6-.32,1.09-.18s.24.65.92.62c3.75.31,6-.15,9.5,0,.31-.14.51-.46.94-.43s.1.63.47.74c.71-.91,2.69-1.14,3.57-.9L599,189C598.75,188.74,598,187.95,597.47,188.42Z"/><path class="cls-9" d="M564.65,180.38c-1.56.2-2-.76-3.71-.39-.38-1-.92-1.72-.68-2.68.62-2.48,3-1.2,5.27-1,.27.73.68,1.76,1.79,1.45.22-3.27-3.43-2.74-5.55-3.54a8.62,8.62,0,0,1-2.08.81c-1.37,2.35-1.17,4.87,1,5.92.33.16,1.61.07,2.46.33,2,.6,3.16.22,3.91-1.46-.85,0-.47-.73-1.32-.71C565.21,179.28,565.28,180.38,564.65,180.38Z"/><path class="cls-9" d="M601.08,170a11.08,11.08,0,0,1-1.79.45l-.18.8c1,1.29,2.5.84,3.4-.1C601.93,170.87,601.66,170.35,601.08,170Z"/><path class="cls-9" d="M542,131.77c.62.84,1-.42,1.74-.25.73.82,1.49-.35,2,.64,4-1.64,7.69.26,11.91.5,1.72.74,2.52,1.36,4.43,1l-.13.6c.74.35.82-.33,1.34-.34-.37.58.21.56.23.89,10,3.85,18.19,11,29.68,11.78-.05.32-.18.69.27.69.12-1.08,1.43-.29,1.87-.85.42.72,1.63-.13,1.72.8.3-.61,1.25-.2,1.63-.7,2.26.45,5.85-.46,8-.13.26-1.49-.5-2.33-1.93-2.74a30.75,30.75,0,0,1-8.62.85c-.34,0-.65-.39-1-.42-.5,0-1,.33-1.54.29s-1.71-.4-2.62-.57a22.26,22.26,0,0,1-3.82-.84c-.19-.08-.23-.46-.31-.49-1.28-.41-2.85-.21-3.94-1.28-.32,0-.57.19-.89.23a5.65,5.65,0,0,0-1.43-1.16c-.63-.26-1-.07-1.45-.11-1.33-1.28-3.57-2-5.73-2.73-.48-1.13-2.34-1.38-3.31-2.2-2.56-.07-4.09-3.34-6.62-2.51-.11-.39-.53-.58-1.12-.67-.59-.29-.51.47-1.09.18s-.86-.83-1.43-1.16a48,48,0,0,0-14-1.59,1.69,1.69,0,0,1-2.63.48c-.29.59.47.51.18,1.09C542.61,130.76,542.1,131,542,131.77Zm8.67-1.05c-.77.61-.54-.76,0,0Z"/><path class="cls-9" d="M542.34,130.16l-.4-.09-.09.4.4.09Z"/><path class="cls-9" d="M551,175.08c-.92-1-2.42-1-3.94-1.28-.49,0-.53.62-1.14.38-.06-1-2.49-1.28-3.17-.91-2.48-1-5.31-.37-7.78-1.07a1.58,1.58,0,0,1-1.67.9c-.38.7.37.68.14,1.3.48,0,1-.24,1,.42,0,0,0,0,0,0,.85-.37,2.48.47,2.87-.62.65.6.86.46,2,.64.51-.19-.15-.55.33-.56.57.81,1-.2,1.7,0-.08.23-.46.38-.13.6,1.79.14,3.26.7,5.36.54.11.33.16.7.67.78,2.18.45,3.11,1,5,1.1a11.1,11.1,0,0,0,1.68,1,2.52,2.52,0,0,1,2.23-.56C555.85,175.54,553.35,175.83,551,175.08Z"/><path class="cls-9" d="M546.43,153.83c.37-.41,1.23-.06,1.74-.25a11,11,0,0,1,.64-3.87c-.24-.37-.77-.55-.83-1,.5,0,.36.46,1,.42-.47-1.48,1.17-2.84.57-4.51-.48.29-.22.72-.26,1.21-.53-.29-.58.17-1.05,0,.22-.47.87-.26.87-1.07-.26-.12-.32-.37-.76-.38-.14,1.14-1.45,1.87-1.06,2.93.19-.54.7-.21.8.18a1.88,1.88,0,0,1-1,.83c-.27.52.31.49.23.89-1.84.34-.27,2.84-1.69,3.85C546,153.17,545.78,153.78,546.43,153.83Z"/><path class="cls-9" d="M551,165.79a3.29,3.29,0,0,0-3.42-.75c-2.59-1.55-5.21-.77-8.24-1.39.07-.27.14-.56.26-.91.4-1.13,1.37-2,1.08-3-.53-.28-.36.51-.69.55-.12-.16.07-.51-.31-.49-.58.11-.95.57-1.45.81-1.13-.42-2.27.66-2.89,1.62a1.63,1.63,0,0,1-.09,1.67c0,.32.27.47.45.67s.09.34,0,.36c-.18-.13-.21-.35-.42-.46s-.22-.45-.75-.4a1.48,1.48,0,0,1-.2.91l-.12,0c-.28.53-.7.83-1,1.33a3,3,0,0,0-.13,1.24c-.73.61-1.27,1.51-2.22,1.77-.54,1.17-1.8,1.89-1.95,3.1a3.52,3.52,0,0,0-1.32,1.52l-.16-.06a.55.55,0,0,0-.06.45h0a10.57,10.57,0,0,0-2.67,2.52,11.13,11.13,0,0,0-4.29,2.87c-2.65.92-5.16,2.06-7.83,2.94-3.33.76-6.91,1.13-10.27,1.84a5,5,0,0,0-1.48-.32c-.43,0-.49.56-1,.5-1.58-1.05-4.29-.36-6.19-1.36-.3,0-.46.25-.87.09-1.93-.57-3.88-.66-5.26-1.72-4.18-.87-6.05-3.22-9.26-4.71-.6-.81-1.69-1.31-2.2-2.17-.44-.07-.52-.36-1-.37a47.87,47.87,0,0,0-4.84-5.57c-.07-.38-.38-.61-.33-1.06-1.24-.67-1.26-2.12-2.32-2.91a60.72,60.72,0,0,1-2.8-6.54c-.1-1.49-.75-2.45-1-3.75-.16-.79-.3-1.65-.44-2.49a30.93,30.93,0,0,1-.51-4.76c0-1.08,0-2.31,0-3.38a29.62,29.62,0,0,1,.44-4.56c.64-3,1.69-5.34,2.17-8,1.22-1.1,1.41-2.78,2.18-4.17a22.7,22.7,0,0,1,1.52-1.78c.71-1,1-2.26,2.05-2.93,0-.52.36-.53.37-1a39.6,39.6,0,0,0,4.3-4.84c1.49-1.16,3.15-2.06,4.55-3.37a5,5,0,0,0,2.46-1.58c3.58-1.39,6.6-3.67,11.09-3.63,2-.9,4.67-.65,6.88-1.17a27.89,27.89,0,0,0,5.66.54c1.43.2,2.43.83,3.53.63,2.06,1.1,4.37,1,6.21,1.92.51.27.83.77,1.33,1s.83.13,1.21.27c2.76,1,4.32,3.33,6.78,4.45.49.69,1,1.38,1.53,2a1.39,1.39,0,0,0,1,.51c.5,1.22,2.12,1.72,2.26,3.18,2.18,1.57,3,4,4.45,6.05.15,1.8,1.19,3,1.67,4.6,0,1.63.8,2.73,1.06,4.18-.55,1.86.45,2.72.82,4-.12,1,.29,1.59.14,2.57.27.25.71.39,1,.64-.11,1.07.67,1.58.38,2.76a4.16,4.16,0,0,1,1.36.86,5.51,5.51,0,0,1-.13,2.51c-.25.21-.77,0-.82.53s.46.63.3,1.19a1.74,1.74,0,0,1,1.88.41,6.17,6.17,0,0,0,.59-1.42c-.34-1.35.15-2.9.39-5-.89-1.55,0-4.25-1.66-5.3.73-.48-.12-.9-.24-1.46.47-.14.3-.59.37-1s-.65-.43-.66-.85c.24-.39.08-.3.18-.81a14.5,14.5,0,0,1-1-2.34,5.21,5.21,0,0,1-.82-.74,17.45,17.45,0,0,0-3.38-5.82c.28-.52-.17-.59-.06-1-.47-.35-.71-.86-1.14-1.24-.44-1.41-1.59-2.38-2.15-3.71-2.41-2.12-3.83-4.87-6.88-6.58-.2-.49-.7-.79-1-1.21-.44-.07-.52-.36-1-.37a11,11,0,0,0-4.62-2.71c-5.1-3-12.5-5.17-18.72-4.67l-1.21-.27c-1.67.47-3.91,0-5.39.79-1.62-.17-2.44.64-3.75,1s-2.8.51-3.67,1.31c-.52,0-.77.36-1.33.27a64.12,64.12,0,0,1-5.65,3.27,15.86,15.86,0,0,1-3.37,2.5c-.07.43-.46.37-.48.88-.65.24-1.12.78-1.77,1-.38,1.08-1.55,1.53-2.2,2.34-.47.57-.68,1.45-1.14,2-.22.26-.63.43-.85.66a12.08,12.08,0,0,0-2.42,4c-.47.1-.54.84-.94,1.06-.39,1.67-1.77,3.35-1.5,4.89-2.31,4.27-2.61,9.62-3.45,14.47a6.38,6.38,0,0,1,.41,1.36c-.19,4.17.85,7.55,1.66,11.08l.63,1c.49,2.92,2.19,5.07,3.1,7.73.36.15.5.45.85.61-.05.65.66.81.51,1.52.76.36.95,1.09,1.32,1.7,2,1.6,3,3.84,5.5,5.15a4.29,4.29,0,0,0,.74,1.15l.94.21c1.58,1.92,3.87,2.76,6.57,4.12a31.88,31.88,0,0,0,4.07,2,65.46,65.46,0,0,0,11.63,2.27c.36,0,.61-.25,1-.2l.94.21c1.73-.32,3.86,0,5.78,0a14.78,14.78,0,0,1,1.52-.51c.44.21.56-.09,1,.07,2.1-.52,4.09-1.2,6.27-1.59a17.94,17.94,0,0,1,3.43-1.5c.37-.44.95-.57,1.24-1.14,3.05-1.13,5.21-3.66,8.14-5,.44-.87,1.21-1.23,1.71-2,2.73-.68,4-3.56,6.09-5.29l.21-.94c.54-.17,1-.85,1.44-1.53,2-.15,4.43.36,6.27,0a1.68,1.68,0,0,0,1.12.67c3.19.17,7.36,1.58,10.06,2.21,0,.79,1.56.62,2.33.93a19.39,19.39,0,0,0,.84-1.92C556.36,167.17,553,165,551,165.79Z"/><path class="cls-9" d="M542.62,132.75c.25.07.22.32.56.33a.57.57,0,0,0-.27-.69C542.86,132.59,542.69,132.59,542.62,132.75Z"/><path class="cls-9" d="M549.8,144.23c.11-1.23.46-2.6-1.08-2.77a5.5,5.5,0,0,0-1,2.53C548.42,144.39,548.92,144,549.8,144.23Z"/><path class="cls-9" d="M547,140.47c0-.5.46-.36.42-1-.37-.17-.24-.65-.92-.62-.7.43-1.93.05-2.48.72.11-.36-.1-.51-.52-.53-.57.83.65.51.63,1a1.46,1.46,0,0,0-.69.27c.48.76.49-.61,1.3-.14-.14.49.18.69.18,1.09.57,0,1.54.61,1.86.2-.3-.38-1.35-.29-.79-1.23-.36-.17-1.27,0-.92-.62A8.87,8.87,0,0,1,547,140.47Z"/><path class="cls-9" d="M542.12,139.81c.15.08.2.22.11.45l.4.09c0-.2.22-.2.29-.36C542.82,139.9,542.26,139.32,542.12,139.81Z"/><polygon class="cls-10" points="548.12 251.22 213.28 261.06 209.63 264.09 213.04 380.31 547.88 370.47 551.54 367.44 548.12 251.22"/><rect class="cls-11" x="214.97" y="250.22" width="334.99" height="116.27" transform="translate(-8.89 11.37) rotate(-1.68)"/><polygon class="cls-12" points="209.68 258.2 213.34 255.17 216.75 371.38 213.09 374.42 209.68 258.2"/><polygon class="cls-11" points="544.52 248.36 548.18 245.33 551.59 361.55 547.94 364.58 544.52 248.36"/><polygon class="cls-12" points="544.52 248.36 548.18 245.33 551.59 361.55 547.94 364.58 544.52 248.36"/><polygon class="cls-13" points="213.34 255.17 213.42 258.09 544.52 248.36 548.18 245.33 213.34 255.17"/><polygon class="cls-11" points="213.09 374.42 214.88 371.44 551.59 361.55 547.94 364.58 213.09 374.42"/><polygon class="cls-13" points="213.09 374.42 214.88 371.44 551.59 361.55 547.94 364.58 213.09 374.42"/><g class="cls-14"><path class="cls-10" d="M617.83,338.05c-18.44-40.94-41.29-68-62.15-93.16a1.62,1.62,0,0,0-1.43-.92c-.93.09-1.62-3.52-3.06-3.5h0a4.56,4.56,0,0,0-.84-.71c-2.18-1.43-2.13-2.56-22.44-2.15s-42,4.38-57.85,8.79-27.68,13.38-29,14.09a21.51,21.51,0,0,1-8.27,2.67c-3.5.19-11.25,2.73-11.25,2.73s-7.9.47-10.22,1.52-5.51.65-8.31.17-16.45-2.2-34.69.71S326.8,278,316,282.68a26.37,26.37,0,0,0-5,2.79,76.46,76.46,0,0,0-12.88-1.23c-7.44-.27-33.31-1.38-37.57-.46s-26.53,5.93-37.58,7-17,10.25-18.2,13.55c-.13.37-.49,1.21-1,2.38-4.13,9.35-19.15,41.2-22.53,46.51-3.81,6-12.73,18.28-10.36,25.8s9.45,96.82,9,106.12-61.44,133.25-61.44,133.25l98.41,9.2c8.13-23.8,21.43-95.78,26-102s26.09-28,34.74-44.89c7.72-15,11.91-51.3,15.4-66.31,3.57,3.83,9.05,9,14.07,10.91,4.32,1.64,9.08.7,12.72-.77,7.62,18.7,15,35,18.43,39.83,3.58,5.13,29.33,45.32,42.74,65.38s26.66,32.46,32.57,36.88,9.92,1,8.78-1.86-7.16-13.41-13.49-19.58-44.13-50.06-66.3-88.86a303.12,303.12,0,0,1-17-35.24,1.28,1.28,0,0,0,.3-.45c.32-1.22-.68-3.54-3-6.36-1.52-3.91-2.95-7.78-4.3-11.58,4.16,1.29,8.76,2.2,12.36,1.57,8.75-1.54,10.76-9.63,10.53-10.63s-7.58-4.23-11.22-6.48c-2.47-1.52-11.65-7.45-17.28-11.09l1.73-3c4.84,2.7,12.51,6.37,19.67,7.19a16.82,16.82,0,0,0,17.74-10.34c.85-2.45-5.94-5.36-9.05-6.59-1.92-.75-11.05-5.1-18.47-8.78,1.41-2.92,2.61-5.63,3.52-8,.33-.86.62-1.71.89-2.55a19.25,19.25,0,0,0,5.45,1.78c10.53,1.63,38.41-6.09,49-9.39s23.28-10.48,28.09-16.73,7.56-10.54,7.77-21.31S416.6,282,425,278.9a6.84,6.84,0,0,1,6.74-.17c4,1.85,4.21,4.34,5.42,7.37s6.2,13,11.54,18.93,9.9,10.12,19.31,9.13,28.38-4.78,41.27-8.45,16.89-7.61,22.05-15.88,10.18-27.88,11.45-30.29a4.19,4.19,0,0,1,2-2.09c1.65,1.67,4.4,4,7.14,4.24,0,0,37.23,41.53,48.35,64.42s23.39,43.54,23.63,71.33-14.59,81.7-14.83,86.63,1.32,10.3,4.32,9.5S622,467.08,622,467.08s8.15-36.81,8.79-48.38S636.26,379,617.83,338.05ZM300.71,320.84c.12-.92.2-1.56.2-1.56a9.09,9.09,0,0,0,4.78-3.72l.23.71A40.51,40.51,0,0,0,300.71,320.84Zm-1.49-15.2h0a.57.57,0,0,1-.46.06l.46-.06ZM270,307.1c3-1.06,9.24.28,21.12-.59h0c.09,5,.7,13.73,1.8,23.67-1.52,2-2.91,3.93-4.16,5.57-5.07-2.59-9.32-4.71-11-5.44-4.94-2.21-7.36-.62-14.22.41-5.23.78-22.81,4.22-30.89,5.82,2.76-11.19,5.18-20.87,5.76-21,1-.16,15.79-4,24.91-6.54C266.53,308.15,269,307.43,270,307.1Zm40.77,94.61-3.41-3.5s1,.5,2.56,1.22Zm96.91-101.87c-2.7,12.36-6.11,22.62-12.82,26.8s-26.57,10-33.23,11.52-22,3.76-27.82,1.37a20.77,20.77,0,0,1-3.41-1.83c2.52-13.47-2.29-23.09-12.4-24.93a12.49,12.49,0,0,0-5.3.21,34,34,0,0,1-1.8-11.16c4.07-2.58,5.73-5.89,6.18-8.69,9.35-5.28,30-12.92,43.12-15.68,14.5-3,26-3.64,30.92-3.14,6,.61,12.92.47,16.26,4.68C408.75,280.73,410.35,287.47,407.65,299.83Zm121.23-18c-7.2,13.75-6.64,15-26.17,21.33S468,309.68,464.09,309s-9.64-5.35-13.59-13.16c-2.23-4.42-7.16-20-6.09-23.92s5.93-9.31,22.63-16a148.07,148.07,0,0,1,35-9.34c13.35-1.64,29.63-1,31.25,4C535.68,257.64,535.41,269.35,528.88,281.83Z"/></g><path class="cls-10" d="M349.88,62.41,28.5,156.9l32.8,111.55h8.07L390.75,174,358,62.41h-8.07"/><rect class="cls-11" x="32.87" y="103.35" width="334.99" height="116.27" transform="translate(-37.41 63.07) rotate(-16.38)"/><polygon class="cls-11" points="344.65 58.47 344.65 58.47 377.45 170.01 385.52 170.01 352.73 58.47 344.65 58.47"/><g class="cls-15"><polygon class="cls-16" points="344.65 58.47 344.65 58.47 377.45 170.01 385.52 170.01 352.73 58.47 344.65 58.47"/></g><path class="cls-17" d="M156.34,174.61c-.8,1.61-2.72,2-4.28,2.42l1.31,4.46-2.35.69-3.54-12.06,3.51-1a4.56,4.56,0,0,1,3.45,0,4,4,0,0,1,2.08,2.55A4.13,4.13,0,0,1,156.34,174.61Zm-3.27-3.5a3,3,0,0,0-1.83.13l-.81.24,1,3.51,1-.28c1.17-.34,2.08-1,1.68-2.38A1.86,1.86,0,0,0,153.07,171.12Z"/><path class="cls-17" d="M167.94,177.21l-4.68-3.89-.29.08,1.42,4.85-2.35.69-3.55-12.06,3.49-1a5.22,5.22,0,0,1,3.33,0,3.66,3.66,0,0,1,2,2.36,4.13,4.13,0,0,1,0,2.41,3.23,3.23,0,0,1-1.71,1.8l5.29,4Zm-5.82-9.31-.71.21,1.07,3.63.67-.2c1.21-.36,2.19-1.11,1.78-2.51S163.33,167.55,162.12,167.9Z"/><path class="cls-17" d="M179.5,174.11a6.52,6.52,0,0,1-8.28-4.38,6.72,6.72,0,1,1,8.28,4.38Zm-3.07-10.45a4.34,4.34,0,1,0,5.25,3A4.26,4.26,0,0,0,176.43,163.66Z"/><path class="cls-17" d="M190,159.85l2.94,10-2.35.69-2.94-10-2.69.79-.6-2L192.1,157l.6,2Z"/><path class="cls-17" d="M204.17,166.86a6.57,6.57,0,1,1,4.6-8.19A6.52,6.52,0,0,1,204.17,166.86Zm-3.07-10.45a4.34,4.34,0,1,0,5.25,3A4.26,4.26,0,0,0,201.1,156.41Z"/><path class="cls-17" d="M214.65,152.6l2.94,10-2.35.69-2.94-10-2.69.79-.6-2,7.76-2.28.6,2Z"/><path class="cls-17" d="M227.33,153.76l1.62,5.51-2.35.69L225,154.45l-6.06-5.33,2.77-.81,3.84,3.43,1.33-4.95,2.8-.82Z"/><path class="cls-17" d="M241.16,149.67c-.8,1.61-2.72,2-4.28,2.42l1.31,4.46-2.35.69-3.55-12.06,3.51-1a4.56,4.56,0,0,1,3.45,0,4,4,0,0,1,2.09,2.55A4.12,4.12,0,0,1,241.16,149.67Zm-3.27-3.5a3,3,0,0,0-1.83.13l-.81.24,1,3.51,1-.28c1.17-.34,2.08-1,1.68-2.38A1.86,1.86,0,0,0,237.89,146.18Z"/><path class="cls-17" d="M246.87,154l-3.54-12.06,6.67-2,.6,2-4.32,1.27.79,2.67,4.16-1.22.6,2L247.66,148l1,3.25,4.32-1.27.6,2Z"/><polygon class="cls-11" points="56.07 264.5 56.07 264.5 64.14 264.5 385.52 170.01 377.45 170.01 56.07 264.5"/><g class="cls-18"><polygon class="cls-16" points="56.07 264.5 56.07 264.5 64.14 264.5 385.52 170.01 377.45 170.01 56.07 264.5"/></g><path class="cls-19" d="M220.3,321.06s28.09-6.93,34.94-8.27,9.24-3.07,14.21-1,34.08,16.4,37,18.25,25.18,12,28.3,13.13,9.94,3.87,9.11,6.43-6,12.3-17.63,11.39-24.7-9.52-24.7-9.52l-1.29,3.26s18.28,11.42,21.94,13.59,11,5.21,11.28,6.23S331.8,384,323.07,386s-23.43-5.29-23.43-5.29,11.49,11.58,14.53,14.87,4.36,6.09,4,7.52-10.3,8.52-18.69,5.58-18.12-15.16-18.12-15.16-18.12,2.28-27.8,2.75-43.09-7.68-48.39-15.54S220.3,321.06,220.3,321.06Z"/><path class="cls-20" d="M536,223.06s4.41,5.57,8.74,5.81c0,0,37.6,41.36,48.94,64.53s23.8,44,24.3,72.66-13.8,84.92-14,90,1.42,10.58,4.4,9.63,8.45-27.7,8.45-27.7,7.79-38.32,8.32-50.29,5.07-41.2-13.75-82.71-41.92-68.53-63-93.64c0,0-.51-1-1.44-.89s-1.65-3.57-3.1-3.48S536,223.06,536,223.06Z"/><path class="cls-17" d="M543,206.3c-2.19-1.39-2.15-2.56-22.45-1.31s-41.9,6.22-57.74,11.42-27.54,14.94-28.89,15.72a21.68,21.68,0,0,1-8.24,3.09c-3.49.33-11.22,3.27-11.22,3.27s-7.89.81-10.2,2-5.5.9-8.31.51-16.46-1.6-34.66,2.14-41.33,11.73-52.13,17-11.65,13.18-11.65,13.18c-2.7,2.51-.24,19.24,4.6,28.21s15.37,21.64,25.91,22.89,38.33-7.85,48.87-11.67,23.16-11.76,27.92-18.41,7.45-11.18,7.56-22.31-2.62-16.72,5.7-20.21a6.72,6.72,0,0,1,6.74-.45c4,1.75,4.25,4.31,5.49,7.39s6.32,13.2,11.72,19.07,10,10,19.39,8.64,28.32-6.08,41.17-10.39,16.81-8.53,21.89-17.28,9.91-29.19,11.16-31.73,2.33-2.13,3.21-3,5.18-11,5.66-12.65S545.18,207.69,543,206.3ZM401,274.07c-2.58,12.87-5.89,23.6-12.56,28.18s-26.46,11.36-33.1,13.24-22,4.77-27.79,2.55-13-9.24-17.3-16.94-8.6-21.93-4.05-27.07,31.3-17,47.13-21.13c14.47-3.73,26-4.82,30.88-4.5,6,.39,12.92,0,16.3,4.17C401.87,254.31,403.54,261.2,401,274.07Zm121-23.49c-7.06,14.48-6.49,15.8-26,23.08s-34.64,8.14-38.54,7.56-9.69-5.13-13.71-13c-2.28-4.47-7.35-20.39-6.31-24.44s5.83-9.85,22.46-17.43c8.34-3.81,21.59-8.83,34.92-11.06s29.6-2.19,31.27,2.82C528.51,225.34,528.35,237.44,521.94,250.58Z"/><g class="cls-21"><path class="cls-22" d="M230,298.17c1-.2,15.75-4.79,24.83-7.76H195.19c-4,9.81-18.74,43.3-22.07,48.92-3.75,6.33-12.55,19.38-10.11,27s10.37,99.55,10,109.17-60.13,140-60.13,140l98.44,5.51c7.89-24.9,20.5-99.72,25-106.33s25.81-30,34.3-47.74,12.28-62.87,16-73.72,26.55-48.06,33.14-66.87,2-32.58-10.23-34.37-23,16.52-29.51,25.63-14.76,36.58-18.31,44.19-21.49,27.25-26.36,27.7-18.46-15-21.65-18.67-.75-10.7,2.06-16.08S228.66,298.44,230,298.17Z"/></g><path class="cls-20" d="M418,546.91c-1.17-2.89-7.29-13.55-13.68-19.67s-44.58-49.88-67.12-89c-25.09-43.59-37.64-96.84-41.79-112.76a57.42,57.42,0,0,1-1.79-19.25c.18-2.36.82-7.74.82-7.74,5.2-2.34,5.37-5.89,5.37-5.89l-1.44-10.28c-1.9,1.37-4.76,1.46-5.76,2.17-1.16.82-3.36-4-8.12,1.22.32,11.71,3.53,44,9.15,63.88C301.89,378.7,326,436.79,333,446.69c3.63,5.15,29.74,45.59,43.34,65.75s27,32.42,32.9,36.75S419.18,549.81,418,546.91Z"/><path class="cls-22" d="M261.42,288.15c3.62-1.47,11.94.49,29.21-2.68S309.3,272,308.18,267.75s-11.46-4.35-18.9-4.33-33.3-.07-37.55,1-26.46,7.19-37.49,8.73-16.92,11.27-18.06,14.72c-.13.38-.47,1.26-1,2.49H254.8C258,289.37,260.48,288.53,261.42,288.15Z"/></g></g></svg>