<svg xmlns="http://www.w3.org/2000/svg" xmlns:xlink="http://www.w3.org/1999/xlink" viewBox="0 0 728 550.34"><defs><style>.cls-1{fill:none;}.cls-2{isolation:isolate;}.cls-3{fill:#eae9f5;}.cls-4{fill:#e1e0ec;}.cls-5,.cls-6{fill:#f5f5f7;}.cls-5{opacity:0.82;}.cls-7{fill:#fff;}.cls-8{clip-path:url(#clip-path);}.cls-9{clip-path:url(#clip-path-2);}.cls-10{fill:#080051;}.cls-11{fill:#040021;}.cls-12{fill:#89745d;}.cls-13{fill:#bbb4ff;}.cls-14{fill:#5e4c3b;}.cls-15,.cls-16{fill:#eae9ee;}.cls-16{mix-blend-mode:multiply;}.cls-17{fill:#65f;}.cls-18{fill:#f5f0e9;}</style><clipPath id="clip-path"><path class="cls-1" d="M477.13,262.43c22.21,20.79,38.12,30.67,67,44.43,22.81,10.86,73.38,13.23,98.35,19,37.87,8.73,73.18,34.35,79.58,61,7.67,31.86-4.34,68.4-37.14,94.25-20.64,16.27-69.86,36.44-97.73,43.1-83.18,19.86-166,27.63-275.59,24.49-97.43-2.8-200.39-22.23-270.29-83.8C16.49,442.93-4.24,412.5,2.28,381.62c9.62-45.55,73.09-71,78.15-117.13C83,241.4,69.7,219.31,67.62,196.18c-2.93-32.53,17.49-64.5,46.85-83.41s66.35-26.07,102.36-26,73.24,18,105.51,41.39C340.45,141.33,436.3,224.2,477.13,262.43Z"/></clipPath><clipPath id="clip-path-2"><path class="cls-1" d="M722.1,386.81c-5.21-21.64-29.54-42.62-58.82-54.4V51.77H93.11v78.76c-17.24,18.32-27.63,41.83-25.49,65.66C69.7,219.31,83,241.4,80.43,264.49,75.37,310.63,11.9,336.07,2.28,381.62c-6.52,30.88,14.21,61.31,39.09,83.23,69.89,61.57,172.86,81,270.29,83.8,109.62,3.15,192.41-4.63,275.59-24.49,27.86-6.65,77.09-26.83,97.73-43.1C717.76,455.2,729.77,418.66,722.1,386.81Z"/></clipPath></defs><title>How-It-Works-v4</title><g class="cls-2"><g id="BG"><path class="cls-3" d="M477.13,262.43c22.21,20.79,38.12,30.67,67,44.43,22.81,10.86,73.38,13.23,98.35,19,37.87,8.73,73.18,34.35,79.58,61,7.67,31.86-4.34,68.4-37.14,94.25-20.64,16.27-69.86,36.44-97.73,43.1-83.18,19.86-166,27.63-275.59,24.49-97.43-2.8-200.39-22.23-270.29-83.8C16.49,442.93-4.24,412.5,2.28,381.62c9.62-45.55,73.09-71,78.15-117.13C83,241.4,69.7,219.31,67.62,196.18c-2.93-32.53,17.49-64.5,46.85-83.41s66.35-26.07,102.36-26,73.24,18,105.51,41.39C340.45,141.33,436.3,224.2,477.13,262.43Z"/><path class="cls-4" d="M57.67,456.2l0-2c3-.07,302.44-6.69,616.18-6.69v2C360.09,449.51,60.66,456.14,57.67,456.2Z"/><path class="cls-4" d="M628.34,371.1s-2.4-5.08-6.6-15.3-1.45-11.32,3.3-19.49.52-19-1-29.39.18-24.44,9.24-32.35,25.51-23,38.27-11.08,23.06,20.94,15.21,29.93-22.08,8.86-18.15,24.38,13.74,20.92,1.47,28.77-23.55,16.07-23.55,16.07Z"/><path class="cls-4" d="M630.34,467.58a281.74,281.74,0,0,0-4.84-32.24c-4-20.09,1.6-62.57,1.85-64.37l2,.27c-.06.44-5.82,44-1.87,63.71a284,284,0,0,1,4.87,32.5Z"/><path class="cls-5" d="M631.34,366.12h-.15a1,1,0,0,1-.84-1.14c.4-2.63,10-64.57,18-75.15a1,1,0,0,1,1.59,1.21c-7.71,10.18-17.49,73.6-17.58,74.24A1,1,0,0,1,631.34,366.12Z"/><path class="cls-4" d="M643.26,415.88s-2.79-8.29,2.47-20.45,6.92-5.29,15.77-17.29,16.58-20.22,25.42-24.67,29.84-8.81,28.74,0-5,32.51-16,37.24-15.07,7.3-20.52,13.75S649.89,408.7,643.26,415.88Z"/><path class="cls-5" d="M645.17,412.45a1,1,0,0,1-.29,0,1,1,0,0,1-.67-1.25c2.13-7.09,9-15,20.33-23.39a149.94,149.94,0,0,1,16.37-10.51,1,1,0,0,1,.94,1.76c-.31.17-30.93,16.72-35.73,32.71A1,1,0,0,1,645.17,412.45Z"/><path class="cls-4" d="M632.34,459.85l-2,0c.32-33,11.74-44.21,12.23-44.68l1.38,1.45C643.83,416.71,632.65,427.81,632.34,459.85Z"/><path class="cls-4" d="M619.68,419.31c2.12-4.74-1.05-13-7.4-16.62s-15.72-10.28-20.56-9.68-16.33.23-20.56,1.78-5.14,4.52,3.93,11.35,8.85,6.83,18.79,6.53,12.66-2,16.89,3.21S619.68,419.31,619.68,419.31Z"/><path class="cls-5" d="M619.68,420.31a1,1,0,0,1-.88-.52c-.08-.14-7.89-14.06-17.83-15.2a1,1,0,1,1,.23-2c11,1.25,19,15.61,19.35,16.22a1,1,0,0,1-.87,1.48Z"/><path class="cls-4" d="M627.61,446.73c-2.7-13.06-8.78-26.88-8.84-27l1.83-.81c.06.14,6.22,14.15,9,27.42Z"/><polygon class="cls-6" points="624.38 441.55 632.79 441.55 654.47 441.55 654.47 450.61 649.62 487.83 632.79 487.83 624.38 487.83 607.55 487.83 602.7 450.61 602.7 441.55 624.38 441.55"/><rect class="cls-3" x="610.39" y="450.86" width="40.43" height="2"/><polygon class="cls-4" points="463.28 423.17 430.25 498.15 425.64 498.2 453.22 422.84 463.28 423.17"/><polygon class="cls-4" points="524.12 424.83 525.46 514.39 520.24 514.45 512.09 424.5 524.12 424.83"/><polygon class="cls-4" points="555.8 424.31 574.72 495.84 568.89 495.9 544.17 425.18 555.8 424.31"/><path class="cls-3" d="M446.23,422.5c-2.07-.06-4.22-.12-6.69-.1-13.88.15-32.89.37-40.12-13.27S386.3,382.6,388.63,364.9c1.21-9.19,6.2-18.44,13.69-25.39A47.07,47.07,0,0,1,432.07,327c.52,0,1,0,1.54,0,25.1-.28,33.51,22.46,36.31,30a147.94,147.94,0,0,1,4.71,14.5c1.45,6.08,2.45,4.4,2.45,4.4,5.57-2.66,5.24-10.75,3-33.48-2.44-25-2.13-31.12-2-40.35s2.6-23.21,6.94-32.92c11-24.73,34.79-42,62.51-42.28,38.6-.43,70.27,32.15,70.72,72.77,0,0,1.35,30.09-15.23,66.21C587.77,399,584.86,400.4,582.32,404S565,424,549.73,424.65c-20.38.91-101.08-2-101.08-2Z"/><path class="cls-4" d="M548.28,226.87c38.26,0,69.52,32.42,70,72.78,0,0,1.35,30.09-15.23,66.21C587.77,399,584.86,400.4,582.32,404S565,424,549.73,424.65c-2.78.12-6.7.18-11.37.18-29.55,0-89.71-2.15-89.71-2.15l-2.42-.18c-1.73-.05-3.51-.1-5.49-.1h-1.2c-1.52,0-3.1,0-4.72,0-13.18,0-29-1.16-35.4-13.3-7.28-13.73-13.12-26.53-10.79-44.24,1.21-9.19,6.2-18.44,13.69-25.39A47.07,47.07,0,0,1,432.07,327c.52,0,1,0,1.54,0h.46c24.75,0,33.07,22.5,35.85,30a148,148,0,0,1,4.71,14.5c.94,3.92,1.68,4.61,2.09,4.61a.45.45,0,0,0,.35-.21c5.57-2.66,5.24-10.75,3-33.48-2.44-25-2.13-31.12-2-40.35s2.6-23.21,6.94-32.92c11-24.73,34.79-42,62.51-42.28h.75m0-2h-.78a69.16,69.16,0,0,0-38.62,12.33,74.66,74.66,0,0,0-25.69,31.13c-4.73,10.61-7,24.91-7.11,33.71l0,2c-.12,8.23-.22,15.33,2.05,38.52,1.89,19.34,2.37,27.87-.85,30.79a24.18,24.18,0,0,1-.67-2.37,150.84,150.84,0,0,0-4.78-14.73c-2.87-7.75-11.59-31.34-37.73-31.34h-.48c-.53,0-1.07,0-1.62,0a49.07,49.07,0,0,0-31,13c-7.82,7.26-13,17-14.31,26.6-2.4,18.29,3.56,31.4,11,45.43,6.71,12.66,22.56,14.37,37.17,14.37,1.63,0,3.22,0,4.74,0h1.18c1.93,0,3.69.05,5.39.1l2.37.18h.08c.6,0,60.54,2.15,89.79,2.15,4.93,0,8.78-.06,11.46-.18,16.12-.72,31.25-17.39,34.13-21.48.33-.47.68-.92,1.09-1.43,2.64-3.34,6.64-8.4,19.79-37,16.46-35.86,15.48-65.41,15.41-67.1a77.1,77.1,0,0,0-21.36-52.85,69.81,69.81,0,0,0-50.6-21.87Z"/><path class="cls-6" d="M590.49,359.4A37.83,37.83,0,0,0,561.74,333c-20.57-4.42-39-.38-52.72,24s-14.9,42.23-35.58,56.43c-15.25,10.47-20.3,7.87-33.89,8s-32.28.36-39.22-12.73-13-25.76-10.68-43.63,19.14-35.89,42.49-37,32.47,17.48,36.85,29.32,6.87,23.39,8.61,23.75,8.95-7.21,8.08-15.84-3.18-27.24-4.1-40.67-4.53-44.31,14-68.53,46.52-31.05,67.33-24.75S602.41,258,605.73,280,608.36,325.69,590.49,359.4Z"/><path class="cls-4" d="M436.39,378.13l62.3.76c-6,13.72-11.09,24.93-25,34.47h0L436,412.9a17.32,17.32,0,0,1-17.06-17.48v-.23A17.32,17.32,0,0,1,436.39,378.13Z"/><circle class="cls-7" cx="442.99" cy="217.25" r="33.19"/><path class="cls-7" d="M409.8,217.25A33.19,33.19,0,1,0,443,184.06,33.19,33.19,0,0,0,409.8,217.25ZM429,244.87c0-2,6.27-3.69,14-3.69s14,1.65,14,3.69-6.27,3.69-14,3.69S429,246.91,429,244.87Z"/><path class="cls-3" d="M443,251.44a34.19,34.19,0,1,1,34.19-34.19A34.23,34.23,0,0,1,443,251.44Zm-13-6.58c.07.81,4.57,2.69,13,2.69s12.93-1.89,13-2.69-4.58-2.69-13-2.69S430.07,244.06,430,244.87Zm13-59.8a32.19,32.19,0,0,0-14.74,60.81,2,2,0,0,1-.26-1c0-3.71,9.81-4.69,15-4.69s15,1,15,4.69a2,2,0,0,1-.26,1A32.19,32.19,0,0,0,443,185.06Z"/><circle class="cls-7" cx="368.92" cy="143.19" r="45.5"/><path class="cls-3" d="M443,185.06a1,1,0,0,1-1-1V-80.53a1,1,0,0,1,1-1,1,1,0,0,1,1,1V184.06A1,1,0,0,1,443,185.06Z"/><path class="cls-7" d="M323.41,143.19a45.5,45.5,0,1,0,45.5-45.5A45.5,45.5,0,0,0,323.41,143.19Zm26.31,37.86c0-2.79,8.59-5.06,19.19-5.06s19.19,2.27,19.19,5.06-8.59,5.06-19.19,5.06S349.72,183.85,349.72,181.05Z"/><path class="cls-3" d="M368.92,189.7a46.5,46.5,0,1,1,46.5-46.5A46.56,46.56,0,0,1,368.92,189.7Zm-12.59-3.81a44.61,44.61,0,0,0,25.18,0A65.64,65.64,0,0,1,356.33,185.88ZM368.92,177c-11.77,0-18.19,2.68-18.19,4.06s6.42,4.06,18.19,4.06,18.19-2.68,18.19-4.06S380.69,177,368.92,177Zm0-2c10,0,20.19,2.08,20.19,6.06a3.36,3.36,0,0,1-1.82,2.67,44.5,44.5,0,1,0-36.76,0,3.35,3.35,0,0,1-1.82-2.67C348.72,177.07,358.88,175,368.92,175Z"/><path class="cls-3" d="M368.92,98.74a1,1,0,0,1-1-1V60.45a1,1,0,0,1,2,0V97.74A1,1,0,0,1,368.92,98.74Z"/><path class="cls-3" d="M407,77.12A55.16,55.16,0,1,1,462.17,22,55.22,55.22,0,0,1,407,77.12Zm0-108.31A53.16,53.16,0,1,0,460.17,22,53.22,53.22,0,0,0,407-31.19ZM407,74c-11.85,0-23.84-2.41-23.84-7s12-7,23.84-7,23.84,2.41,23.84,7S418.87,74,407,74Zm0-12c-13.33,0-21.84,3-21.84,5s8.51,5,21.84,5,21.84-3,21.84-5S420.35,62,407,62Z"/><g class="cls-8"><path class="cls-6" d="M374.43,515.88h-.18a1.5,1.5,0,0,1-1.31-1.67l10.39-84.95a1.5,1.5,0,0,1,3,.36l-10.39,84.95A1.5,1.5,0,0,1,374.43,515.88Z"/><path class="cls-6" d="M88.22,515.88a1.5,1.5,0,0,1-1.49-1.32L76.34,429.61a1.5,1.5,0,0,1,3-.36L89.71,514.2a1.5,1.5,0,0,1-1.31,1.67Z"/><path class="cls-6" d="M231.7,535.5c-38.4,0-74.5-2.24-101.68-6.3-28.73-4.3-43.3-9.9-43.3-16.66s14.57-12.36,43.3-16.66c27.17-4.06,63.28-6.3,101.68-6.3s74.5,2.24,101.67,6.3c28.73,4.3,43.3,9.9,43.3,16.66s-14.57,12.36-43.3,16.66C306.2,533.26,270.09,535.5,231.7,535.5Zm0-42.91c-91.42,0-142,11.8-142,20s50.56,20,142,20,142-11.8,142-20S323.11,492.59,231.7,492.59Z"/><rect class="cls-4" x="215.16" y="444.37" width="3" height="89.52" transform="translate(-4.35 1.95) rotate(-0.51)"/><rect class="cls-4" x="220.78" y="465.47" width="48.25" height="3" transform="translate(-229.95 696.23) rotate(-88.1)"/><ellipse class="cls-6" cx="231.7" cy="423.16" rx="158.74" ry="23.74"/><polygon class="cls-6" points="390.44 419.12 390.44 423.15 388.16 425.43 387.87 422.27 389.15 419.37 390.44 419.12"/><polygon class="cls-6" points="72.95 419.12 72.95 423.15 75.2 425.61 75.67 422.36 72.95 419.12"/><ellipse class="cls-4" cx="231.7" cy="419.12" rx="158.74" ry="23.74"/></g></g><g id="Layer_1" data-name="Layer 1"><g class="cls-9"><path class="cls-10" d="M197.63,74.3s-6.64,2.17-10.84-1.53-7.59-6.45-15.14-8.5c-5.73-1.56-17.85-.32-28.69,6.47S123.35,97.65,126.61,117s24.44,26.34,22.14,43.88-19.89,20-30,24.74-7.66,20.48-.54,28.89,16,12.5,8,25.94-9.29,18.93-1.72,30.78c3.18,5,11.3,8.83,19.87,9.87,13.41,1.62,27.71-4.11,27.71-4.11s8.36-8.27-1.77-18.91c-7.29-7.66-5.23-13.89,8.42-23.95,20.7-15.24,9.39-22.28,7.24-29.35s-4-13.92,6.11-16.81,18-14.93,11.44-31.91C203.52,156,168.58,100.29,197.63,74.3Z"/><path class="cls-10" d="M127.77,94.58S117.33,119,137.1,143.19c0,0-11.19-20.61-4-42.76Z"/><path class="cls-10" d="M191.27,188.21s-3.85,1.75-4.79,3.73-.42,5.83,1.46,7.07,5.31.83,6.45.52a10.06,10.06,0,0,1-5.83,1.46c-3.12-.31-5-3-5.83-5s3-7.78,3-7.78S190.65,186.56,191.27,188.21Z"/><path class="cls-10" d="M127.22,237.92c-3.68,5-8.55,8.77-11.24,19.88s4.12,16.13,4.12,16.13-3.23-5.19-2.75-9.64,2.7-14.68,10.19-18.29,16.28-6.38,15-14.08-6.22-6.82-9.51-8.06-5,2-5,2S130.91,232.88,127.22,237.92Z"/><path class="cls-11" d="M169.55,278s5.3-1.93.72-16.61c-19.58,10.89-45.9-4-47.66-14.29-4.48,9.36-4.25,16.88,3.19,25.71,4.41,5.22,15.08,8.53,24.66,8.56A59.74,59.74,0,0,0,169.55,278Z"/><path class="cls-11" d="M168.6,137.46c-10.08-5.93-31.45-17.59-35.26-39.47C129.59,76.48,154,65.81,154.77,65.46A44.78,44.78,0,0,0,143,70.74c-10.84,6.79-19.61,26.92-16.35,46.24s24.44,26.34,22.14,43.88a21.36,21.36,0,0,1-8.84,15.07C155.57,172,177.26,168.05,187,162,201.4,153.06,178.68,143.39,168.6,137.46Z"/><path class="cls-11" d="M118.76,185.6c-10.1,4.74-7.66,20.48-.54,28.89,6.21,7.33,13.7,11.38,10.26,21.2,5.81-4.33,15.52-8.44,27.75-14.33,21.68-10.44-8.56-14.9-21.35-19.57-10.95-4-17.55-11.11-14.07-17.09C120.11,185,119.42,185.29,118.76,185.6Z"/><path class="cls-12" d="M289.45,115.23s4.38,33,1.55,45.34-11.85,26.27-20.61,33.23-22.67,7.21-32.46,3.61-35-19.58-44.82-35.81-14.94-43-3.86-53.32,40.44-16,56.67-16.23S288,102.33,289.45,115.23Z"/><path class="cls-12" d="M207.8,178.06s.37,37.47-9,51c-4.2,6-19.76,13.57-19.76,13.57l97.37,64.53,8-58.08s-23.15-9.5-29.23-25.74c-8.31-22.17.06-51.69.06-51.69Z"/><path class="cls-13" d="M203.09,74.07A17.63,17.63,0,0,0,194,73c-2,.4-3.09,1-6.09.11-4.29-1.31-9.76,3-12.58,8s-7.58,20.07-6.18,26.58a32.43,32.43,0,0,0,10.9,17.9l21.16-27.45Z"/><path class="cls-10" d="M205.65,142.1s6,5.32,13.22,5S230.72,134.72,235,127s11.85-24,24.21-25.24,28,4.51,29.27,10S291.34,134,291.34,134s9.79-5.1,12.54-14.2,1.72-28-6.87-31.6-19.92,1-28-3.95-18.55-16.49-38.3-16.14-35,6.53-45.34,21.81-9.23,48.08-2.38,62,11.14,23.49,24.79,26.17l-6.44-15.35s-17.86-18.2-13.22-25.42S205.65,142.1,205.65,142.1Z"/><ellipse class="cls-10" cx="252.51" cy="140.84" rx="2.7" ry="5.02"/><ellipse class="cls-10" cx="284.64" cy="141.83" rx="4.94" ry="2.16" transform="translate(119.23 413.45) rotate(-85.15)"/><path class="cls-11" d="M207.79,178.06l-6.44-15.35s-17.86-18.2-13.22-25.42a5.53,5.53,0,0,1,.65-.82c-6-9.64-8.83-20.43-10.12-26.78-2.22,15.27-.23,32.93,4.33,42.19C189.84,165.8,194.14,175.39,207.79,178.06Z"/><path class="cls-14" d="M271.7,144.95c-.18.91-1.88,17.16-1.44,18.09s4.58.35,6.93-.62-1-9.54-2.25-14.55S271.9,143.92,271.7,144.95Z"/><path class="cls-14" d="M238.9,198.42c1.72-.15,10.52,2.13,17.67.91-43.24-4.43-43.63-38.62-43.63-38.62a22.07,22.07,0,0,1-9.84-1.79c-4.66-2.19-12.28-13-13.47-16.74a8.28,8.28,0,0,1,1.24-7h0a4.73,4.73,0,0,0-2.73,2.1c-4.64,7.21,13.22,25.42,13.22,25.42l6.44,15.35h0s.37,37.47-9,51c-4.2,6-19.76,13.57-19.76,13.57l35.73,23.68c7.55-.39,8-4.44,1.29-8.76-41.74-26.91,16.53-11.46,16.83-14.53s-5.3-7.69-8.08-19.29C217.79,194.53,237.17,198.58,238.9,198.42Z"/><path class="cls-10" d="M251.37,200.69a40.7,40.7,0,0,1-13.78-2.36,1,1,0,0,1,.69-1.88c12.74,4.69,25.25,1.5,31.49-3.45,8.9-7.07,17.61-21.11,20.26-32.67,2.76-12-1.52-44.65-1.56-45-.34-3.12-2.23-6.22-5.63-9.27a1,1,0,0,1,1.33-1.49c3.77,3.38,5.89,6.92,6.28,10.52.18,1.33,4.37,33.27,1.53,45.67-2.78,12.14-11.6,26.36-21,33.79C265.49,199,258.29,200.69,251.37,200.69Z"/><path class="cls-7" d="M278.48,238.13s90.87,11.11,123.58,12.32c0,0,128.47-.62,135.05-2.75,0,0,2,10.36,3,14s2.39,9.3,2.39,9.3L417.5,289.37s-69.43,14.52-120.55,9.81c-18-1.66-16.6-15-20.52-23.1C267.79,258.32,278.48,238.13,278.48,238.13Z"/><path class="cls-10" d="M324.18,293.86c-9.47,0-18.58-.18-26.67-.62-14.57-.79-17.16-10-19.24-17.43a38.27,38.27,0,0,0-2.12-6.23,1,1,0,0,1,1.8-.87,39.67,39.67,0,0,1,2.25,6.56c2.11,7.5,4.29,15.26,17.43,16,43.38,2.37,116-2.81,116.73-2.86L541.5,270.14c-.19-2.95-.83-12.17-1.67-15.11a1,1,0,1,1,1.92-.55c1.06,3.71,1.78,15.94,1.81,16.46a1,1,0,0,1-.86,1L414.56,290.36C413.91,290.41,365.6,293.86,324.18,293.86Z"/><path class="cls-7" d="M177.75,437.86c1.07,39.85-23.62,78.5-21.12,130.6H326.74c0-46.09-9.43-86.77-17.94-114.53-3.82-12.46-10.9-47.63-3.3-68,16.61-44.5,7.65-60.08,7.65-60.08a125.62,125.62,0,0,0-9.27-24.73l-22.33-61.75s-2.51-2.26-17.41-3.3c1.72,7,13.63,48.13,5.34,48.85-8.93.78-66.39-38.42-66.39-38.42L187.77,237s-6.85,2.15-11.32,2.42-23.78,3.8-30.63,13.56c-12.68,18-12.06,48,5.68,76.9C167.26,355.48,176.6,394.79,177.75,437.86Z"/><path class="cls-15" d="M394.86,273.47c-36.52,0-86-5.19-106.71-15.84,1.75,7.6,2.79,12.25,8.37,23.73,3.92,8.07-2.33,6.73,5.29,9.18,36.83,11.84,91.1-4.48,91.1-4.48Z"/><path class="cls-10" d="M269.4,285.93c-9.85,0-60.88-34.61-66.72-38.6L187.78,238a58.72,58.72,0,0,1-11.12,2.33,1,1,0,0,1-.12-2c4.29-.26,11-2.36,11.08-2.38a1,1,0,0,1,.83.11l15.32,9.55c15.76,10.75,57.82,38.28,65.53,38.28h.24a1.29,1.29,0,0,0,1-.62c3.79-5.39-3.83-34.16-6.33-43.62-.39-1.46-.69-2.61-.88-3.37a1,1,0,0,1,1-1.24q1.83.13,3.41.28a1,1,0,0,1,.9,1.09,1,1,0,0,1-1.09.9l-2-.17.53,2c4.82,18.22,9.86,39.83,6,45.28a3.29,3.29,0,0,1-2.45,1.47Z"/><path class="cls-10" d="M326.53,569.46a1,1,0,0,1-1-1c0-49.44-11.72-95-18.7-117.8-4.17-13.59-9.38-42.57-2.5-65,13.59-44.33,7.74-59.26,7.68-59.4a.93.93,0,0,1,0-.14,125.73,125.73,0,0,0-9.19-24.51l-.06-.13-12.6-34.84a1,1,0,1,1,1.88-.68l12.57,34.78a128.52,128.52,0,0,1,9.31,24.82c.53,1.33,5.88,16.62-7.64,60.69-6.74,22-1.6,50.47,2.5,63.83,7,22.88,18.79,68.69,18.79,118.39A1,1,0,0,1,326.53,569.46Z"/><path class="cls-16" d="M288.86,332.41c27.9-2.53,19.94,26.07,22.36,31.87-.47-4.66,4-17.21,3.29-28.51-.92-14.35-7.1-27.75-8.06-31.88H231.71l-61.89,6.94-4.5,5C174.24,323.55,274.06,333.75,288.86,332.41Z"/><path class="cls-12" d="M594.45,183.82c-2.72.1-5.19,6.9-6.73,11.69l-.16,20,3.76-7.53a38.57,38.57,0,0,0,5.29-11.15C598.28,190.63,598.24,183.68,594.45,183.82Z"/><path class="cls-12" d="M584.87,257.72l7.75-.28c2.52-.09,8.69-2.5,9.55-2.67s4.43,1.73,2.48,4.28-6.83,5.49-9.33,6.16-11.79,1.3-11.79,1.3l-1.49-4.89Z"/><path class="cls-17" d="M548.86,143.37l.45.06,29.5,4.42c5.12.75,9.23,5.14,9.15,9.8l-1.8,116.25c-.07,4.67-4,9.29-8.86,10.52l-.44.1-29.13,5.85c-5.06,1-9.14-2.61-9.09-8l1.27-130.83a7.94,7.94,0,0,1,8.94-8.15Z"/><path class="cls-10" d="M546.07,291.53a8.14,8.14,0,0,1-5.27-1.86,9.28,9.28,0,0,1-3.15-7.33,1,1,0,0,1,1-1h0a1,1,0,0,1,1,1,7.2,7.2,0,0,0,2.43,5.77,6.44,6.44,0,0,0,5.47,1.26l29.13-5.85.4-.09c4.48-1.12,8-5.33,8.1-9.57L587,157.63c.07-4.17-3.65-8.12-8.3-8.79l-14-2.09a1,1,0,0,1,.3-2l14,2.09c5.6.82,10.09,5.66,10,10.8l-1.8,116.25c-.08,5.1-4.3,10.14-9.62,11.47l-.49.11-29.13,5.85A9.67,9.67,0,0,1,546.07,291.53Z"/><path class="cls-12" d="M591.16,236.27s1.4-1.38,2.35.62.36,6.21.36,6.21-1.65,9.46-2.37,11.79-3.06,7.79-4.39,8.57-4.76-.22-4.52-4.45,1.92-7.48,2.32-8.92c1.77-6.42.73-12.71,2.59-14.12A2.91,2.91,0,0,1,591.16,236.27Z"/><path class="cls-12" d="M589.72,220.15a8.46,8.46,0,0,0-1.69.09l-.11,7.42s-3.1,5.76-4.84,9.75,1.42,7.08,2.87,7,3.76-4.65,3.76-4.65l5.95-8.51a11.51,11.51,0,0,0,1.38-6.16C596.9,221.35,593.66,220.3,589.72,220.15Z"/><path class="cls-10" d="M549.6,171h0a4.05,4.05,0,0,1-3.4-4.19V154.15c0-2.17,1.53-3.76,3.4-3.55h0a4.24,4.24,0,0,1,3.4,4.28v12.46A3.38,3.38,0,0,1,549.6,171Z"/><path class="cls-13" d="M549.81,171.37h-.24a4.42,4.42,0,0,1-3.75-4.56V154.15a4.14,4.14,0,0,1,1.3-3.12,3.17,3.17,0,0,1,2.52-.8,4.62,4.62,0,0,1,3.74,4.65v12.46a4.23,4.23,0,0,1-1.28,3.11A3.34,3.34,0,0,1,549.81,171.37Zm-.19-.76a2.6,2.6,0,0,0,2-.71,3.48,3.48,0,0,0,1-2.56V154.88a3.85,3.85,0,0,0-3.07-3.91,2.46,2.46,0,0,0-1.93.62,3.39,3.39,0,0,0-1.05,2.56V166.8a3.67,3.67,0,0,0,3.06,3.81Z"/><path class="cls-13" d="M551.09,161c0,1-.61,1.74-1.43,1.66a2,2,0,0,1-1.54-2c0-1,.61-1.76,1.43-1.66A2,2,0,0,1,551.09,161Z"/><path class="cls-18" d="M549.78,163h-.17a2.35,2.35,0,0,1-1.88-2.35,2.12,2.12,0,0,1,.63-1.65,1.52,1.52,0,0,1,1.22-.4,2.36,2.36,0,0,1,1.87,2.35,2.12,2.12,0,0,1-.62,1.63A1.54,1.54,0,0,1,549.78,163Zm-.39-3.67a.77.77,0,0,0-.53.21,1.38,1.38,0,0,0-.38,1.07,1.64,1.64,0,0,0,1.21,1.63.8.8,0,0,0,.64-.22,1.37,1.37,0,0,0,.38-1.06h0a1.65,1.65,0,0,0-1.21-1.63Z"/><path class="cls-12" d="M469.86,262.31s14.9-5.65,16-6,24.14-24.78,27.64-27.25,10.49-18,13.79-21.17,17.84-23.48,19.39-25.33,7.31-1.52,5.95,5.36-7.39,14.25-9,15.86S535.9,221.27,534.2,224s-2.75,3.52-.43,3.07,14.62-3.41,16.4-3.83,6.48.12,10,2.33,20.23,7.54,18.86,9.56-5.18,5.94-12.08,3.85a55.88,55.88,0,0,1-10.21-3.94l-4-.22s-13.21,2.46-14.78,3.77,7.66,3,12.56,4.4,11.11,4.09,14.48,7.74,11.8,13.23,12.36,13.75-3.81,4.09-7.65,2.08-8.51-6.52-8.51-6.52-5.61-5.91-6.86-5.86-14.06-3.27-14.06-3.27,13.24,4.35,14.88,4.61,11.36,11.23,12.37,11.83,2.53,3.29,2.53,3.29a5,5,0,0,1-7.39,1.47c-4.71-3.11-10.45-7.29-10.45-7.29s-4-2-5.68-2.75a38.41,38.41,0,0,0-8.17-1.78c-1.09,0-5.79.43-5.79.43s-15,14.89-24.26,19.5-21.46,3.08-21.46,3.08L469.21,286s-5.67-5.49-7.37-10,3.7-12.24,3.7-12.24Z"/><path class="cls-10" d="M534.24,181.58h-.1a1,1,0,0,1-.9-1.09l1.27-13.4a1,1,0,0,1,1.09-.9,1,1,0,0,1,.9,1.09l-1.27,13.4A1,1,0,0,1,534.24,181.58Z"/><path class="cls-10" d="M541.81,142.42a1,1,0,0,1-.93-1.37l4.84-12.1a1,1,0,0,1,1.86.74l-4.84,12.1A1,1,0,0,1,541.81,142.42Z"/><path class="cls-10" d="M534.15,141.57a1,1,0,0,1-1-.81l-2.45-12.67a1,1,0,1,1,2-.38l2.45,12.67a1,1,0,0,1-.79,1.17Z"/><path class="cls-10" d="M527.56,145.42a1,1,0,0,1-.72-.31l-9.2-9.64a1,1,0,0,1,1.45-1.38l9.2,9.64a1,1,0,0,1-.72,1.69Z"/><path class="cls-10" d="M524,152a1,1,0,0,1-.24,0l-13.08-3.17a1,1,0,0,1,.47-1.94L524.19,150a1,1,0,0,1-.23,2Z"/><path class="cls-10" d="M511.59,163.78a1,1,0,0,1-.33-1.95l12.59-4.36a1,1,0,1,1,.65,1.89l-12.59,4.36A1,1,0,0,1,511.59,163.78Z"/><path class="cls-10" d="M520.3,176a1,1,0,0,1-.79-1.62l7.88-10a1,1,0,0,1,1.57,1.24l-7.88,10A1,1,0,0,1,520.3,176Z"/><path class="cls-7" d="M175.37,317.42s114.79,2.27,134.75-1.21C362,307.16,473.68,287,473.68,287s-9.38-14.33-3.23-27.8c0,0-13.63,1.78-45,4.12-30.14,2.25-106.21,5.28-106.21,5.28S215.9,256.3,196.39,249.8c-22.94-7.64-40.09-2.07-48.22,8C137.87,270.51,136.18,312,175.37,317.42Z"/><path class="cls-10" d="M246.9,319.86c-32.84,0-66.34-.72-70.43-1.27-9.59-1.28-16-3.37-20-6.58a1,1,0,0,1,1.24-1.57c3.72,2.94,10,5,19,6.17,7.49,1,113.95,2.6,133.3-.78,48.1-8.39,149-26.53,162.14-28.91-2.08-3.7-7.33-14.78-3.21-25.87-1.55.18-4.16.48-7.89.86A1,1,0,0,1,460,261a1,1,0,0,1,.89-1.1c6.43-.66,9.51-1.05,9.54-1.06a1,1,0,0,1,1,1.41c-5.86,12.83,3.06,26.7,3.16,26.84a1,1,0,0,1-.66,1.53c-1.12.2-112.31,20.22-163.57,29.16C301.51,319.35,274.44,319.86,246.9,319.86Z"/></g></g></g></svg>