<?xml version="1.0" encoding="UTF-8" ?>
<!DOCTYPE svg PUBLIC "-//W3C//DTD SVG 1.1//EN" "http://www.w3.org/Graphics/SVG/1.1/DTD/svg11.dtd">
<svg width="267pt" height="120pt" viewBox="0 0 267 120" version="1.1" xmlns="http://www.w3.org/2000/svg">
<g id="#ffffffff">
<path fill="#ffffff" opacity="1.00" d=" M 0.00 0.00 L 226.68 0.00 C 230.77 3.37 233.80 7.85 237.96 11.13 C 235.12 7.08 231.05 4.06 228.21 0.00 L 267.00 0.00 L 267.00 59.32 C 267.00 59.37 267.00 59.47 267.00 59.52 L 267.00 120.00 L 0.00 120.00 L 0.00 60.69 C 0.00 60.64 0.00 60.54 0.00 60.49 L 0.00 0.00 M 31.24 8.23 C 31.80 8.80 31.80 8.80 31.24 8.23 M 26.31 14.18 C 26.87 14.74 26.87 14.74 26.31 14.18 M 44.46 17.72 C 39.16 19.24 33.23 19.63 29.01 23.60 C 42.80 25.95 57.12 28.85 68.49 37.53 C 75.42 43.10 81.54 50.80 82.28 59.97 C 83.54 69.21 79.02 78.28 72.72 84.78 C 69.03 87.73 65.27 90.62 61.30 93.17 C 55.14 96.29 48.59 98.76 41.77 99.99 C 37.51 100.74 33.48 102.62 29.08 102.45 C 29.21 102.71 29.47 103.24 29.61 103.50 C 38.92 108.59 49.79 111.18 60.36 109.14 C 67.08 107.61 73.57 104.95 79.42 101.32 C 84.80 96.75 90.27 91.93 93.49 85.52 C 99.40 74.82 100.85 61.59 96.74 50.02 C 89.85 28.73 66.56 14.39 44.46 17.72 M 243.18 17.18 C 243.73 17.73 243.73 17.73 243.18 17.18 M 22.30 19.19 C 22.86 19.75 22.86 19.75 22.30 19.19 M 246.19 21.19 C 246.73 21.73 246.73 21.73 246.19 21.19 M 19.32 23.19 C 19.86 23.73 19.86 23.73 19.32 23.19 M 249.25 25.25 C 249.80 25.80 249.80 25.80 249.25 25.25 M 17.25 26.26 C 17.79 26.80 17.79 26.80 17.25 26.26 M 121.28 27.70 C 120.46 29.06 119.63 30.42 119.12 31.93 C 122.06 32.38 123.70 29.63 125.22 27.60 C 123.90 27.67 122.59 27.72 121.28 27.70 M 251.19 28.20 C 251.75 28.76 251.75 28.76 251.19 28.20 M 15.30 29.19 C 15.85 29.75 15.85 29.75 15.30 29.19 M 13.29 32.20 C 13.85 32.76 13.85 32.76 13.29 32.20 M 254.25 33.25 C 254.79 33.79 254.79 33.79 254.25 33.25 M 118.36 34.48 C 107.70 36.47 107.12 54.77 117.59 57.33 C 121.06 58.72 125.00 57.96 128.16 56.17 C 134.70 51.58 134.49 40.44 128.05 35.87 C 125.13 34.28 121.60 33.39 118.36 34.48 M 135.38 41.34 C 134.66 42.97 136.48 43.98 137.24 45.14 C 137.77 49.13 136.29 53.67 138.75 57.21 C 140.57 58.42 142.85 57.92 144.89 57.81 C 144.88 57.19 144.84 55.94 144.82 55.31 C 143.77 54.68 141.69 54.57 141.79 52.92 C 141.48 50.05 141.46 47.14 141.94 44.30 C 142.65 44.09 144.07 43.69 144.78 43.48 C 144.70 42.52 144.70 41.55 144.79 40.59 C 144.11 40.37 142.75 39.94 142.07 39.72 C 141.86 37.80 141.47 35.91 140.95 34.06 C 138.36 35.85 136.81 38.62 135.38 41.34 M 149.00 34.12 C 149.09 35.33 149.14 36.55 149.16 37.78 C 150.38 37.72 151.61 37.71 152.83 37.75 C 152.84 36.55 152.88 35.35 152.97 34.16 C 151.65 34.17 150.32 34.16 149.00 34.12 M 12.13 39.04 C 10.14 42.46 8.95 46.28 8.07 50.12 C 7.29 52.68 10.22 53.79 11.74 55.17 C 15.15 57.38 15.91 62.08 14.78 65.72 C 13.45 69.20 10.18 71.15 7.33 73.25 C 8.04 79.00 9.94 84.80 13.69 89.31 C 15.36 91.71 18.85 91.99 21.48 91.32 C 25.44 89.82 29.72 88.75 33.07 86.03 C 38.95 81.17 43.18 73.83 42.85 66.04 C 43.36 56.16 39.06 45.91 30.77 40.27 C 26.86 36.61 21.15 35.98 16.03 35.97 C 14.08 35.79 13.05 37.65 12.13 39.04 M 257.24 38.24 C 257.80 38.80 257.80 38.80 257.24 38.24 M 9.24 39.25 C 9.80 39.80 9.80 39.80 9.24 39.25 M 149.10 40.07 C 148.90 46.04 149.04 52.02 149.09 58.00 C 150.38 57.97 151.67 57.98 152.97 58.03 C 152.98 52.07 153.05 46.11 152.87 40.15 C 151.61 40.17 150.35 40.14 149.10 40.07 M 161.13 41.22 C 156.66 43.11 156.76 48.74 157.32 52.79 C 159.30 59.93 171.62 59.82 172.83 52.29 C 171.58 52.12 169.97 50.57 168.90 51.90 C 167.42 53.00 166.40 55.48 164.21 54.91 C 160.85 53.01 160.34 48.46 162.12 45.29 C 162.81 43.29 165.21 44.02 166.78 44.00 C 167.35 44.84 167.92 45.68 168.50 46.52 C 169.97 46.08 171.44 45.61 172.81 44.88 C 170.66 40.86 165.18 38.81 161.13 41.22 M 177.12 42.25 C 177.11 42.92 177.10 44.25 177.09 44.92 C 180.02 44.88 182.85 43.51 185.80 44.18 C 185.83 44.84 185.89 46.16 185.92 46.82 C 182.82 47.62 179.47 48.03 176.73 49.79 C 175.11 52.11 175.27 55.55 177.76 57.20 C 180.30 58.83 183.18 57.35 185.86 57.07 C 187.52 57.54 189.19 58.06 190.93 58.10 C 190.53 54.10 190.63 50.08 190.59 46.06 C 190.64 43.84 189.61 41.27 187.16 40.88 C 183.85 39.28 180.10 40.51 177.12 42.25 M 8.24 41.25 C 8.80 41.80 8.80 41.80 8.24 41.25 M 259.25 42.24 C 259.79 42.79 259.79 42.79 259.25 42.24 M 7.24 43.24 C 7.81 43.80 7.81 43.80 7.24 43.24 M 260.26 44.26 C 260.80 44.80 260.80 44.80 260.26 44.26 M 6.26 45.23 C 6.82 45.79 6.82 45.79 6.26 45.23 M 261.25 46.26 C 261.79 46.81 261.79 46.81 261.25 46.26 M 5.09 47.21 C 3.55 50.21 8.41 47.37 5.09 47.21 M 263.25 51.25 C 263.79 51.80 263.79 51.80 263.25 51.25 M 3.09 52.22 C 1.54 55.21 6.41 52.39 3.09 52.22 M 265.25 56.25 C 265.80 56.80 265.80 56.80 265.25 56.25 M 106.56 66.56 C 106.26 69.31 106.28 72.07 106.31 74.84 C 110.28 75.06 114.25 74.85 118.22 75.04 C 118.57 84.94 118.27 94.86 118.36 104.77 C 122.21 104.94 126.06 104.91 129.92 104.84 C 130.30 94.96 129.71 85.06 130.21 75.19 C 134.34 74.75 138.48 75.06 142.61 74.72 C 142.62 72.01 142.60 69.30 142.39 66.60 C 136.28 65.92 130.13 66.49 124.00 66.33 C 118.19 66.46 112.36 66.06 106.56 66.56 M 240.21 66.36 C 240.00 79.17 240.16 91.99 240.16 104.81 C 243.65 104.85 247.13 104.87 250.62 104.72 C 250.36 92.02 250.78 79.31 250.40 66.62 C 247.01 66.26 243.61 66.36 240.21 66.36 M 182.82 71.85 C 182.65 73.48 182.29 75.07 182.14 76.70 C 180.83 77.15 178.12 76.92 178.47 79.06 C 178.35 81.01 178.57 82.96 178.57 84.91 C 179.80 85.31 181.05 85.63 182.33 85.87 C 182.99 91.94 181.09 98.75 184.89 104.11 C 189.21 106.20 194.28 105.95 198.83 104.78 C 198.81 102.94 198.75 101.10 198.67 99.26 C 196.82 98.73 193.57 99.30 193.19 96.77 C 192.80 93.02 192.62 89.17 193.32 85.45 C 195.12 85.38 196.89 85.08 198.67 84.85 C 198.76 82.34 198.76 79.82 198.69 77.30 C 196.86 77.19 195.06 76.92 193.24 76.78 C 192.80 73.52 192.90 70.22 192.89 66.94 C 189.44 68.37 186.11 70.09 182.82 71.85 M 154.38 76.59 C 147.13 77.53 141.24 84.64 142.23 91.99 C 142.19 99.33 148.78 105.56 156.00 105.64 C 160.77 105.96 166.22 105.35 169.63 101.62 C 176.62 95.21 174.92 81.92 166.18 77.90 C 162.46 76.50 158.31 75.59 154.38 76.59 M 208.71 77.86 C 205.54 79.21 204.19 82.68 203.13 85.71 C 206.28 86.30 209.49 86.78 212.70 86.70 C 214.21 86.17 214.41 83.95 216.08 83.65 C 218.10 83.24 220.16 83.52 222.17 83.85 C 222.67 85.39 222.83 87.59 220.70 87.86 C 216.04 89.48 210.86 89.19 206.42 91.52 C 203.93 92.65 202.32 95.40 202.35 98.12 C 201.92 101.22 204.82 103.28 207.06 104.83 C 212.61 107.06 219.04 105.20 223.37 101.29 C 223.73 102.41 224.07 103.52 224.40 104.65 C 227.54 105.04 230.71 104.92 233.86 104.80 C 232.08 98.32 233.01 91.57 232.72 84.96 C 232.75 82.04 231.09 78.96 228.28 77.89 C 222.04 75.58 214.94 75.49 208.71 77.86 Z" />
</g>
<g id="#3a5c5dff">
<path fill="#3a5c5d" opacity="1.00" d=" M 226.68 0.00 L 228.21 0.00 C 231.05 4.06 235.12 7.08 237.96 11.13 C 233.80 7.85 230.77 3.37 226.68 0.00 Z" />
<path fill="#3a5c5d" opacity="1.00" d=" M 121.28 27.70 C 122.59 27.72 123.90 27.67 125.22 27.60 C 123.70 29.63 122.06 32.38 119.12 31.93 C 119.63 30.42 120.46 29.06 121.28 27.70 Z" />
<path fill="#3a5c5d" opacity="1.00" d=" M 149.00 34.12 C 150.32 34.16 151.65 34.17 152.97 34.16 C 152.88 35.35 152.84 36.55 152.83 37.75 C 151.61 37.71 150.38 37.72 149.16 37.78 C 149.14 36.55 149.09 35.33 149.00 34.12 Z" />
</g>
<g id="#717672ff">
<path fill="#717672" opacity="1.00" d=" M 31.24 8.23 C 31.80 8.80 31.80 8.80 31.24 8.23 Z" />
</g>
<g id="#767d76ff">
<path fill="#767d76" opacity="1.00" d=" M 26.31 14.18 C 26.87 14.74 26.87 14.74 26.31 14.18 Z" />
</g>
<g id="#0a8c2fff">
<path fill="#0a8c2f" opacity="1.00" d=" M 44.46 17.72 C 66.56 14.39 89.85 28.73 96.74 50.02 C 100.85 61.59 99.40 74.82 93.49 85.52 C 90.27 91.93 84.80 96.75 79.42 101.32 C 73.57 104.95 67.08 107.61 60.36 109.14 C 49.79 111.18 38.92 108.59 29.61 103.50 C 29.47 103.24 29.21 102.71 29.08 102.45 C 33.48 102.62 37.51 100.74 41.77 99.99 C 48.59 98.76 55.14 96.29 61.30 93.17 C 65.27 90.62 69.03 87.73 72.72 84.78 C 79.02 78.28 83.54 69.21 82.28 59.97 C 81.54 50.80 75.42 43.10 68.49 37.53 C 57.12 28.85 42.80 25.95 29.01 23.60 C 33.23 19.63 39.16 19.24 44.46 17.72 Z" />
</g>
<g id="#818881ff">
<path fill="#818881" opacity="1.00" d=" M 243.18 17.18 C 243.73 17.73 243.73 17.73 243.18 17.18 Z" />
</g>
<g id="#767d75ff">
<path fill="#767d75" opacity="1.00" d=" M 22.30 19.19 C 22.86 19.75 22.86 19.75 22.30 19.19 Z" />
</g>
<g id="#8e938fff">
<path fill="#8e938f" opacity="1.00" d=" M 246.19 21.19 C 246.73 21.73 246.73 21.73 246.19 21.19 Z" />
</g>
<g id="#8b928aff">
<path fill="#8b928a" opacity="1.00" d=" M 19.32 23.19 C 19.86 23.73 19.86 23.73 19.32 23.19 Z" />
</g>
<g id="#80857fff">
<path fill="#80857f" opacity="1.00" d=" M 249.25 25.25 C 249.80 25.80 249.80 25.80 249.25 25.25 Z" />
</g>
<g id="#929791ff">
<path fill="#929791" opacity="1.00" d=" M 17.25 26.26 C 17.79 26.80 17.79 26.80 17.25 26.26 Z" />
</g>
<g id="#747975ff">
<path fill="#747975" opacity="1.00" d=" M 251.19 28.20 C 251.75 28.76 251.75 28.76 251.19 28.20 Z" />
</g>
<g id="#828781ff">
<path fill="#828781" opacity="1.00" d=" M 15.30 29.19 C 15.85 29.75 15.85 29.75 15.30 29.19 Z" />
</g>
<g id="#787a75ff">
<path fill="#787a75" opacity="1.00" d=" M 13.29 32.20 C 13.85 32.76 13.85 32.76 13.29 32.20 Z" />
</g>
<g id="#8e938dff">
<path fill="#8e938d" opacity="1.00" d=" M 254.25 33.25 C 254.79 33.79 254.79 33.79 254.25 33.25 Z" />
<path fill="#8e938d" opacity="1.00" d=" M 260.26 44.26 C 260.80 44.80 260.80 44.80 260.26 44.26 Z" />
</g>
<g id="#266385ff">
<path fill="#266385" opacity="1.00" d=" M 118.36 34.48 C 121.60 33.39 125.13 34.28 128.05 35.87 C 134.49 40.44 134.70 51.58 128.16 56.17 C 125.00 57.96 121.06 58.72 117.59 57.33 C 107.12 54.77 107.70 36.47 118.36 34.48 M 118.28 38.08 C 115.71 39.77 114.58 43.00 114.86 45.99 C 115.02 48.84 115.47 52.32 118.24 53.85 C 120.54 55.70 123.91 54.72 125.93 52.95 C 128.76 49.16 128.82 43.71 126.45 39.67 C 124.71 37.08 120.92 37.29 118.28 38.08 Z" />
</g>
<g id="#1e628bff">
<path fill="#1e628b" opacity="1.00" d=" M 135.38 41.34 C 136.81 38.62 138.36 35.85 140.95 34.06 C 141.47 35.91 141.86 37.80 142.07 39.72 C 142.75 39.94 144.11 40.37 144.79 40.59 C 144.70 41.55 144.70 42.52 144.78 43.48 C 144.07 43.69 142.65 44.09 141.94 44.30 C 141.46 47.14 141.48 50.05 141.79 52.92 C 141.69 54.57 143.77 54.68 144.82 55.31 C 144.84 55.94 144.88 57.19 144.89 57.81 C 142.85 57.92 140.57 58.42 138.75 57.21 C 136.29 53.67 137.77 49.13 137.24 45.14 C 136.48 43.98 134.66 42.97 135.38 41.34 Z" />
</g>
<g id="#0671b7ff">
<path fill="#0671b7" opacity="1.00" d=" M 12.13 39.04 C 13.05 37.65 14.08 35.79 16.03 35.97 C 21.15 35.98 26.86 36.61 30.77 40.27 C 39.06 45.91 43.36 56.16 42.85 66.04 C 43.18 73.83 38.95 81.17 33.07 86.03 C 29.72 88.75 25.44 89.82 21.48 91.32 C 18.85 91.99 15.36 91.71 13.69 89.31 C 9.94 84.80 8.04 79.00 7.33 73.25 C 10.18 71.15 13.45 69.20 14.78 65.72 C 15.91 62.08 15.15 57.38 11.74 55.17 C 10.22 53.79 7.29 52.68 8.07 50.12 C 8.95 46.28 10.14 42.46 12.13 39.04 Z" />
</g>
<g id="#feffffff">
<path fill="#feffff" opacity="1.00" d=" M 118.28 38.08 C 120.92 37.29 124.71 37.08 126.45 39.67 C 128.82 43.71 128.76 49.16 125.93 52.95 C 123.91 54.72 120.54 55.70 118.24 53.85 C 115.47 52.32 115.02 48.84 114.86 45.99 C 114.58 43.00 115.71 39.77 118.28 38.08 Z" />
</g>
<g id="#7a7f79ff">
<path fill="#7a7f79" opacity="1.00" d=" M 257.24 38.24 C 257.80 38.80 257.80 38.80 257.24 38.24 Z" />
</g>
<g id="#798480ff">
<path fill="#798480" opacity="1.00" d=" M 9.24 39.25 C 9.80 39.80 9.80 39.80 9.24 39.25 Z" />
</g>
<g id="#2b6183ff">
<path fill="#2b6183" opacity="1.00" d=" M 149.10 40.07 C 150.35 40.14 151.61 40.17 152.87 40.15 C 153.05 46.11 152.98 52.07 152.97 58.03 C 151.67 57.98 150.38 57.97 149.09 58.00 C 149.04 52.02 148.90 46.04 149.10 40.07 Z" />
</g>
<g id="#296184ff">
<path fill="#296184" opacity="1.00" d=" M 161.13 41.22 C 165.18 38.81 170.66 40.86 172.81 44.88 C 171.44 45.61 169.97 46.08 168.50 46.52 C 167.92 45.68 167.35 44.84 166.78 44.00 C 165.21 44.02 162.81 43.29 162.12 45.29 C 160.34 48.46 160.85 53.01 164.21 54.91 C 166.40 55.48 167.42 53.00 168.90 51.90 C 169.97 50.57 171.58 52.12 172.83 52.29 C 171.62 59.82 159.30 59.93 157.32 52.79 C 156.76 48.74 156.66 43.11 161.13 41.22 Z" />
</g>
<g id="#266584ff">
<path fill="#266584" opacity="1.00" d=" M 177.12 42.25 C 180.10 40.51 183.85 39.28 187.16 40.88 C 189.61 41.27 190.64 43.84 190.59 46.06 C 190.63 50.08 190.53 54.10 190.93 58.10 C 189.19 58.06 187.52 57.54 185.86 57.07 C 183.18 57.35 180.30 58.83 177.76 57.20 C 175.27 55.55 175.11 52.11 176.73 49.79 C 179.47 48.03 182.82 47.62 185.92 46.82 C 185.89 46.16 185.83 44.84 185.80 44.18 C 182.85 43.51 180.02 44.88 177.09 44.92 C 177.10 44.25 177.11 42.92 177.12 42.25 M 180.57 50.63 C 178.49 52.20 180.50 55.82 182.92 55.00 C 185.84 54.68 186.42 51.36 186.12 48.94 C 184.24 49.36 182.24 49.60 180.57 50.63 Z" />
</g>
<g id="#7c8581ff">
<path fill="#7c8581" opacity="1.00" d=" M 8.24 41.25 C 8.80 41.80 8.80 41.80 8.24 41.25 Z" />
</g>
<g id="#8a9089ff">
<path fill="#8a9089" opacity="1.00" d=" M 259.25 42.24 C 259.79 42.79 259.79 42.79 259.25 42.24 Z" />
</g>
<g id="#6f7a76ff">
<path fill="#6f7a76" opacity="1.00" d=" M 7.24 43.24 C 7.81 43.80 7.81 43.80 7.24 43.24 Z" />
</g>
<g id="#79827dff">
<path fill="#79827d" opacity="1.00" d=" M 6.26 45.23 C 6.82 45.79 6.82 45.79 6.26 45.23 Z" />
</g>
<g id="#878e87ff">
<path fill="#878e87" opacity="1.00" d=" M 261.25 46.26 C 261.79 46.81 261.79 46.81 261.25 46.26 Z" />
</g>
<g id="#949e96ff">
<path fill="#949e96" opacity="1.00" d=" M 5.09 47.21 C 8.41 47.37 3.55 50.21 5.09 47.21 Z" />
</g>
<g id="#f8ffffff">
<path fill="#f8ffff" opacity="1.00" d=" M 180.57 50.63 C 182.24 49.60 184.24 49.36 186.12 48.94 C 186.42 51.36 185.84 54.68 182.92 55.00 C 180.50 55.82 178.49 52.20 180.57 50.63 Z" />
</g>
<g id="#898e8aff">
<path fill="#898e8a" opacity="1.00" d=" M 263.25 51.25 C 263.79 51.80 263.79 51.80 263.25 51.25 Z" />
</g>
<g id="#9ba89fff">
<path fill="#9ba89f" opacity="1.00" d=" M 3.09 52.22 C 6.41 52.39 1.54 55.21 3.09 52.22 Z" />
</g>
<g id="#878c86ff">
<path fill="#878c86" opacity="1.00" d=" M 265.25 56.25 C 265.80 56.80 265.80 56.80 265.25 56.25 Z" />
</g>
<g id="#8f9991ff">
<path fill="#8f9991" opacity="1.00" d=" M 267.00 59.52 C 267.00 59.47 267.00 59.37 267.00 59.32 L 267.00 59.52 Z" />
</g>
<g id="#8d978eff">
<path fill="#8d978e" opacity="1.00" d=" M 0.00 60.49 C 0.00 60.54 0.00 60.64 0.00 60.69 L 0.00 60.49 Z" />
</g>
<g id="#236d36ff">
<path fill="#236d36" opacity="1.00" d=" M 106.56 66.56 C 112.36 66.06 118.19 66.46 124.00 66.33 C 130.13 66.49 136.28 65.92 142.39 66.60 C 142.60 69.30 142.62 72.01 142.61 74.72 C 138.48 75.06 134.34 74.75 130.21 75.19 C 129.71 85.06 130.30 94.96 129.92 104.84 C 126.06 104.91 122.21 104.94 118.36 104.77 C 118.27 94.86 118.57 84.94 118.22 75.04 C 114.25 74.85 110.28 75.06 106.31 74.84 C 106.28 72.07 106.26 69.31 106.56 66.56 M 108.13 68.30 C 108.12 70.64 108.96 74.19 112.04 73.64 C 114.65 74.10 119.03 72.74 119.72 76.33 C 120.33 84.13 119.17 92.03 120.10 99.82 C 120.61 104.10 128.38 104.22 128.60 99.81 C 129.04 92.43 129.10 85.01 128.44 77.64 C 128.31 76.51 128.47 75.24 129.47 74.52 C 132.83 73.48 136.38 73.38 139.82 72.72 C 139.90 71.23 139.90 69.75 139.83 68.27 C 129.30 67.58 118.67 67.68 108.13 68.30 Z" />
</g>
<g id="#0d5f27ff">
<path fill="#0d5f27" opacity="1.00" d=" M 240.21 66.36 C 243.61 66.36 247.01 66.26 250.40 66.62 C 250.78 79.31 250.36 92.02 250.62 104.72 C 247.13 104.87 243.65 104.85 240.16 104.81 C 240.16 91.99 240.00 79.17 240.21 66.36 M 241.83 71.11 C 241.24 79.59 242.09 88.12 241.44 96.60 C 241.40 98.55 240.99 100.90 242.62 102.38 C 244.02 103.91 246.19 103.33 247.93 102.94 C 248.88 98.02 248.16 92.98 248.36 88.00 C 248.16 81.65 248.81 75.26 248.01 68.94 C 245.79 68.40 242.29 68.10 241.83 71.11 Z" />
</g>
<g id="#108930ff">
<path fill="#108930" opacity="1.00" d=" M 182.82 71.85 C 186.11 70.09 189.44 68.37 192.89 66.94 C 192.90 70.22 192.80 73.52 193.24 76.78 C 195.06 76.92 196.86 77.19 198.69 77.30 C 198.76 79.82 198.76 82.34 198.67 84.85 C 196.89 85.08 195.12 85.38 193.32 85.45 C 192.62 89.17 192.80 93.02 193.19 96.77 C 193.57 99.30 196.82 98.73 198.67 99.26 C 198.75 101.10 198.81 102.94 198.83 104.78 C 194.28 105.95 189.21 106.20 184.89 104.11 C 181.09 98.75 182.99 91.94 182.33 85.87 C 181.05 85.63 179.80 85.31 178.57 84.91 C 178.57 82.96 178.35 81.01 178.47 79.06 C 178.12 76.92 180.83 77.15 182.14 76.70 C 182.29 75.07 182.65 73.48 182.82 71.85 Z" />
</g>
<g id="#0a8d2dff">
<path fill="#0a8d2d" opacity="1.00" d=" M 108.13 68.30 C 118.67 67.68 129.30 67.58 139.83 68.27 C 139.90 69.75 139.90 71.23 139.82 72.72 C 136.38 73.38 132.83 73.48 129.47 74.52 C 128.47 75.24 128.31 76.51 128.44 77.64 C 129.10 85.01 129.04 92.43 128.60 99.81 C 128.38 104.22 120.61 104.10 120.10 99.82 C 119.17 92.03 120.33 84.13 119.72 76.33 C 119.03 72.74 114.65 74.10 112.04 73.64 C 108.96 74.19 108.12 70.64 108.13 68.30 Z" />
</g>
<g id="#068d2cff">
<path fill="#068d2c" opacity="1.00" d=" M 241.83 71.11 C 242.29 68.10 245.79 68.40 248.01 68.94 C 248.81 75.26 248.16 81.65 248.36 88.00 C 248.16 92.98 248.88 98.02 247.93 102.94 C 246.19 103.33 244.02 103.91 242.62 102.38 C 240.99 100.90 241.40 98.55 241.44 96.60 C 242.09 88.12 241.24 79.59 241.83 71.11 Z" />
</g>
<g id="#118731ff">
<path fill="#118731" opacity="1.00" d=" M 154.38 76.59 C 158.31 75.59 162.46 76.50 166.18 77.90 C 174.92 81.92 176.62 95.21 169.63 101.62 C 166.22 105.35 160.77 105.96 156.00 105.64 C 148.78 105.56 142.19 99.33 142.23 91.99 C 141.24 84.64 147.13 77.53 154.38 76.59 M 155.40 84.24 C 151.61 87.00 151.79 93.17 154.10 96.86 C 156.47 100.80 163.20 98.30 163.35 93.98 C 163.54 91.26 163.91 88.25 162.35 85.83 C 161.24 83.22 157.55 82.83 155.40 84.24 Z" />
</g>
<g id="#148632ff">
<path fill="#148632" opacity="1.00" d=" M 208.71 77.86 C 214.94 75.49 222.04 75.58 228.28 77.89 C 231.09 78.96 232.75 82.04 232.72 84.96 C 233.01 91.57 232.08 98.32 233.86 104.80 C 230.71 104.92 227.54 105.04 224.40 104.65 C 224.07 103.52 223.73 102.41 223.37 101.29 C 219.04 105.20 212.61 107.06 207.06 104.83 C 204.82 103.28 201.92 101.22 202.35 98.12 C 202.32 95.40 203.93 92.65 206.42 91.52 C 210.86 89.19 216.04 89.48 220.70 87.86 C 222.83 87.59 222.67 85.39 222.17 83.85 C 220.16 83.52 218.10 83.24 216.08 83.65 C 214.41 83.95 214.21 86.17 212.70 86.70 C 209.49 86.78 206.28 86.30 203.13 85.71 C 204.19 82.68 205.54 79.21 208.71 77.86 M 212.99 95.13 C 213.01 96.50 213.55 97.75 214.08 99.00 C 218.09 99.98 223.35 97.39 223.02 92.76 C 219.53 92.54 216.18 93.87 212.99 95.13 Z" />
</g>
<g id="#fcfffdff">
<path fill="#fcfffd" opacity="1.00" d=" M 155.40 84.24 C 157.55 82.83 161.24 83.22 162.35 85.83 C 163.91 88.25 163.54 91.26 163.35 93.98 C 163.20 98.30 156.47 100.80 154.10 96.86 C 151.79 93.17 151.61 87.00 155.40 84.24 Z" />
</g>
<g id="#f9fffcff">
<path fill="#f9fffc" opacity="1.00" d=" M 212.99 95.13 C 216.18 93.87 219.53 92.54 223.02 92.76 C 223.35 97.39 218.09 99.98 214.08 99.00 C 213.55 97.75 213.01 96.50 212.99 95.13 Z" />
</g>
</svg>
