<?xml version="1.0" encoding="UTF-8"?>
<svg version="1.1" viewBox="0 0 24 24" xmlns="http://www.w3.org/2000/svg" xmlns:xlink="http://www.w3.org/1999/xlink">
    <!--Generated by IJSVG (https://github.com/curthard89/IJSVG)-->
    <g fill="#000">
        <path d="M17.822,13.288c-0.027,-2.76 2.25,-4.084 2.354,-4.15c-1.281,-1.872 -3.276,-2.129 -3.986,-2.159c-1.697,-0.172 -3.311,0.999 -4.173,0.999c-0.858,0 -2.189,-0.974 -3.595,-0.949c-1.851,0.029 -3.557,1.076 -4.51,2.733c-1.921,3.334 -0.49,8.275 1.383,10.982c0.914,1.323 2.007,2.81 3.439,2.755c1.381,-0.054 1.902,-0.892 3.57,-0.892c1.669,0 2.137,0.892 3.598,0.865c1.484,-0.026 2.426,-1.348 3.334,-2.676c1.052,-1.537 1.484,-3.023 1.51,-3.1c-0.034,-0.016 -2.895,-1.112 -2.924,-4.408Z"></path>
        <path d="M15.255,4.173c0.803,-0.974 1.345,-2.325 1.198,-3.673c-1.157,0.047 -2.559,0.769 -3.389,1.741c-0.744,0.862 -1.395,2.237 -1.221,3.56c1.291,0.1 2.608,-0.657 3.412,-1.628Z"></path>
    </g>
    <path fill="none" d="M0,0h24v24h-24Z"></path>
</svg>