<?xml version="1.0" encoding="UTF-8" ?>
<!DOCTYPE svg PUBLIC "-//W3C//DTD SVG 1.1//EN" "http://www.w3.org/Graphics/SVG/1.1/DTD/svg11.dtd">
<svg width="350pt" height="136pt" viewBox="0 0 350 136" version="1.1" xmlns="http://www.w3.org/2000/svg">
<path fill="#000000" opacity="1.00" d=" M 58.69 0.00 L 74.34 0.00 C 93.63 3.71 111.25 15.47 122.43 31.58 C 127.05 37.68 129.58 44.97 131.88 52.18 C 135.21 60.72 133.92 70.05 133.87 78.98 C 131.19 95.92 122.40 112.21 108.32 122.34 C 99.05 130.31 87.07 133.74 75.30 136.00 L 54.63 136.00 C 47.31 134.54 40.72 130.96 34.13 127.63 C 34.20 127.11 34.33 126.07 34.40 125.55 C 48.14 123.78 61.45 119.62 74.12 114.10 C 86.37 108.21 98.09 100.08 105.32 88.32 C 108.41 82.80 110.48 76.44 109.94 70.06 C 108.64 59.12 105.57 48.07 98.85 39.17 C 93.63 31.98 86.16 26.90 78.72 22.26 C 71.12 17.41 62.37 14.93 53.89 12.15 C 46.67 9.75 39.00 9.54 31.64 7.82 C 40.02 3.36 49.57 2.19 58.69 0.00 Z" />
<path fill="#000000" opacity="1.00" d=" M 157.31 13.11 C 160.63 12.95 163.95 12.89 167.26 13.08 C 165.07 15.71 162.69 18.19 160.59 20.90 C 158.65 20.94 156.71 20.96 154.77 20.98 C 155.46 18.31 156.37 15.70 157.31 13.11 Z" />
<path fill="#000000" opacity="1.00" d=" M 153.38 22.38 C 159.97 21.20 167.51 21.53 172.71 26.29 C 176.97 31.15 177.94 38.00 177.24 44.23 C 176.75 48.28 175.55 52.59 172.30 55.30 C 166.72 60.25 158.45 61.35 151.67 58.32 C 145.60 56.42 142.56 49.92 142.01 44.01 C 141.86 39.81 141.47 35.30 143.43 31.43 C 145.55 27.40 148.92 23.73 153.38 22.38 M 156.38 29.31 C 149.58 33.50 149.63 43.41 153.35 49.65 C 155.25 51.63 158.06 53.06 160.84 52.97 C 164.73 51.89 168.15 48.22 168.02 44.02 C 167.98 39.98 168.94 35.27 166.10 31.92 C 164.08 28.69 159.71 28.40 156.38 29.31 Z" />
<path fill="#000000" opacity="1.00" d=" M 183.22 26.36 C 185.64 24.89 188.15 23.56 190.85 22.69 C 190.97 25.75 191.04 28.80 191.06 31.86 C 192.74 31.96 194.41 32.05 196.09 32.15 C 196.04 33.68 196.05 35.21 195.87 36.72 C 194.68 38.03 192.67 37.89 191.10 38.39 C 191.01 43.20 190.47 48.10 191.66 52.83 C 193.09 52.51 194.53 52.21 195.98 51.95 C 195.99 53.95 195.99 55.95 196.00 57.94 C 191.64 59.78 186.38 59.53 183.04 55.88 C 182.91 50.06 183.14 44.25 182.87 38.44 C 181.57 37.91 180.27 37.40 178.96 36.89 C 179.00 35.33 179.01 33.77 179.00 32.22 C 180.28 32.07 181.55 31.94 182.83 31.80 C 182.96 29.99 183.10 28.18 183.22 26.36 Z" />
<path fill="#000000" opacity="1.00" d=" M 200.00 23.02 C 203.00 22.97 206.00 22.97 209.01 23.02 C 209.00 25.34 209.00 27.66 209.01 29.98 C 206.00 30.03 203.00 30.03 199.99 29.98 C 200.00 27.66 200.00 25.34 200.00 23.02 Z" />
<path fill="#000000" opacity="1.00" d=" M 10.38 28.31 C 18.04 26.73 26.07 29.27 32.43 33.56 C 41.26 39.60 46.24 49.68 49.32 59.63 C 50.58 65.63 53.04 71.93 51.08 78.05 C 47.49 89.35 39.59 99.55 28.82 104.80 C 22.71 107.29 15.91 108.71 9.33 107.79 C 4.66 100.78 3.54 92.08 0.00 84.50 L 0.00 82.45 C 6.18 79.99 12.55 75.13 13.08 67.98 C 13.18 59.96 6.48 54.05 0.00 50.47 L 0.00 48.46 C 3.00 41.58 4.89 33.72 10.38 28.31 Z" />
<path fill="#000000" opacity="1.00" d=" M 215.57 36.58 C 218.93 30.45 227.20 29.91 233.21 31.78 C 236.69 32.85 238.68 36.28 239.25 39.70 C 236.60 40.11 233.95 40.56 231.30 40.97 C 230.41 39.61 229.53 38.25 228.65 36.89 C 226.64 37.00 224.09 37.09 223.28 39.36 C 222.70 42.47 222.78 45.70 223.14 48.84 C 223.28 50.90 224.93 52.72 227.01 52.90 C 229.58 52.75 230.36 49.92 231.48 48.08 C 234.44 47.77 237.41 48.10 240.21 49.12 C 239.17 51.61 238.38 54.42 236.23 56.22 C 231.53 59.67 224.89 59.84 219.79 57.18 C 213.37 52.70 212.25 43.26 215.57 36.58 Z" />
<path fill="#000000" opacity="1.00" d=" M 242.77 38.01 C 244.43 35.08 246.53 31.72 250.16 31.17 C 253.97 30.79 257.87 30.67 261.66 31.34 C 265.51 32.23 266.94 36.47 266.99 39.99 C 267.15 46.34 266.48 52.76 268.02 59.00 C 265.26 59.12 262.43 59.21 259.81 58.17 C 257.22 57.02 254.62 58.94 251.99 59.04 C 248.45 59.01 244.47 57.41 243.04 53.92 C 240.59 49.54 243.75 43.68 248.39 42.44 C 251.56 41.52 254.79 40.84 257.94 39.89 C 257.97 39.15 258.01 37.68 258.03 36.94 C 255.05 36.69 251.83 36.87 250.48 40.01 C 247.85 39.59 245.27 38.93 242.77 38.01 M 250.51 49.96 C 251.42 50.93 252.30 51.92 253.29 52.81 C 255.07 53.09 256.47 51.61 257.98 50.93 C 258.01 49.31 258.06 47.69 258.13 46.08 C 255.28 46.70 252.31 47.46 250.51 49.96 Z" />
<path fill="#000000" opacity="1.00" d=" M 200.04 32.02 C 203.01 31.97 205.98 31.97 208.96 32.02 C 209.03 41.01 209.04 49.99 208.96 58.98 C 205.99 59.03 203.01 59.03 200.04 58.98 C 199.96 49.99 199.96 41.00 200.04 32.02 Z" />
<path fill="#000000" opacity="1.00" d=" M 143.04 67.04 C 160.68 66.97 178.32 66.97 195.96 67.04 C 196.06 71.01 196.06 74.98 195.96 78.96 C 189.65 79.11 183.34 78.90 177.04 79.04 C 176.91 96.34 177.09 113.65 176.96 130.95 C 171.65 131.06 166.34 131.06 161.03 130.95 C 160.91 113.65 161.10 96.34 160.96 79.04 C 154.99 78.91 149.02 79.09 143.04 78.96 C 142.94 74.99 142.94 71.01 143.04 67.04 Z" />
<path fill="#000000" opacity="1.00" d=" M 335.06 67.05 C 340.04 66.96 345.02 66.94 350.00 67.01 L 350.00 130.98 C 345.02 131.06 340.03 131.04 335.05 130.94 C 334.96 109.65 334.95 88.35 335.06 67.05 Z" />
<path fill="#000000" opacity="1.00" d=" M 253.14 74.38 C 258.16 72.36 262.28 68.06 267.93 67.77 C 268.09 73.16 267.94 78.55 268.03 83.93 C 270.67 83.96 273.32 84.04 275.98 84.07 C 276.05 87.35 276.04 90.64 275.97 93.93 C 273.32 93.96 270.68 94.04 268.03 94.07 C 267.97 103.02 267.96 111.97 268.04 120.93 C 270.62 120.96 273.20 121.05 275.78 121.09 C 276.23 124.02 276.70 126.95 277.13 129.89 C 272.47 133.12 266.49 132.05 261.18 131.80 C 256.57 131.55 253.13 127.44 253.09 122.94 C 252.77 113.34 253.18 103.72 252.97 94.11 C 250.98 94.03 249.00 93.96 247.03 93.89 C 246.95 90.63 246.95 87.37 247.03 84.11 C 249.00 84.04 250.97 83.96 252.94 83.89 C 252.96 80.72 253.02 77.55 253.14 74.38 Z" />
<path fill="#000000" opacity="1.00" d=" M 211.39 83.42 C 218.25 82.58 225.94 82.05 231.99 86.03 C 237.62 89.97 242.60 95.84 242.98 102.99 C 243.21 108.58 243.39 114.58 240.62 119.64 C 237.13 125.43 231.74 130.69 224.80 131.77 C 217.38 132.56 209.24 132.44 202.81 128.16 C 190.36 119.06 189.69 98.31 201.19 88.18 C 203.94 85.49 207.73 84.28 211.39 83.42 M 217.31 93.37 C 212.58 94.62 209.11 99.11 208.99 103.98 C 208.79 108.80 208.36 114.31 211.80 118.21 C 214.05 120.53 217.70 122.93 220.90 120.95 C 228.32 117.06 229.81 106.70 226.35 99.64 C 224.64 96.34 221.26 92.98 217.31 93.37 Z" />
<path fill="#000000" opacity="1.00" d=" M 292.75 83.68 C 298.39 82.55 304.22 82.89 309.93 83.12 C 314.45 83.90 319.92 85.63 321.70 90.33 C 323.77 95.29 322.85 100.78 323.01 106.00 C 323.21 114.38 321.74 123.29 325.87 131.03 C 321.00 131.04 316.13 131.06 311.27 130.93 C 310.74 130.05 310.21 129.17 309.68 128.29 C 303.76 132.78 295.75 132.85 288.81 131.22 C 278.27 128.41 276.73 112.24 285.35 106.38 C 292.38 102.47 300.80 102.87 308.14 99.78 C 308.79 95.80 304.94 92.59 301.16 93.04 C 297.76 93.58 296.28 97.06 293.75 98.94 C 289.34 99.38 285.04 97.96 280.83 96.84 C 282.45 91.00 286.35 84.81 292.75 83.68 M 294.80 115.12 C 295.01 116.97 294.88 119.20 296.73 120.28 C 299.25 122.97 303.04 121.20 305.66 119.66 C 308.48 117.75 307.92 113.95 308.11 111.02 C 303.53 111.85 298.85 112.68 294.80 115.12 Z" />
</svg>
