<?xml version="1.0" encoding="UTF-8" ?>
<!DOCTYPE svg PUBLIC "-//W3C//DTD SVG 1.1//EN" "http://www.w3.org/Graphics/SVG/1.1/DTD/svg11.dtd">
<svg width="350pt" height="136pt" viewBox="0 0 350 136" version="1.1" xmlns="http://www.w3.org/2000/svg">
<path shape-rendering="optimizeQuality" fill="#ffffff" opacity="1.00" d=" M 0.00 0.00 L 350.00 0.00 L 350.00 67.24 C 345.10 67.00 340.19 67.03 335.29 67.13 C 335.26 88.37 335.25 109.61 335.29 130.86 C 340.19 131.02 345.10 130.97 350.00 130.87 L 350.00 136.00 L 70.40 136.00 C 80.41 134.48 90.77 132.80 99.59 127.50 C 111.15 121.27 120.89 111.52 126.66 99.68 C 130.01 93.50 131.68 86.63 133.50 79.90 C 134.15 74.61 133.69 69.25 133.81 63.94 C 133.99 60.27 132.61 56.83 131.68 53.36 C 127.46 36.23 116.12 21.22 101.36 11.71 C 89.70 3.61 75.23 -0.87 61.02 0.85 C 51.37 1.69 41.85 4.02 32.86 7.63 C 55.13 10.47 78.12 17.40 94.48 33.52 C 105.48 43.58 109.47 58.86 110.76 73.21 C 109.63 83.66 103.78 93.13 96.32 100.32 C 79.23 115.54 56.62 122.32 34.57 126.51 C 41.70 132.79 51.45 134.65 60.57 136.00 L 0.00 136.00 L 0.00 0.00 M 158.21 13.11 C 156.97 15.46 155.75 17.84 154.82 20.34 C 156.49 20.38 158.18 20.49 159.84 20.26 C 162.51 18.35 164.73 15.86 166.54 13.14 C 163.76 13.03 160.99 13.02 158.21 13.11 M 154.39 22.56 C 149.04 23.74 144.61 27.95 143.18 33.25 C 141.38 39.82 141.51 47.63 145.71 53.27 C 150.41 59.62 159.36 60.62 166.46 58.48 C 173.30 56.36 177.49 48.98 177.03 42.03 C 177.30 36.85 176.59 31.15 172.76 27.29 C 168.43 21.92 160.71 21.22 154.39 22.56 M 183.18 27.16 C 183.10 28.73 183.03 30.30 182.97 31.86 C 182.18 31.96 180.61 32.14 179.83 32.23 C 179.83 33.74 179.86 35.25 179.91 36.76 C 180.64 36.93 182.12 37.25 182.85 37.42 C 183.42 43.15 182.50 48.98 183.42 54.67 C 185.15 59.85 191.84 58.45 195.98 57.77 C 195.89 56.26 195.80 54.75 195.70 53.24 C 194.22 52.99 192.74 52.79 191.26 52.60 C 190.64 47.57 190.94 42.50 191.07 37.45 C 192.49 37.40 193.90 37.33 195.32 37.25 C 195.38 35.53 195.40 33.80 195.42 32.08 C 193.91 32.03 192.42 31.99 190.92 31.95 C 190.95 28.88 190.90 25.81 190.82 22.74 C 188.07 23.83 185.51 25.35 183.18 27.16 M 200.83 22.99 C 200.82 25.11 200.71 27.23 200.67 29.36 C 203.32 29.44 206.02 29.61 208.63 29.04 C 208.61 27.10 208.64 25.15 208.69 23.21 C 206.07 23.04 203.45 22.99 200.83 22.99 M 10.72 28.78 C 5.20 34.48 2.80 42.44 0.78 49.96 C 2.98 51.48 5.21 52.99 7.27 54.70 C 11.72 58.67 14.41 64.90 13.10 70.87 C 11.19 76.61 5.94 80.35 0.82 83.08 C 2.97 91.21 5.39 99.36 9.22 106.88 C 17.82 107.96 27.10 106.50 34.06 101.04 C 42.73 94.53 49.63 84.91 51.37 74.05 C 50.91 66.16 48.82 58.40 45.74 51.12 C 41.74 42.21 34.90 34.06 25.53 30.59 C 20.89 28.88 15.54 27.36 10.72 28.78 M 220.45 32.40 C 213.24 36.50 212.38 46.98 216.41 53.60 C 219.57 58.23 225.83 59.19 230.98 58.08 C 235.47 57.50 238.51 53.34 239.70 49.25 C 236.97 48.80 234.25 48.30 231.51 48.01 C 231.15 50.48 229.30 54.03 226.28 52.87 C 223.43 52.23 222.78 49.13 222.16 46.72 C 221.44 42.54 222.91 37.74 227.03 35.91 C 228.88 37.17 230.20 39.04 231.96 40.40 C 234.34 40.26 236.69 39.87 239.05 39.54 C 237.70 31.21 227.04 28.98 220.45 32.40 M 248.28 32.17 C 245.69 32.97 244.68 35.60 243.75 37.86 C 245.85 38.91 248.18 39.20 250.47 39.58 C 251.92 36.70 255.11 35.66 258.00 37.07 C 258.10 37.84 258.32 39.37 258.43 40.14 C 254.14 41.72 249.23 41.65 245.36 44.26 C 241.74 47.74 242.03 54.76 246.54 57.40 C 250.45 59.41 255.05 58.36 258.87 56.64 C 261.21 59.27 264.85 58.30 267.94 58.35 C 264.63 50.55 268.15 41.72 265.10 33.91 C 260.41 30.07 253.74 30.37 248.28 32.17 M 200.61 31.97 C 200.84 40.83 200.04 49.76 201.01 58.57 C 203.48 58.48 205.96 58.43 208.43 58.35 C 208.79 49.63 208.39 40.90 208.66 32.17 C 205.98 32.01 203.29 31.97 200.61 31.97 M 143.06 67.05 C 143.01 71.01 143.01 74.97 143.10 78.93 C 149.35 78.93 155.60 78.85 161.85 79.00 C 161.32 96.29 161.58 113.63 161.68 130.93 C 166.69 130.90 171.71 131.03 176.72 130.85 C 176.77 113.53 176.68 96.21 176.74 78.89 C 182.90 78.97 189.06 78.89 195.22 78.92 C 195.01 74.97 195.02 71.01 195.22 67.06 C 177.84 67.07 160.45 67.15 143.06 67.05 M 253.73 74.65 C 252.36 77.45 253.29 80.97 253.05 84.05 C 251.12 84.06 249.19 84.07 247.26 84.13 C 247.25 87.36 247.26 90.60 247.29 93.83 C 249.23 93.91 251.17 93.94 253.12 93.98 C 252.97 103.01 252.96 112.05 253.08 121.09 C 253.01 125.12 255.08 129.43 259.04 130.88 C 264.37 132.94 270.37 131.99 275.75 130.55 C 277.11 127.84 275.44 124.12 275.60 121.02 C 273.37 121.05 271.20 121.54 269.05 122.07 C 267.73 120.36 266.99 118.28 267.02 116.11 C 266.93 108.81 266.91 101.49 267.21 94.19 C 270.03 93.98 272.85 93.94 275.68 93.85 C 275.57 90.62 275.60 87.37 275.71 84.14 C 272.94 83.96 270.06 84.41 267.38 83.60 C 266.19 78.42 267.84 73.06 266.95 67.83 C 262.11 69.11 258.00 72.17 253.73 74.65 M 214.29 83.19 C 205.23 83.96 196.91 90.47 194.60 99.36 C 192.72 107.02 193.35 115.68 197.57 122.49 C 200.76 127.56 206.50 130.32 212.20 131.49 C 219.21 132.63 227.02 132.23 232.96 127.92 C 245.86 119.10 246.54 97.43 234.13 87.88 C 228.66 83.33 221.13 82.53 214.29 83.19 M 291.44 84.50 C 286.03 86.14 282.07 91.36 281.75 96.97 C 285.74 97.58 289.69 98.77 293.73 98.88 C 295.63 97.83 295.99 95.15 297.76 93.85 C 300.59 92.52 303.91 92.78 306.67 94.17 C 308.57 95.32 308.19 97.81 308.72 99.68 C 301.02 103.77 290.99 102.16 284.09 108.07 C 277.63 114.09 279.27 125.78 286.94 130.05 C 294.02 133.48 303.09 132.62 309.26 127.65 C 309.98 128.65 310.66 129.68 311.46 130.63 C 315.97 131.29 320.59 130.84 325.15 130.84 C 320.38 119.23 323.86 106.53 322.35 94.44 C 322.08 88.64 316.58 84.28 311.07 83.70 C 304.59 82.66 297.75 82.49 291.44 84.50 Z" />
<path shape-rendering="optimizeQuality" fill="#313032" opacity="1.00" d=" M 32.86 7.63 C 41.85 4.02 51.37 1.69 61.02 0.85 C 75.23 -0.87 89.70 3.61 101.36 11.71 C 116.12 21.22 127.46 36.23 131.68 53.36 C 132.61 56.83 133.99 60.27 133.81 63.94 C 133.69 69.25 134.15 74.61 133.50 79.90 C 131.68 86.63 130.01 93.50 126.66 99.68 C 120.89 111.52 111.15 121.27 99.59 127.50 C 90.77 132.80 80.41 134.48 70.40 136.00 L 60.57 136.00 C 51.45 134.65 41.70 132.79 34.57 126.51 C 56.62 122.32 79.23 115.54 96.32 100.32 C 103.78 93.13 109.63 83.66 110.76 73.21 C 109.47 58.86 105.48 43.58 94.48 33.52 C 78.12 17.40 55.13 10.47 32.86 7.63 Z" />
<path shape-rendering="optimizeQuality" fill="#313032" opacity="1.00" d=" M 158.21 13.11 C 160.99 13.02 163.76 13.03 166.54 13.14 C 164.73 15.86 162.51 18.35 159.84 20.26 C 158.18 20.49 156.49 20.38 154.82 20.34 C 155.75 17.84 156.97 15.46 158.21 13.11 Z" />
<path shape-rendering="optimizeQuality" fill="#313032" opacity="1.00" d=" M 154.39 22.56 C 160.71 21.22 168.43 21.92 172.76 27.29 C 176.59 31.15 177.30 36.85 177.03 42.03 C 177.49 48.98 173.30 56.36 166.46 58.48 C 159.36 60.62 150.41 59.62 145.71 53.27 C 141.51 47.63 141.38 39.82 143.18 33.25 C 144.61 27.95 149.04 23.74 154.39 22.56 M 159.26 28.24 C 155.52 28.88 152.12 31.67 151.36 35.48 C 150.49 39.99 150.15 45.15 152.80 49.16 C 155.07 52.96 160.90 54.48 164.36 51.41 C 169.09 47.74 169.10 41.07 168.20 35.70 C 167.47 31.45 163.49 28.36 159.26 28.24 Z" />
<path shape-rendering="optimizeQuality" fill="#313032" opacity="1.00" d=" M 183.18 27.16 C 185.51 25.35 188.07 23.83 190.82 22.74 C 190.90 25.81 190.95 28.88 190.92 31.95 C 192.42 31.99 193.91 32.03 195.42 32.08 C 195.40 33.80 195.38 35.53 195.32 37.25 C 193.90 37.33 192.49 37.40 191.07 37.45 C 190.94 42.50 190.64 47.57 191.26 52.60 C 192.74 52.79 194.22 52.99 195.70 53.24 C 195.80 54.75 195.89 56.26 195.98 57.77 C 191.84 58.45 185.15 59.85 183.42 54.67 C 182.50 48.98 183.42 43.15 182.85 37.42 C 182.12 37.25 180.64 36.93 179.91 36.76 C 179.86 35.25 179.83 33.74 179.83 32.23 C 180.61 32.14 182.18 31.96 182.97 31.86 C 183.03 30.30 183.10 28.73 183.18 27.16 Z" />
<path shape-rendering="optimizeQuality" fill="#313032" opacity="1.00" d=" M 200.83 22.99 C 203.45 22.99 206.07 23.04 208.69 23.21 C 208.64 25.15 208.61 27.10 208.63 29.04 C 206.02 29.61 203.32 29.44 200.67 29.36 C 200.71 27.23 200.82 25.11 200.83 22.99 Z" />
<path shape-rendering="optimizeQuality" fill="#313032" opacity="1.00" d=" M 10.72 28.78 C 15.54 27.36 20.89 28.88 25.53 30.59 C 34.90 34.06 41.74 42.21 45.74 51.12 C 48.82 58.40 50.91 66.16 51.37 74.05 C 49.63 84.91 42.73 94.53 34.06 101.04 C 27.10 106.50 17.82 107.96 9.22 106.88 C 5.39 99.36 2.97 91.21 0.82 83.08 C 5.94 80.35 11.19 76.61 13.10 70.87 C 14.41 64.90 11.72 58.67 7.27 54.70 C 5.21 52.99 2.98 51.48 0.78 49.96 C 2.80 42.44 5.20 34.48 10.72 28.78 Z" />
<path shape-rendering="optimizeQuality" fill="#ffffff" opacity="1.00" d=" M 159.26 28.24 C 163.49 28.36 167.47 31.45 168.20 35.70 C 169.10 41.07 169.09 47.74 164.36 51.41 C 160.90 54.48 155.07 52.96 152.80 49.16 C 150.15 45.15 150.49 39.99 151.36 35.48 C 152.12 31.67 155.52 28.88 159.26 28.24 Z" />
<path shape-rendering="optimizeQuality" fill="#313032" opacity="1.00" d=" M 220.45 32.40 C 227.04 28.98 237.70 31.21 239.05 39.54 C 236.69 39.87 234.34 40.26 231.96 40.40 C 230.20 39.04 228.88 37.17 227.03 35.91 C 222.91 37.74 221.44 42.54 222.16 46.72 C 222.78 49.13 223.43 52.23 226.28 52.87 C 229.30 54.03 231.15 50.48 231.51 48.01 C 234.25 48.30 236.97 48.80 239.70 49.25 C 238.51 53.34 235.47 57.50 230.98 58.08 C 225.83 59.19 219.57 58.23 216.41 53.60 C 212.38 46.98 213.24 36.50 220.45 32.40 Z" />
<path shape-rendering="optimizeQuality" fill="#313032" opacity="1.00" d=" M 248.28 32.17 C 253.74 30.37 260.41 30.07 265.10 33.91 C 268.15 41.72 264.63 50.55 267.94 58.35 C 264.85 58.30 261.21 59.27 258.87 56.64 C 255.05 58.36 250.45 59.41 246.54 57.40 C 242.03 54.76 241.74 47.74 245.36 44.26 C 249.23 41.65 254.14 41.72 258.43 40.14 C 258.32 39.37 258.10 37.84 258.00 37.07 C 255.11 35.66 251.92 36.70 250.47 39.58 C 248.18 39.20 245.85 38.91 243.75 37.86 C 244.68 35.60 245.69 32.97 248.28 32.17 M 251.80 47.83 C 249.14 50.02 252.89 54.48 255.57 52.59 C 258.35 51.72 258.46 48.45 258.79 46.06 C 256.40 46.31 253.91 46.59 251.80 47.83 Z" />
<path shape-rendering="optimizeQuality" fill="#313032" opacity="1.00" d=" M 200.61 31.97 C 203.29 31.97 205.98 32.01 208.66 32.17 C 208.39 40.90 208.79 49.63 208.43 58.35 C 205.96 58.43 203.48 58.48 201.01 58.57 C 200.04 49.76 200.84 40.83 200.61 31.97 Z" />
<path shape-rendering="optimizeQuality" fill="#ffffff" opacity="1.00" d=" M 251.80 47.83 C 253.91 46.59 256.40 46.31 258.79 46.06 C 258.46 48.45 258.35 51.72 255.57 52.59 C 252.89 54.48 249.14 50.02 251.80 47.83 Z" />
<path shape-rendering="optimizeQuality" fill="#313032" opacity="1.00" d=" M 143.06 67.05 C 160.45 67.15 177.84 67.07 195.22 67.06 C 195.02 71.01 195.01 74.97 195.22 78.92 C 189.06 78.89 182.90 78.97 176.74 78.89 C 176.68 96.21 176.77 113.53 176.72 130.85 C 171.71 131.03 166.69 130.90 161.68 130.93 C 161.58 113.63 161.32 96.29 161.85 79.00 C 155.60 78.85 149.35 78.93 143.10 78.93 C 143.01 74.97 143.01 71.01 143.06 67.05 Z" />
<path shape-rendering="optimizeQuality" fill="#313032" opacity="1.00" d=" M 335.29 67.13 C 340.19 67.03 345.10 67.00 350.00 67.24 L 350.00 130.87 C 345.10 130.97 340.19 131.02 335.29 130.86 C 335.25 109.61 335.26 88.37 335.29 67.13 Z" />
<path shape-rendering="optimizeQuality" fill="#313032" opacity="1.00" d=" M 253.73 74.65 C 258.00 72.17 262.11 69.11 266.95 67.83 C 267.84 73.06 266.19 78.42 267.38 83.60 C 270.06 84.41 272.94 83.96 275.71 84.14 C 275.60 87.37 275.57 90.62 275.68 93.85 C 272.85 93.94 270.03 93.98 267.21 94.19 C 266.91 101.49 266.93 108.81 267.02 116.11 C 266.99 118.28 267.73 120.36 269.05 122.07 C 271.20 121.54 273.37 121.05 275.60 121.02 C 275.44 124.12 277.11 127.84 275.75 130.55 C 270.37 131.99 264.37 132.94 259.04 130.88 C 255.08 129.43 253.01 125.12 253.08 121.09 C 252.96 112.05 252.97 103.01 253.12 93.98 C 251.17 93.94 249.23 93.91 247.29 93.83 C 247.26 90.60 247.25 87.36 247.26 84.13 C 249.19 84.07 251.12 84.06 253.05 84.05 C 253.29 80.97 252.36 77.45 253.73 74.65 Z" />
<path shape-rendering="optimizeQuality" fill="#313032" opacity="1.00" d=" M 214.29 83.19 C 221.13 82.53 228.66 83.33 234.13 87.88 C 246.54 97.43 245.86 119.10 232.96 127.92 C 227.02 132.23 219.21 132.63 212.20 131.49 C 206.50 130.32 200.76 127.56 197.57 122.49 C 193.35 115.68 192.72 107.02 194.60 99.36 C 196.91 90.47 205.23 83.96 214.29 83.19 M 216.38 93.37 C 209.88 95.27 207.95 102.85 208.06 108.84 C 208.61 114.57 211.70 121.39 218.16 122.00 C 223.16 121.81 226.84 117.17 227.68 112.50 C 228.61 107.24 228.45 101.24 225.25 96.73 C 223.02 94.47 219.70 92.03 216.38 93.37 Z" />
<path shape-rendering="optimizeQuality" fill="#313032" opacity="1.00" d=" M 291.44 84.50 C 297.75 82.49 304.59 82.66 311.07 83.70 C 316.58 84.28 322.08 88.64 322.35 94.44 C 323.86 106.53 320.38 119.23 325.15 130.84 C 320.59 130.84 315.97 131.29 311.46 130.63 C 310.66 129.68 309.98 128.65 309.26 127.65 C 303.09 132.62 294.02 133.48 286.94 130.05 C 279.27 125.78 277.63 114.09 284.09 108.07 C 290.99 102.16 301.02 103.77 308.72 99.68 C 308.19 97.81 308.57 95.32 306.67 94.17 C 303.91 92.78 300.59 92.52 297.76 93.85 C 295.99 95.15 295.63 97.83 293.73 98.88 C 289.69 98.77 285.74 97.58 281.75 96.97 C 282.07 91.36 286.03 86.14 291.44 84.50 M 296.15 114.12 C 292.34 117.21 297.12 122.39 300.92 122.03 C 302.88 121.60 304.68 120.56 306.29 119.38 C 308.69 117.19 308.38 113.66 308.52 110.72 C 304.40 111.59 299.68 111.65 296.15 114.12 Z" />
<path shape-rendering="optimizeQuality" fill="#ffffff" opacity="1.00" d=" M 216.38 93.37 C 219.70 92.03 223.02 94.47 225.25 96.73 C 228.45 101.24 228.61 107.24 227.68 112.50 C 226.84 117.17 223.16 121.81 218.16 122.00 C 211.70 121.39 208.61 114.57 208.06 108.84 C 207.95 102.85 209.88 95.27 216.38 93.37 Z" />
<path shape-rendering="optimizeQuality" fill="#ffffff" opacity="1.00" d=" M 296.15 114.12 C 299.68 111.65 304.40 111.59 308.52 110.72 C 308.38 113.66 308.69 117.19 306.29 119.38 C 304.68 120.56 302.88 121.60 300.92 122.03 C 297.12 122.39 292.34 117.21 296.15 114.12 Z" />
</svg>
